<svg class="main-svg" xmlns="http://www.w3.org/2000/svg" xmlns:xlink="http://www.w3.org/1999/xlink" width="700" height="630" style="" viewBox="0 0 700 630"><rect x="0" y="0" width="700" height="630" style="fill: rgb(255, 255, 255); fill-opacity: 1;"/><defs id="defs-c0d751"><g class="clips"><clipPath id="clipc0d751xyplot" class="plotclip"><rect width="643" height="154.93333333333337"/></clipPath><clipPath id="clipc0d751x2y2plot" class="plotclip"><rect width="643" height="154.93333333333334"/></clipPath><clipPath id="clipc0d751x3y3plot" class="plotclip"><rect width="643" height="154.93333333333334"/></clipPath><clipPath class="axesclip" id="clipc0d751x"><rect x="47" y="0" width="643" height="630"/></clipPath><clipPath class="axesclip" id="clipc0d751y"><rect x="0" y="10" width="700" height="154.93333333333337"/></clipPath><clipPath class="axesclip" id="clipc0d751xy"><rect x="47" y="10" width="643" height="154.93333333333337"/></clipPath><clipPath class="axesclip" id="clipc0d751y2"><rect x="0" y="223.03333333333336" width="700" height="154.93333333333334"/></clipPath><clipPath class="axesclip" id="clipc0d751xy2"><rect x="47" y="223.03333333333336" width="643" height="154.93333333333334"/></clipPath><clipPath class="axesclip" id="clipc0d751y3"><rect x="0" y="436.0666666666667" width="700" height="154.93333333333334"/></clipPath><clipPath class="axesclip" id="clipc0d751xy3"><rect x="47" y="436.0666666666667" width="643" height="154.93333333333334"/></clipPath><clipPath class="axesclip" id="clipc0d751x2"><rect x="47" y="0" width="643" height="630"/></clipPath><clipPath class="axesclip" id="clipc0d751x2y"><rect x="47" y="10" width="643" height="154.93333333333337"/></clipPath><clipPath class="axesclip" id="clipc0d751x2y2"><rect x="47" y="223.03333333333336" width="643" height="154.93333333333334"/></clipPath><clipPath class="axesclip" id="clipc0d751x2y3"><rect x="47" y="436.0666666666667" width="643" height="154.93333333333334"/></clipPath><clipPath class="axesclip" id="clipc0d751x3"><rect x="47" y="0" width="643" height="630"/></clipPath><clipPath class="axesclip" id="clipc0d751x3y"><rect x="47" y="10" width="643" height="154.93333333333337"/></clipPath><clipPath class="axesclip" id="clipc0d751x3y2"><rect x="47" y="223.03333333333336" width="643" height="154.93333333333334"/></clipPath><clipPath class="axesclip" id="clipc0d751x3y3"><rect x="47" y="436.0666666666667" width="643" height="154.93333333333334"/></clipPath></g><g class="gradients"/><g class="patterns"/></defs><g class="bglayer"/><g class="layer-below"><g class="imagelayer"/><g class="shapelayer"/></g><g class="cartesianlayer"><g class="subplot xy"><g class="layer-subplot"><g class="shapelayer"/><g class="imagelayer"/></g><g class="minor-gridlayer"><g class="x"/><g class="y"/></g><g class="gridlayer"><g class="x"><path class="xgrid crisp" transform="translate(80.53999999999999,0)" d="M0,10v154.93333333333337" style="stroke: rgb(235, 240, 248); stroke-opacity: 1; stroke-width: 1px;"/><path class="xgrid crisp" transform="translate(152.75,0)" d="M0,10v154.93333333333337" style="stroke: rgb(235, 240, 248); stroke-opacity: 1; stroke-width: 1px;"/><path class="xgrid crisp" transform="translate(224.77,0)" d="M0,10v154.93333333333337" style="stroke: rgb(235, 240, 248); stroke-opacity: 1; stroke-width: 1px;"/><path class="xgrid crisp" transform="translate(296.78,0)" d="M0,10v154.93333333333337" style="stroke: rgb(235, 240, 248); stroke-opacity: 1; stroke-width: 1px;"/><path class="xgrid crisp" transform="translate(368.8,0)" d="M0,10v154.93333333333337" style="stroke: rgb(235, 240, 248); stroke-opacity: 1; stroke-width: 1px;"/><path class="xgrid crisp" transform="translate(441.01,0)" d="M0,10v154.93333333333337" style="stroke: rgb(235, 240, 248); stroke-opacity: 1; stroke-width: 1px;"/><path class="xgrid crisp" transform="translate(513.02,0)" d="M0,10v154.93333333333337" style="stroke: rgb(235, 240, 248); stroke-opacity: 1; stroke-width: 1px;"/><path class="xgrid crisp" transform="translate(585.04,0)" d="M0,10v154.93333333333337" style="stroke: rgb(235, 240, 248); stroke-opacity: 1; stroke-width: 1px;"/><path class="xgrid crisp" transform="translate(657.05,0)" d="M0,10v154.93333333333337" style="stroke: rgb(235, 240, 248); stroke-opacity: 1; stroke-width: 1px;"/></g><g class="y"><path class="ygrid crisp" transform="translate(0,150.99)" d="M47,0h643" style="stroke: rgb(235, 240, 248); stroke-opacity: 1; stroke-width: 1px;"/><path class="ygrid crisp" transform="translate(0,102.76)" d="M47,0h643" style="stroke: rgb(235, 240, 248); stroke-opacity: 1; stroke-width: 1px;"/><path class="ygrid crisp" transform="translate(0,54.52)" d="M47,0h643" style="stroke: rgb(235, 240, 248); stroke-opacity: 1; stroke-width: 1px;"/></g></g><g class="zerolinelayer"/><path class="xlines-below"/><path class="ylines-below"/><g class="overlines-below"/><g class="xaxislayer-below"/><g class="yaxislayer-below"/><g class="overaxes-below"/><g class="plot" transform="translate(47,10)" clip-path="url(#clipc0d751xyplot)"><g class="scatterlayer mlayer"><g class="trace scatter trace557bcb" style="stroke-miterlimit: 2; opacity: 1;"><g class="fills"/><g class="errorbars"/><g class="lines"><path class="js-line" d="M29.2,95.3L68.27,113.69L68.46,113.79L74.18,117.17L74.38,117.32L92.93,131.22L93.13,131.37L114.24,147.19L114.43,146.82L143.44,93.06L143.63,92.7L157.45,68.54L157.64,68.58L180.53,73.53L180.73,73.57L201.44,77.27L201.64,77.24L243.07,71.74L243.27,71.77L284.7,75.59L284.9,75.28L327.32,7.99L327.52,8.12L370.73,36L370.92,36.24L395.59,65.75L395.78,65.99L412.36,84.81L412.55,84.66L454.58,51.8L454.78,51.91L476.28,63.5L476.48,63.6L553.03,104.86L553.23,104.96L613.8,137.6" style="vector-effect: none; fill: none; stroke: rgb(45, 146, 255); stroke-opacity: 1; stroke-width: 2px; opacity: 1;"/></g><g class="points"/><g class="text"/></g></g></g><g class="overplot"/><path class="xlines-above crisp" d="M45.5,165.68333333333337H691.5M45.5,9.25H691.5" style="fill: none; stroke-width: 1.5px; stroke: rgb(235, 240, 248); stroke-opacity: 1;"/><path class="ylines-above crisp" d="M46.25,10V164.93333333333337M690.75,10V164.93333333333337" style="fill: none; stroke-width: 1.5px; stroke: rgb(235, 240, 248); stroke-opacity: 1;"/><g class="overlines-above"/><g class="xaxislayer-above"><g class="xtick"><text text-anchor="middle" x="0" y="178.43333333333337" transform="translate(80.53999999999999,0)" style="font-family: 'Open Sans', verdana, arial, sans-serif; font-size: 10px; fill: rgb(42, 63, 95); fill-opacity: 1; white-space: pre; opacity: 1;">2008</text></g><g class="xtick"><text text-anchor="middle" x="0" y="178.43333333333337" style="font-family: 'Open Sans', verdana, arial, sans-serif; font-size: 10px; fill: rgb(42, 63, 95); fill-opacity: 1; white-space: pre; opacity: 1;" transform="translate(152.75,0)">2009</text></g><g class="xtick"><text text-anchor="middle" x="0" y="178.43333333333337" style="font-family: 'Open Sans', verdana, arial, sans-serif; font-size: 10px; fill: rgb(42, 63, 95); fill-opacity: 1; white-space: pre; opacity: 1;" transform="translate(224.77,0)">2010</text></g><g class="xtick"><text text-anchor="middle" x="0" y="178.43333333333337" style="font-family: 'Open Sans', verdana, arial, sans-serif; font-size: 10px; fill: rgb(42, 63, 95); fill-opacity: 1; white-space: pre; opacity: 1;" transform="translate(296.78,0)">2011</text></g><g class="xtick"><text text-anchor="middle" x="0" y="178.43333333333337" style="font-family: 'Open Sans', verdana, arial, sans-serif; font-size: 10px; fill: rgb(42, 63, 95); fill-opacity: 1; white-space: pre; opacity: 1;" transform="translate(368.8,0)">2012</text></g><g class="xtick"><text text-anchor="middle" x="0" y="178.43333333333337" style="font-family: 'Open Sans', verdana, arial, sans-serif; font-size: 10px; fill: rgb(42, 63, 95); fill-opacity: 1; white-space: pre; opacity: 1;" transform="translate(441.01,0)">2013</text></g><g class="xtick"><text text-anchor="middle" x="0" y="178.43333333333337" style="font-family: 'Open Sans', verdana, arial, sans-serif; font-size: 10px; fill: rgb(42, 63, 95); fill-opacity: 1; white-space: pre; opacity: 1;" transform="translate(513.02,0)">2014</text></g><g class="xtick"><text text-anchor="middle" x="0" y="178.43333333333337" style="font-family: 'Open Sans', verdana, arial, sans-serif; font-size: 10px; fill: rgb(42, 63, 95); fill-opacity: 1; white-space: pre; opacity: 1;" transform="translate(585.04,0)">2015</text></g><g class="xtick"><text text-anchor="middle" x="0" y="178.43333333333337" style="font-family: 'Open Sans', verdana, arial, sans-serif; font-size: 10px; fill: rgb(42, 63, 95); fill-opacity: 1; white-space: pre; opacity: 1;" transform="translate(657.05,0)">2016</text></g></g><g class="yaxislayer-above"><g class="ytick"><text text-anchor="end" x="43.5" y="3.5" transform="translate(0,150.99)" style="font-family: 'Open Sans', verdana, arial, sans-serif; font-size: 10px; fill: rgb(42, 63, 95); fill-opacity: 1; white-space: pre; opacity: 1;">7.5</text></g><g class="ytick"><text text-anchor="end" x="43.5" y="3.5" style="font-family: 'Open Sans', verdana, arial, sans-serif; font-size: 10px; fill: rgb(42, 63, 95); fill-opacity: 1; white-space: pre; opacity: 1;" transform="translate(0,102.76)">8</text></g><g class="ytick"><text text-anchor="end" x="43.5" y="3.5" style="font-family: 'Open Sans', verdana, arial, sans-serif; font-size: 10px; fill: rgb(42, 63, 95); fill-opacity: 1; white-space: pre; opacity: 1;" transform="translate(0,54.52)">8.5</text></g></g><g class="overaxes-above"/></g><g class="subplot x2y2"><g class="layer-subplot"><g class="shapelayer"/><g class="imagelayer"/></g><g class="minor-gridlayer"><g class="x2"/><g class="y2"/></g><g class="gridlayer"><g class="x2"><path class="x2grid crisp" transform="translate(80.53999999999999,0)" d="M0,223.03333333333336v154.93333333333334" style="stroke: rgb(235, 240, 248); stroke-opacity: 1; stroke-width: 1px;"/><path class="x2grid crisp" transform="translate(152.75,0)" d="M0,223.03333333333336v154.93333333333334" style="stroke: rgb(235, 240, 248); stroke-opacity: 1; stroke-width: 1px;"/><path class="x2grid crisp" transform="translate(224.77,0)" d="M0,223.03333333333336v154.93333333333334" style="stroke: rgb(235, 240, 248); stroke-opacity: 1; stroke-width: 1px;"/><path class="x2grid crisp" transform="translate(296.78,0)" d="M0,223.03333333333336v154.93333333333334" style="stroke: rgb(235, 240, 248); stroke-opacity: 1; stroke-width: 1px;"/><path class="x2grid crisp" transform="translate(368.8,0)" d="M0,223.03333333333336v154.93333333333334" style="stroke: rgb(235, 240, 248); stroke-opacity: 1; stroke-width: 1px;"/><path class="x2grid crisp" transform="translate(441.01,0)" d="M0,223.03333333333336v154.93333333333334" style="stroke: rgb(235, 240, 248); stroke-opacity: 1; stroke-width: 1px;"/><path class="x2grid crisp" transform="translate(513.02,0)" d="M0,223.03333333333336v154.93333333333334" style="stroke: rgb(235, 240, 248); stroke-opacity: 1; stroke-width: 1px;"/><path class="x2grid crisp" transform="translate(585.04,0)" d="M0,223.03333333333336v154.93333333333334" style="stroke: rgb(235, 240, 248); stroke-opacity: 1; stroke-width: 1px;"/><path class="x2grid crisp" transform="translate(657.05,0)" d="M0,223.03333333333336v154.93333333333334" style="stroke: rgb(235, 240, 248); stroke-opacity: 1; stroke-width: 1px;"/></g><g class="y2"><path class="y2grid crisp" transform="translate(0,372.98333333333335)" d="M47,0h643" style="stroke: rgb(235, 240, 248); stroke-opacity: 1; stroke-width: 1px;"/><path class="y2grid crisp" transform="translate(0,338.87333333333333)" d="M47,0h643" style="stroke: rgb(235, 240, 248); stroke-opacity: 1; stroke-width: 1px;"/><path class="y2grid crisp" transform="translate(0,270.65333333333336)" d="M47,0h643" style="stroke: rgb(235, 240, 248); stroke-opacity: 1; stroke-width: 1px;"/><path class="y2grid crisp" transform="translate(0,236.55333333333337)" d="M47,0h643" style="stroke: rgb(235, 240, 248); stroke-opacity: 1; stroke-width: 1px;"/></g></g><g class="zerolinelayer"><path class="y2zl zl crisp" transform="translate(0,304.7633333333334)" d="M47,0h643" style="stroke: rgb(235, 240, 248); stroke-opacity: 1; stroke-width: 2px;"/></g><path class="xlines-below"/><path class="ylines-below"/><g class="overlines-below"/><g class="xaxislayer-below"/><g class="yaxislayer-below"/><g class="overaxes-below"/><g class="plot" transform="translate(47,223.03333333333336)" clip-path="url(#clipc0d751x2y2plot)"><g class="scatterlayer mlayer"><g class="trace scatter tracef66ee2" style="stroke-miterlimit: 2; opacity: 1;"><g class="fills"/><g class="errorbars"/><g class="lines"><path class="js-line" d="M29.2,57.85L30.19,59.12L30.38,59.03L30.58,58.8L31.57,55.55L31.77,54.47L33.74,37.04L33.94,34.86L36.9,8.86L37.09,8.28L37.68,7.82L37.88,8.12L38.08,8.65L39.07,14.74L39.26,16.62L41.24,44.41L41.43,47.77L45.38,103.15L45.58,104.53L47.15,110.25L47.35,110.4L48.34,109.99L48.54,109.74L51.3,106.77L51.5,106.82L52.68,108.15L52.88,108.51L57.41,116.56L57.61,116.67L59.98,118.36L60.18,118.68L61.75,123.22L61.95,124.05L67.08,147.12L67.28,147.19L68.07,146.31L68.27,145.82L69.84,138.43L70.04,137.17L75.17,106.99L75.37,106.36L78.33,95.38L78.53,94.23L80.89,74.23L81.09,72.14L85.04,37.58L85.23,36.94L86.22,35.88L86.42,36.09L87.4,38.96L87.6,39.84L91.94,59.35L92.14,59.43L92.93,58.79L93.13,58.4L95.1,51.88L95.3,51.17L97.07,47.1L97.27,47.02L98.06,47.58L98.26,47.93L100.03,53.68L100.23,54.44L102.2,59.12L102.4,59.06L103.19,57.46L103.39,56.71L104.96,45.67L105.16,43.76L109.3,7.98L109.5,7.77L110.09,8.5L110.29,9.21L111.47,18.16L111.67,20.38L114.04,57.16L114.24,60.58L117.2,101.2L117.39,102.78L119.17,110.19L119.37,110.37L120.35,110.05L120.55,109.81L123.31,106.76L123.51,106.8L124.69,108.06L124.89,108.41L129.63,116.64L129.82,116.74L132.19,118.59L132.39,118.95L133.97,123.84L134.16,124.71L139.1,147.09L139.29,147.18L140.08,146.42L140.28,145.95L141.66,139.93L141.86,138.74L147.38,106.52L147.58,105.9L150.34,95.65L150.54,94.52L152.51,78.75L152.71,76.77L157.25,37.08L157.45,36.55L158.23,35.85L158.43,36.02L158.63,36.34L159.81,40.56L160.01,41.57L163.76,59.11L163.96,59.32L164.75,59.15L164.94,58.87L166.32,55L166.52,54.27L169.09,47.13L169.28,47.03L170.07,47.51L170.27,47.84L171.85,52.73L172.05,53.49L174.22,59.12L174.41,59.09L175.2,57.63L175.4,56.91L176.78,47.92L176.98,46.13L181.32,8.06L181.52,7.8L182.11,8.36L182.31,9.01L183.49,17.63L183.69,19.8L186.45,63.12L186.65,66.48L189.41,102.4L189.61,103.86L191.18,110.13L191.38,110.34L192.37,110.1L192.56,109.87L195.52,106.79L195.72,106.87L196.91,108.32L197.1,108.7L201.44,116.5L201.64,116.61L204.4,118.86L204.6,119.26L206.18,124.48L206.38,125.39L211.11,147.06L211.31,147.17L212.1,146.52L212.29,146.08L213.68,140.22L213.87,139.04L219.59,106.05L219.79,105.45L222.36,95.92L222.55,94.81L224.53,79.23L224.72,77.27L229.26,37.24L229.46,36.67L230.25,35.83L230.45,35.97L230.64,36.25L231.63,39.39L231.83,40.31L235.97,59.27L236.17,59.41L236.96,58.95L237.15,58.6L238.73,53.72L238.93,52.98L241.3,47.05L241.49,47.01L242.28,47.75L242.48,48.14L244.26,54.06L244.45,54.81L246.23,59.11L246.43,59.11L247.22,57.79L247.41,57.1L248.8,48.35L248.99,46.59L253.53,7.84L253.73,7.75L254.32,8.82L254.52,9.65L255.7,19.24L255.9,21.56L258.46,62.28L258.66,65.65L261.62,103.51L261.82,104.85L263.4,110.29L263.59,110.43L264.58,109.93L264.78,109.68L267.54,106.78L267.74,106.85L268.92,108.23L269.12,108.6L273.46,116.46L273.65,116.59L276.22,118.43L276.42,118.77L278,123.43L278.19,124.27L283.32,147.15L283.52,147.19L284.31,146.2L284.51,145.68L286.08,138.13L286.28,136.85L291.21,107.48L291.41,106.83L294.57,95.1L294.77,93.93L297.13,73.71L297.33,71.62L301.08,38.17L301.28,37.41L302.26,35.81L302.46,35.92L302.66,36.16L303.64,39.17L303.84,40.08L308.18,59.38L308.38,59.44L309.17,58.7L309.37,58.3L311.73,50.32L311.93,49.69L313.51,47.01L313.71,47.04L314.69,48.48L314.89,49L318.44,59.12L318.64,59.03L318.84,58.8L319.82,55.55L320.02,54.47L321.8,39.17L321.99,37.04L325.35,8.28L325.54,7.9L325.94,7.82L326.14,8.12L326.33,8.65L327.32,14.74L327.52,16.62L329.69,47.77L329.89,51.17L333.44,101.61L333.63,103.15L335.41,110.24L335.61,110.4L336.59,109.99L336.79,109.74L339.55,106.77L339.75,106.82L340.93,108.14L341.13,108.51L345.67,116.56L345.87,116.67L348.43,118.68L348.63,119.05L350.21,124.05L350.4,124.93L355.34,147.13L355.53,147.19L356.32,146.31L356.52,145.82L357.9,139.64L358.1,138.43L363.62,106.36L363.82,105.75L366.58,95.38L366.78,94.23L368.95,76.27L369.15,74.22L373.29,37.58L373.49,36.94L374.28,35.8L374.47,35.88L374.67,36.09L375.66,38.96L375.86,39.84L380,59.17L380.2,59.35L380.99,59.09L381.18,58.79L382.76,54.09L382.96,53.35L385.33,47.1L385.52,47.02L386.31,47.58L386.51,47.93L388.09,52.92L388.29,53.68L390.26,59.06L390.46,59.12L391.05,58.54L391.25,58.08L392.43,52.23L392.63,50.77L397.76,7.77L397.95,7.78L398.55,9.21L398.74,10.14L399.93,20.38L400.12,22.78L403.08,70.6L403.28,73.83L406.04,105.46L406.24,106.56L407.82,110.46L408.02,110.46L409.2,109.24L409.4,108.93L411.37,106.77L411.57,106.76L412.75,107.75L412.95,108.06L417.88,116.64L418.08,116.74L420.45,118.59L420.64,118.95L422.22,123.84L422.42,124.71L427.35,147.09L427.55,147.18L428.34,146.42L428.54,145.96L429.92,139.93L430.11,138.74L435.64,106.52L435.84,105.9L438.79,94.52L438.99,93.31L441.16,74.74L441.36,72.67L445.31,37.77L445.5,37.08L446.49,35.85L446.69,36.03L446.88,36.34L448.07,40.56L448.27,41.57L452.01,59.11L452.21,59.32L453,59.15L453.2,58.87L454.78,54.27L454.97,53.53L457.34,47.13L457.54,47.03L458.33,47.51L458.52,47.84L460.1,52.73L460.3,53.49L462.47,59.12L462.67,59.09L463.46,57.63L463.65,56.91L465.04,47.92L465.23,46.13L469.57,8.06L469.77,7.8L470.36,8.36L470.56,9.01L471.55,15.65L471.74,17.63L473.72,46.08L473.91,49.46L477.66,102.4L477.86,103.86L479.44,110.13L479.64,110.34L480.62,110.1L480.82,109.87L483.78,106.79L483.98,106.87L485.36,108.7L485.55,109.1L489.7,116.5L489.9,116.61L492.66,118.86L492.85,119.26L494.43,124.49L494.63,125.39L499.37,147.05L499.56,147.17L500.35,146.52L500.55,146.08L501.93,140.22L502.13,139.04L507.85,106.05L508.05,105.45L510.81,94.81L511.01,93.62L513.37,73.19L513.57,71.09L517.32,37.96L517.52,37.24L518.5,35.82L518.7,35.97L518.9,36.25L519.88,39.39L520.08,40.32L524.23,59.28L524.42,59.41L525.21,58.95L525.41,58.61L526.99,53.72L527.19,52.98L529.36,47.17L529.55,47.05L530.34,47.44L530.54,47.75L531.92,51.79L532.12,52.54L534.49,59.11L534.68,59.11L535.47,57.79L535.67,57.1L537.05,48.34L537.25,46.59L541.59,8.16L541.79,7.84L542.38,8.23L542.57,8.82L543.56,15.19L543.76,17.12L545.73,45.25L545.93,48.62L549.87,103.51L550.07,104.85L551.65,110.3L551.85,110.43L552.83,109.93L553.03,109.67L555.79,106.78L555.99,106.85L557.17,108.23L557.37,108.6L561.91,116.59L562.11,116.69L564.47,118.43L564.67,118.77L566.05,122.64L566.25,123.42L569.01,138.28L569.21,139.36L571.38,147.01L571.58,147.15L572.37,146.61L572.56,146.2L573.95,140.5L574.14,139.34L579.86,106.21L580.06,105.6L582.63,96.19L582.82,95.1L584.8,79.71L584.99,77.77L589.53,37.41L589.73,36.8L590.52,35.81L590.72,35.92L590.91,36.16L591.9,39.17L592.1,40.08L596.24,59.23L596.44,59.38L597.23,59.02L597.42,58.7L599,53.9L599.2,53.16L601.57,47.07L601.76,47.01L602.55,47.66L602.75,48.03L604.53,53.87L604.72,54.62L606.7,59.12L606.89,59.03L607.68,57.29L607.88,56.49L609.26,47.03L609.46,45.2L613.8,7.9" style="vector-effect: none; fill: none; stroke: rgb(45, 146, 255); stroke-opacity: 1; stroke-width: 2px; opacity: 1;"/></g><g class="points"/><g class="text"/></g></g></g><g class="overplot"/><path class="xlines-above crisp" d="M45.5,378.7166666666667H691.5M45.5,222.28333333333336H691.5" style="fill: none; stroke-width: 1.5px; stroke: rgb(235, 240, 248); stroke-opacity: 1;"/><path class="ylines-above crisp" d="M46.25,223.03333333333336V377.9666666666667M690.75,223.03333333333336V377.9666666666667" style="fill: none; stroke-width: 1.5px; stroke: rgb(235, 240, 248); stroke-opacity: 1;"/><g class="overlines-above"/><g class="xaxislayer-above"><g class="x2tick"><text text-anchor="middle" x="0" y="391.4666666666667" transform="translate(80.53999999999999,0)" style="font-family: 'Open Sans', verdana, arial, sans-serif; font-size: 10px; fill: rgb(42, 63, 95); fill-opacity: 1; white-space: pre; opacity: 1;">2008</text></g><g class="x2tick"><text text-anchor="middle" x="0" y="391.4666666666667" style="font-family: 'Open Sans', verdana, arial, sans-serif; font-size: 10px; fill: rgb(42, 63, 95); fill-opacity: 1; white-space: pre; opacity: 1;" transform="translate(152.75,0)">2009</text></g><g class="x2tick"><text text-anchor="middle" x="0" y="391.4666666666667" style="font-family: 'Open Sans', verdana, arial, sans-serif; font-size: 10px; fill: rgb(42, 63, 95); fill-opacity: 1; white-space: pre; opacity: 1;" transform="translate(224.77,0)">2010</text></g><g class="x2tick"><text text-anchor="middle" x="0" y="391.4666666666667" style="font-family: 'Open Sans', verdana, arial, sans-serif; font-size: 10px; fill: rgb(42, 63, 95); fill-opacity: 1; white-space: pre; opacity: 1;" transform="translate(296.78,0)">2011</text></g><g class="x2tick"><text text-anchor="middle" x="0" y="391.4666666666667" style="font-family: 'Open Sans', verdana, arial, sans-serif; font-size: 10px; fill: rgb(42, 63, 95); fill-opacity: 1; white-space: pre; opacity: 1;" transform="translate(368.8,0)">2012</text></g><g class="x2tick"><text text-anchor="middle" x="0" y="391.4666666666667" style="font-family: 'Open Sans', verdana, arial, sans-serif; font-size: 10px; fill: rgb(42, 63, 95); fill-opacity: 1; white-space: pre; opacity: 1;" transform="translate(441.01,0)">2013</text></g><g class="x2tick"><text text-anchor="middle" x="0" y="391.4666666666667" style="font-family: 'Open Sans', verdana, arial, sans-serif; font-size: 10px; fill: rgb(42, 63, 95); fill-opacity: 1; white-space: pre; opacity: 1;" transform="translate(513.02,0)">2014</text></g><g class="x2tick"><text text-anchor="middle" x="0" y="391.4666666666667" style="font-family: 'Open Sans', verdana, arial, sans-serif; font-size: 10px; fill: rgb(42, 63, 95); fill-opacity: 1; white-space: pre; opacity: 1;" transform="translate(585.04,0)">2015</text></g><g class="x2tick"><text text-anchor="middle" x="0" y="391.4666666666667" style="font-family: 'Open Sans', verdana, arial, sans-serif; font-size: 10px; fill: rgb(42, 63, 95); fill-opacity: 1; white-space: pre; opacity: 1;" transform="translate(657.05,0)">2016</text></g></g><g class="yaxislayer-above"><g class="y2tick"><text text-anchor="end" x="43.5" y="3.5" transform="translate(0,372.98333333333335)" style="font-family: 'Open Sans', verdana, arial, sans-serif; font-size: 10px; fill: rgb(42, 63, 95); fill-opacity: 1; white-space: pre; opacity: 1;">−1</text></g><g class="y2tick"><text text-anchor="end" x="43.5" y="3.5" style="font-family: 'Open Sans', verdana, arial, sans-serif; font-size: 10px; fill: rgb(42, 63, 95); fill-opacity: 1; white-space: pre; opacity: 1;" transform="translate(0,338.87333333333333)">−0.5</text></g><g class="y2tick"><text text-anchor="end" x="43.5" y="3.5" style="font-family: 'Open Sans', verdana, arial, sans-serif; font-size: 10px; fill: rgb(42, 63, 95); fill-opacity: 1; white-space: pre; opacity: 1;" transform="translate(0,304.7633333333334)">0</text></g><g class="y2tick"><text text-anchor="end" x="43.5" y="3.5" style="font-family: 'Open Sans', verdana, arial, sans-serif; font-size: 10px; fill: rgb(42, 63, 95); fill-opacity: 1; white-space: pre; opacity: 1;" transform="translate(0,270.65333333333336)">0.5</text></g><g class="y2tick"><text text-anchor="end" x="43.5" y="3.5" style="font-family: 'Open Sans', verdana, arial, sans-serif; font-size: 10px; fill: rgb(42, 63, 95); fill-opacity: 1; white-space: pre; opacity: 1;" transform="translate(0,236.55333333333337)">1</text></g></g><g class="overaxes-above"/></g><g class="subplot x3y3"><g class="layer-subplot"><g class="shapelayer"/><g class="imagelayer"/></g><g class="minor-gridlayer"><g class="x3"/><g class="y3"/></g><g class="gridlayer"><g class="x3"><path class="x3grid crisp" transform="translate(80.53999999999999,0)" d="M0,436.0666666666667v154.93333333333334" style="stroke: rgb(235, 240, 248); stroke-opacity: 1; stroke-width: 1px;"/><path class="x3grid crisp" transform="translate(152.75,0)" d="M0,436.0666666666667v154.93333333333334" style="stroke: rgb(235, 240, 248); stroke-opacity: 1; stroke-width: 1px;"/><path class="x3grid crisp" transform="translate(224.77,0)" d="M0,436.0666666666667v154.93333333333334" style="stroke: rgb(235, 240, 248); stroke-opacity: 1; stroke-width: 1px;"/><path class="x3grid crisp" transform="translate(296.78,0)" d="M0,436.0666666666667v154.93333333333334" style="stroke: rgb(235, 240, 248); stroke-opacity: 1; stroke-width: 1px;"/><path class="x3grid crisp" transform="translate(368.8,0)" d="M0,436.0666666666667v154.93333333333334" style="stroke: rgb(235, 240, 248); stroke-opacity: 1; stroke-width: 1px;"/><path class="x3grid crisp" transform="translate(441.01,0)" d="M0,436.0666666666667v154.93333333333334" style="stroke: rgb(235, 240, 248); stroke-opacity: 1; stroke-width: 1px;"/><path class="x3grid crisp" transform="translate(513.02,0)" d="M0,436.0666666666667v154.93333333333334" style="stroke: rgb(235, 240, 248); stroke-opacity: 1; stroke-width: 1px;"/><path class="x3grid crisp" transform="translate(585.04,0)" d="M0,436.0666666666667v154.93333333333334" style="stroke: rgb(235, 240, 248); stroke-opacity: 1; stroke-width: 1px;"/><path class="x3grid crisp" transform="translate(657.05,0)" d="M0,436.0666666666667v154.93333333333334" style="stroke: rgb(235, 240, 248); stroke-opacity: 1; stroke-width: 1px;"/></g><g class="y3"><path class="y3grid crisp" transform="translate(0,558.1566666666668)" d="M47,0h643" style="stroke: rgb(235, 240, 248); stroke-opacity: 1; stroke-width: 1px;"/><path class="y3grid crisp" transform="translate(0,476.4766666666667)" d="M47,0h643" style="stroke: rgb(235, 240, 248); stroke-opacity: 1; stroke-width: 1px;"/></g></g><g class="zerolinelayer"><path class="y3zl zl crisp" transform="translate(0,517.3166666666667)" d="M47,0h643" style="stroke: rgb(235, 240, 248); stroke-opacity: 1; stroke-width: 2px;"/></g><path class="xlines-below"/><path class="ylines-below"/><g class="overlines-below"/><g class="xaxislayer-below"/><g class="yaxislayer-below"/><g class="overaxes-below"/><g class="plot" transform="translate(47,436.0666666666667)" clip-path="url(#clipc0d751x3y3plot)"><g class="scatterlayer mlayer"><g class="trace scatter tracea75d3a" style="stroke-miterlimit: 2; opacity: 1;"><g class="fills"/><g class="errorbars"/><g class="lines"><path class="js-line" d="M29.2,7.79L30.19,147.17L30.38,72.02L30.58,7.81L30.98,94.5L31.17,95.66L31.37,94.88L31.57,147.15L31.96,7.81L32.36,94.52L32.55,95.66L32.75,94.83L32.95,147.17L33.34,7.77L33.74,94.51L33.94,95.67L34.13,94.83L34.33,147.16L34.72,7.79L35.12,94.49L35.32,95.65L35.51,94.83L35.71,147.15L36.11,7.78L36.5,94.51L36.7,95.67L36.9,94.88L37.09,147.15L37.49,7.81L37.88,94.49L38.08,95.66L38.28,94.84L38.47,147.14L38.87,7.78L39.26,94.51L39.46,95.67L39.66,94.84L39.85,147.19L40.25,7.8L40.64,94.5L40.84,95.65L41.04,94.83L41.24,147.17L41.63,7.78L42.02,94.51L42.22,95.66L42.42,94.89L42.62,147.15L43.01,7.81L43.41,94.52L43.6,95.66L43.8,94.84L44,147.14L44.39,7.78L44.79,94.51L44.98,95.66L45.18,94.84L45.38,147.16L45.77,7.8L46.17,94.5L46.37,95.64L46.56,94.84L46.76,147.15L47.15,7.78L47.55,94.51L47.75,95.66L47.94,94.85L48.14,147.16L48.54,7.81L48.93,94.5L49.13,95.67L49.32,94.84L49.52,147.18L49.92,7.78L50.31,94.48L50.51,95.65L50.71,94.84L50.9,147.16L51.3,7.76L51.69,94.52L51.89,95.67L52.09,94.84L52.28,147.15L52.68,7.83L53.07,94.51L53.27,95.66L53.47,94.85L53.67,147.16L54.06,7.81L54.45,94.5L54.65,95.67L54.85,94.85L55.05,147.18L55.44,7.78L55.84,94.5L56.03,95.66L56.23,94.84L56.43,147.16L56.82,7.8L57.22,94.5L57.41,95.67L57.61,94.85L57.81,147.15L58.2,7.79L58.6,94.51L58.8,95.66L58.99,94.84L59.19,147.16L59.58,7.77L59.98,94.5L60.18,95.66L60.37,94.85L60.57,147.15L60.97,7.78L61.36,94.51L61.56,95.66L61.75,94.85L61.95,147.14L62.35,7.8L62.74,94.5L62.94,95.68L63.14,94.86L63.33,147.18L63.73,7.79L64.12,94.49L64.32,95.65L64.52,94.85L64.71,147.16L65.11,7.78L65.5,94.53L65.7,95.65L65.9,94.85L66.1,147.15L66.49,7.78L66.88,94.51L67.08,95.66L67.28,94.86L67.48,147.17L67.87,7.8L68.27,94.51L68.46,95.68L68.66,94.85L68.86,147.15L69.25,7.8L69.65,94.52L69.84,95.66L70.04,94.86L70.24,147.17L70.63,7.82L71.03,94.5L71.23,95.66L71.42,94.86L71.62,147.15L72.01,7.78L72.41,94.49L72.61,95.67L72.8,94.85L73,147.17L73.4,7.78L73.79,94.51L73.99,95.67L74.18,94.8L74.38,147.15L74.78,7.76L75.17,94.52L75.37,95.65L75.57,94.86L75.76,147.15L76.16,7.82L76.55,94.5L76.75,95.66L76.95,94.87L77.14,147.18L77.54,7.78L77.93,94.49L78.13,95.67L78.33,94.86L78.53,147.17L78.92,7.78L79.31,94.51L79.51,95.67L79.71,94.81L79.91,147.16L80.3,7.8L80.7,94.52L80.89,95.65L81.09,94.87L81.29,147.18L81.68,7.78L82.08,94.5L82.27,95.66L82.47,94.86L82.67,147.16L83.06,7.79L83.46,94.51L83.66,95.67L83.85,94.87L84.05,147.14L84.44,7.82L84.84,94.51L85.04,95.67L85.23,94.82L85.43,147.16L85.83,7.8L86.22,94.5L86.42,95.66L86.61,94.86L86.81,147.18L87.21,7.78L87.6,94.53L87.8,95.65L88,94.87L88.19,147.16L88.59,7.75L88.98,94.52L89.18,95.67L89.38,94.87L89.57,147.14L89.97,7.82L90.36,94.51L90.56,95.67L90.76,94.82L90.96,147.16L91.35,7.8L91.74,94.49L91.94,95.65L92.14,94.87L92.34,147.18L92.73,7.78L93.13,94.51L93.32,95.67L93.52,94.87L93.72,147.16L94.11,7.81L94.51,94.49L94.7,95.67L94.9,94.82L95.1,147.17L95.49,7.78L95.89,94.51L96.08,95.67L96.28,94.82L96.48,147.17L96.87,7.76L97.27,94.52L97.47,95.65L97.66,94.88L97.86,147.15L98.26,7.82L98.65,94.51L98.85,95.67L99.04,94.88L99.24,147.13L99.64,7.82L100.03,94.5L100.23,95.67L100.43,94.82L100.62,147.17L101.02,7.78L101.41,94.52L101.61,95.66L101.81,94.82L102,147.17L102.4,7.76L102.79,94.52L102.99,95.65L103.19,94.88L103.39,147.15L103.78,7.78L104.17,94.51L104.37,95.67L104.57,94.89L104.77,147.16L105.16,7.82L105.56,94.5L105.75,95.66L105.95,94.83L106.15,147.15L106.54,7.78L106.94,94.52L107.13,95.67L107.33,94.83L107.53,147.17L107.92,7.8L108.32,94.5L108.51,95.65L108.71,94.88L108.91,147.18L109.3,7.78L109.7,94.49L109.9,95.67L110.09,94.88L110.29,147.16L110.69,7.78L111.08,94.52L111.28,95.66L111.47,94.83L111.67,147.15L112.07,7.82L112.46,94.52L112.66,95.66L112.86,94.84L113.05,147.14L113.45,7.81L113.84,94.5L114.04,95.67L114.24,94.89L114.43,147.18L114.83,7.8L115.22,94.51L115.42,95.66L115.62,94.83L115.81,147.16L116.21,7.78L116.6,94.5L116.8,95.66L117,94.84L117.2,147.16L117.59,7.79L117.99,94.51L118.18,95.66L118.38,94.84L118.58,147.17L118.97,7.77L119.37,94.5L119.56,95.66L119.76,94.89L119.96,147.16L120.35,7.8L120.75,94.52L120.94,95.66L121.14,94.84L121.34,147.14L121.73,7.82L122.13,94.5L122.33,95.67L122.52,94.85L122.72,147.18L123.12,7.79L123.51,94.48L123.71,95.65L123.9,94.84L124.1,147.17L124.5,7.77L124.89,94.53L125.09,95.66L125.29,94.89L125.48,147.16L125.88,7.8L126.27,94.52L126.47,95.66L126.67,94.85L126.86,147.14L127.26,7.82L127.65,94.51L127.85,95.66L128.05,94.84L128.24,147.16L128.64,7.79L129.03,94.51L129.23,95.66L129.43,94.85L129.63,147.17L130.02,7.77L130.42,94.51L130.61,95.66L130.81,94.9L131.01,147.16L131.4,7.8L131.8,94.49L131.99,95.66L132.19,94.85L132.39,147.16L132.78,7.78L133.18,94.51L133.37,95.65L133.57,94.85L133.77,147.16L134.16,7.75L134.56,94.51L134.76,95.67L134.95,94.85L135.15,147.15L135.54,7.82L135.94,94.51L136.14,95.66L136.33,94.8L136.53,147.18L136.93,7.8L137.32,94.5L137.52,95.66L137.72,94.84L137.91,147.17L138.31,7.78L138.7,94.5L138.9,95.65L139.1,94.85L139.29,147.16L139.69,7.79L140.08,94.51L140.28,95.67L140.48,94.85L140.67,147.15L141.07,7.79L141.46,94.51L141.66,95.66L141.86,94.8L142.06,147.16L142.45,7.81L142.85,94.52L143.04,95.66L143.24,94.86L143.44,147.15L143.83,7.79L144.23,94.5L144.42,95.66L144.62,94.86L144.82,147.16L145.21,7.79L145.61,94.49L145.8,95.68L146,94.86L146.2,147.17L146.59,7.79L146.99,94.49L147.19,95.65L147.38,94.8L147.58,147.16L147.97,7.77L148.37,94.53L148.57,95.65L148.76,94.86L148.96,147.15L149.36,7.83L149.75,94.5L149.95,95.66L150.15,94.86L150.34,147.16L150.74,7.79L151.13,94.49L151.33,95.67L151.53,94.86L151.72,147.17L152.12,7.79L152.51,94.51L152.71,95.66L152.91,94.8L153.1,147.16L153.5,7.81L153.89,94.5L154.09,95.65L154.29,94.86L154.49,147.15L154.88,7.79L155.27,94.51L155.47,95.66L155.67,94.86L155.87,147.16L156.26,7.76L156.66,94.52L156.85,95.67L157.05,94.81L157.25,147.15L157.64,7.79L158.04,94.52L158.23,95.65L158.43,94.82L158.63,147.15L159.02,7.81L159.42,94.5L159.62,95.66L159.81,94.88L160.01,147.17L160.4,7.79L160.8,94.48L161,95.66L161.19,94.86L161.39,147.16L161.79,7.77L162.18,94.52L162.38,95.67L162.58,94.81L162.77,147.15L163.17,7.79L163.56,94.52L163.76,95.65L163.96,94.82L164.15,147.17L164.55,7.81L164.94,94.5L165.14,95.65L165.34,94.87L165.53,147.15L165.93,7.79L166.32,94.51L166.52,95.67L166.72,94.88L166.92,147.16L167.31,7.81L167.7,94.5L167.9,95.67L168.1,94.82L168.3,147.15L168.69,7.79L169.09,94.5L169.28,95.65L169.48,94.81L169.68,147.17L170.07,7.77L170.47,94.52L170.66,95.65L170.86,94.87L171.06,147.15L171.45,7.75L171.85,94.51L172.05,95.67L172.24,94.88L172.44,147.14L172.83,7.81L173.23,94.5L173.43,95.67L173.62,94.82L173.82,147.18L174.22,7.79L174.61,94.5L174.81,95.65L175,94.82L175.2,147.17L175.6,7.77L175.99,94.5L176.19,95.64L176.39,94.88L176.58,147.15L176.98,7.79L177.37,94.51L177.57,95.67L177.77,94.88L177.96,147.16L178.36,7.77L178.75,94.5L178.95,95.66L179.15,94.82L179.35,147.16L179.74,7.79L180.13,94.52L180.33,95.65L180.53,94.83L180.73,147.15L181.12,7.81L181.52,94.5L181.71,95.67L181.91,94.89L182.11,147.15L182.5,7.81L182.9,94.49L183.09,95.67L183.29,94.82L183.49,147.17L183.88,7.77L184.28,94.53L184.48,95.66L184.67,94.83L184.87,147.16L185.26,7.75L185.66,94.52L185.86,95.65L186.05,94.83L186.25,147.15L186.65,7.81L187.04,94.51L187.24,95.67L187.43,94.88L187.63,147.15L188.03,7.81L188.42,94.49L188.62,95.66L188.82,94.83L189.01,147.17L189.41,7.78L189.8,94.51L190,95.67L190.2,94.83L190.39,147.16L190.79,7.8L191.18,94.49L191.38,95.64L191.58,94.84L191.78,147.17L192.17,7.78L192.56,94.51L192.76,95.66L192.96,94.89L193.16,147.15L193.55,7.77L193.95,94.52L194.14,95.66L194.34,94.84L194.54,147.14L194.93,7.82L195.33,94.51L195.52,95.66L195.72,94.84L195.92,147.14L196.31,7.8L196.71,94.5L196.91,95.65L197.1,94.83L197.3,147.18L197.69,7.78L198.09,94.51L198.29,95.65L198.48,94.89L198.68,147.15L199.08,7.77L199.47,94.52L199.67,95.66L199.86,94.84L200.06,147.14L200.46,7.78L200.85,94.5L201.05,95.66L201.25,94.84L201.44,147.16L201.84,7.8L202.23,94.5L202.43,95.68L202.63,94.84L202.82,147.15L203.22,7.79L203.61,94.51L203.81,95.66L204.01,94.85L204.21,147.16L204.6,7.81L204.99,94.5L205.19,95.67L205.39,94.85L205.59,147.18L205.98,7.78L206.38,94.48L206.57,95.65L206.77,94.84L206.97,147.16L207.36,7.76L207.76,94.53L207.95,95.67L208.15,94.85L208.35,147.15L208.74,7.83L209.14,94.51L209.34,95.66L209.53,94.85L209.73,147.16L210.12,7.81L210.52,94.5L210.72,95.66L210.91,94.85L211.11,147.18L211.51,7.78L211.9,94.51L212.1,95.66L212.29,94.85L212.49,147.16L212.89,7.76L213.28,94.5L213.48,95.67L213.68,94.85L213.87,147.15L214.27,7.79L214.66,94.52L214.86,95.66L215.06,94.85L215.25,147.16L215.65,7.77L216.04,94.5L216.24,95.65L216.44,94.85L216.64,147.15L217.03,7.78L217.42,94.51L217.62,95.66L217.82,94.86L218.02,147.14L218.41,7.8L218.81,94.5L219,95.68L219.2,94.86L219.4,147.18L219.79,7.8L220.19,94.49L220.38,95.65L220.58,94.85L220.78,147.16L221.17,7.78L221.57,94.53L221.76,95.65L221.96,94.86L222.16,147.15L222.55,7.78L222.95,94.51L223.15,95.67L223.34,94.86L223.54,147.17L223.94,7.82L224.33,94.51L224.53,95.68L224.72,94.8L224.92,147.15L225.32,7.8L225.71,94.52L225.91,95.65L226.11,94.86L226.3,147.18L226.7,7.78L227.09,94.5L227.29,95.66L227.49,94.86L227.68,147.15L228.08,7.78L228.47,94.49L228.67,95.67L228.87,94.86L229.07,147.17L229.46,7.78L229.85,94.51L230.05,95.67L230.25,94.81L230.45,147.16L230.84,7.76L231.24,94.52L231.43,95.65L231.63,94.87L231.83,147.15L232.22,7.82L232.62,94.5L232.81,95.66L233.01,94.87L233.21,147.18L233.6,7.79L234,94.49L234.19,95.67L234.39,94.86L234.59,147.17L234.98,7.78L235.38,94.51L235.58,95.66L235.77,94.81L235.97,147.16L236.37,7.8L236.76,94.52L236.96,95.65L237.15,94.87L237.35,147.18L237.75,7.78L238.14,94.5L238.34,95.66L238.54,94.87L238.73,147.16L239.13,7.79L239.52,94.52L239.72,95.67L239.92,94.87L240.11,147.14L240.51,7.78L240.9,94.51L241.1,95.67L241.3,94.82L241.49,147.16L241.89,7.8L242.28,94.5L242.48,95.66L242.68,94.86L242.88,147.18L243.27,7.78L243.67,94.48L243.86,95.66L244.06,94.87L244.26,147.16L244.65,7.77L245.05,94.52L245.24,95.67L245.44,94.82L245.64,147.14L246.03,7.82L246.43,94.51L246.62,95.67L246.82,94.83L247.02,147.17L247.41,7.8L247.81,94.49L248.01,95.65L248.2,94.88L248.4,147.18L248.8,7.78L249.19,94.51L249.39,95.67L249.58,94.87L249.78,147.16L250.18,7.82L250.57,94.5L250.77,95.66L250.97,94.82L251.16,147.17L251.56,7.78L251.95,94.52L252.15,95.67L252.35,94.82L252.54,147.17L252.94,7.76L253.33,94.52L253.53,95.65L253.73,94.88L253.92,147.15L254.32,7.78L254.71,94.51L254.91,95.67L255.11,94.89L255.31,147.13L255.7,7.82L256.1,94.5L256.29,95.67L256.49,94.82L256.69,147.17L257.08,7.78L257.48,94.49L257.67,95.66L257.87,94.82L258.07,147.17L258.46,7.76L258.86,94.52L259.05,95.64L259.25,94.88L259.45,147.15L259.84,7.78L260.24,94.51L260.44,95.67L260.63,94.89L260.83,147.16L261.22,7.82L261.62,94.5L261.82,95.66L262.01,94.83L262.21,147.15L262.61,7.78L263,94.52L263.2,95.66L263.4,94.84L263.59,147.17L263.99,7.81L264.38,94.5L264.58,95.65L264.78,94.89L264.97,147.18L265.37,7.79L265.76,94.49L265.96,95.66L266.16,94.83L266.35,147.16L266.75,7.78L267.14,94.53L267.34,95.66L267.54,94.83L267.74,147.16L268.13,7.75L268.53,94.51L268.72,95.66L268.92,94.84L269.12,147.14L269.51,7.81L269.91,94.5L270.1,95.67L270.3,94.89L270.5,147.18L270.89,7.8L271.29,94.49L271.48,95.66L271.68,94.83L271.88,147.16L272.27,7.78L272.67,94.5L272.87,95.66L273.06,94.84L273.26,147.16L273.65,7.79L274.05,94.51L274.25,95.66L274.44,94.84L274.64,147.17L275.04,7.77L275.43,94.5L275.63,95.66L275.83,94.89L276.02,147.16L276.42,7.8L276.81,94.52L277.01,95.66L277.21,94.85L277.4,147.14L277.8,7.82L278.19,94.51L278.39,95.66L278.59,94.85L278.78,147.18L279.18,7.79L279.57,94.48L279.77,95.67L279.97,94.84L280.17,147.17L280.56,7.77L280.95,94.53L281.15,95.65L281.35,94.9L281.55,147.16L281.94,7.8L282.34,94.52L282.53,95.66L282.73,94.85L282.93,147.14L283.32,7.82L283.72,94.51L283.91,95.66L284.11,94.85L284.31,147.16L284.7,7.79L285.1,94.49L285.3,95.66L285.49,94.85L285.69,147.17L286.08,7.77L286.48,94.51L286.68,95.66L286.87,94.9L287.07,147.16L287.47,7.8L287.86,94.5L288.06,95.66L288.25,94.85L288.45,147.17L288.85,7.78L289.24,94.5L289.44,95.65L289.64,94.85L289.83,147.16L290.23,7.75L290.62,94.51L290.82,95.67L291.02,94.85L291.21,147.15L291.61,7.82L292,94.51L292.2,95.66L292.4,94.81L292.6,147.18L292.99,7.8L293.38,94.5L293.58,95.66L293.78,94.85L293.98,147.17L294.37,7.79L294.77,94.5L294.96,95.65L295.16,94.85L295.36,147.16L295.75,7.79L296.15,94.52L296.34,95.67L296.54,94.86L296.74,147.15L297.13,7.79L297.53,94.51L297.73,95.66L297.92,94.8L298.12,147.16L298.51,7.81L298.91,94.5L299.11,95.65L299.3,94.86L299.5,147.15L299.9,7.79L300.29,94.5L300.49,95.66L300.68,94.86L300.88,147.16L301.28,7.79L301.67,94.49L301.87,95.68L302.07,94.86L302.26,147.17L302.66,7.79L303.05,94.49L303.25,95.65L303.45,94.8L303.64,147.16L304.04,7.77L304.43,94.53L304.63,95.65L304.83,94.86L305.03,147.15L305.42,7.83L305.81,94.51L306.01,95.66L306.21,94.87L306.41,147.16L306.8,7.79L307.2,94.49L307.39,95.68L307.59,94.86L307.79,147.17L308.18,7.79L308.58,94.52L308.77,95.65L308.97,94.81L309.17,147.16L309.56,7.81L309.96,94.5L310.16,95.65L310.35,94.87L310.55,147.15L310.94,7.79L311.34,94.51L311.54,95.67L311.73,94.86L311.93,147.16L312.33,7.77L312.72,94.5L312.92,95.67L313.11,94.81L313.31,147.15L313.71,7.79L314.1,94.52L314.3,95.65L314.5,94.82L314.69,147.15L315.09,7.81L315.48,94.5L315.68,95.66L315.88,94.88L316.07,147.17L316.47,7.79L316.86,94.49L317.06,95.66L317.26,94.87L317.46,147.16L317.85,7.77L318.24,94.52L318.44,95.66L318.64,94.82L318.84,147.15L319.23,7.79L319.63,94.52L319.82,95.65L320.02,94.82L320.22,147.17L320.61,7.81L321.01,94.5L321.2,95.66L321.4,94.87L321.6,147.15L321.99,7.79L322.39,94.51L322.59,95.67L322.78,94.88L322.98,147.16L323.37,7.81L323.77,94.5L323.97,95.67L324.16,94.82L324.36,147.15L324.76,7.79L325.15,94.5L325.35,95.65L325.54,94.82L325.74,147.17L326.14,7.77L326.53,94.5L326.73,95.64L326.93,94.88L327.12,147.15L327.52,7.75L327.91,94.51L328.11,95.67L328.31,94.88L328.5,147.14L328.9,7.81L329.29,94.5L329.49,95.67L329.69,94.83L329.89,147.18L330.28,7.79L330.67,94.5L330.87,95.65L331.07,94.82L331.27,147.17L331.66,7.77L332.06,94.5L332.25,95.66L332.45,94.88L332.65,147.15L333.04,7.81L333.44,94.52L333.63,95.66L333.83,94.83L334.03,147.17L334.42,7.77L334.82,94.5L335.02,95.67L335.21,94.83L335.41,147.16L335.8,7.79L336.2,94.52L336.4,95.65L336.59,94.83L336.79,147.15L337.19,7.81L337.58,94.51L337.78,95.67L337.97,94.89L338.17,147.15L338.57,7.81L338.96,94.49L339.16,95.67L339.36,94.83L339.55,147.17L339.95,7.78L340.34,94.48L340.54,95.66L340.74,94.83L340.93,147.16L341.33,7.76L341.72,94.52L341.92,95.64L342.12,94.84L342.32,147.15L342.71,7.82L343.1,94.51L343.3,95.67L343.5,94.9L343.7,147.15L344.09,7.81L344.49,94.5L344.68,95.66L344.88,94.84L345.08,147.17L345.47,7.78L345.87,94.51L346.06,95.66L346.26,94.83L346.46,147.16L346.85,7.8L347.25,94.5L347.44,95.64L347.64,94.84L347.84,147.18L348.23,7.78L348.63,94.51L348.83,95.66L349.02,94.89L349.22,147.15L349.62,7.77L350.01,94.52L350.21,95.66L350.4,94.84L350.6,147.14L351,7.82L351.39,94.51L351.59,95.66L351.79,94.85L351.98,147.14L352.38,7.8L352.77,94.5L352.97,95.65L353.17,94.83L353.36,147.18L353.76,7.79L354.15,94.51L354.35,95.65L354.55,94.84L354.75,147.16L355.14,7.77L355.53,94.52L355.73,95.66L355.93,94.84L356.13,147.15L356.52,7.78L356.92,94.5L357.11,95.66L357.31,94.85L357.51,147.16L357.9,7.8L358.3,94.5L358.49,95.67L358.69,94.85L358.89,147.15L359.28,7.79L359.68,94.51L359.87,95.66L360.07,94.85L360.27,147.16L360.66,7.81L361.06,94.5L361.26,95.66L361.45,94.85L361.65,147.18L362.05,7.78L362.44,94.48L362.64,95.66L362.83,94.84L363.03,147.16L363.43,7.76L363.82,94.53L364.02,95.67L364.22,94.85L364.41,147.15L364.81,7.83L365.2,94.52L365.4,95.66L365.6,94.86L365.79,147.13L366.19,7.81L366.58,94.5L366.78,95.66L366.98,94.85L367.17,147.18L367.57,7.78L367.96,94.51L368.16,95.66L368.36,94.85L368.56,147.17L368.95,7.76L369.35,94.5L369.54,95.67L369.74,94.85L369.94,147.15L370.33,7.8L370.73,94.52L370.92,95.66L371.12,94.86L371.32,147.16L371.71,7.78L372.11,94.51L372.3,95.65L372.5,94.86L372.7,147.15L373.09,7.78L373.49,94.51L373.69,95.66L373.88,94.86L374.08,147.14L374.47,7.8L374.87,94.51L375.07,95.68L375.26,94.81L375.46,147.18L375.86,7.8L376.25,94.49L376.45,95.66L376.65,94.85L376.84,147.17L377.24,7.78L377.63,94.52L377.83,95.65L378.03,94.86L378.22,147.15L378.62,7.78L379.01,94.51L379.21,95.67L379.41,94.86L379.6,147.14L380,7.82L380.39,94.51L380.59,95.68L380.79,94.81L380.99,147.16L381.38,7.8L381.78,94.52L381.97,95.65L382.17,94.87L382.37,147.18L382.76,7.78L383.16,94.5L383.35,95.66L383.55,94.86L383.75,147.16L384.14,7.79L384.54,94.49L384.73,95.67L384.93,94.87L385.13,147.17L385.52,7.78L385.92,94.51L386.12,95.67L386.31,94.81L386.51,147.16L386.9,7.76L387.3,94.52L387.5,95.65L387.69,94.87L387.89,147.15L388.29,7.82L388.68,94.5L388.88,95.66L389.08,94.87L389.27,147.18L389.67,7.79L390.06,94.49L390.26,95.67L390.46,94.86L390.65,147.17L391.05,7.78L391.44,94.51L391.64,95.66L391.84,94.81L392.03,147.16L392.43,7.8L392.82,94.53L393.02,95.65L393.22,94.87L393.42,147.15L393.81,7.78L394.2,94.5L394.4,95.65L394.6,94.87L394.8,147.16L395.19,7.79L395.59,94.52L395.78,95.67L395.98,94.87L396.18,147.14L396.57,7.78L396.97,94.51L397.16,95.67L397.36,94.83L397.56,147.17L397.95,7.8L398.35,94.49L398.55,95.66L398.74,94.88L398.94,147.18L399.33,7.78L399.73,94.48L399.93,95.66L400.12,94.87L400.32,147.16L400.72,7.78L401.11,94.52L401.31,95.66L401.51,94.82L401.7,147.15L402.1,7.82L402.49,94.52L402.69,95.67L402.89,94.83L403.08,147.17L403.48,7.8L403.87,94.5L404.07,95.65L404.27,94.88L404.46,147.18L404.86,7.78L405.25,94.51L405.45,95.67L405.65,94.88L405.85,147.16L406.24,7.82L406.63,94.5L406.83,95.66L407.03,94.83L407.23,147.15L407.62,7.78L408.02,94.52L408.21,95.67L408.41,94.82L408.61,147.17L409,7.76L409.4,94.52L409.59,95.64L409.79,94.88L409.99,147.15L410.38,7.78L410.78,94.51L410.98,95.67L411.17,94.89L411.37,147.13L411.76,7.82L412.16,94.5L412.36,95.67L412.55,94.84L412.75,147.17L413.15,7.78L413.54,94.5L413.74,95.66L413.93,94.83L414.13,147.17L414.53,7.77L414.92,94.52L415.12,95.64L415.32,94.89L415.51,147.16L415.91,7.79L416.3,94.51L416.5,95.66L416.7,94.89L416.89,147.16L417.29,7.82L417.68,94.5L417.88,95.66L418.08,94.83L418.28,147.15L418.67,7.79L419.06,94.51L419.26,95.66L419.46,94.84L419.66,147.17L420.05,7.81L420.45,94.5L420.64,95.67L420.84,94.89L421.04,147.16L421.43,7.8L421.83,94.49L422.02,95.66L422.22,94.83L422.42,147.16L422.81,7.78L423.21,94.53L423.41,95.66L423.6,94.84L423.8,147.16L424.19,7.75L424.59,94.51L424.79,95.66L424.98,94.84L425.18,147.14L425.58,7.81L425.97,94.5L426.17,95.67L426.36,94.89L426.56,147.18L426.96,7.8L427.35,94.49L427.55,95.66L427.75,94.84L427.94,147.16L428.34,7.78L428.73,94.5L428.93,95.66L429.13,94.84L429.32,147.16L429.72,7.79L430.11,94.51L430.31,95.66L430.51,94.85L430.71,147.17L431.1,7.77L431.49,94.51L431.69,95.66L431.89,94.9L432.09,147.16L432.48,7.8L432.88,94.52L433.07,95.66L433.27,94.85L433.47,147.14L433.86,7.82L434.26,94.51L434.45,95.66L434.65,94.85L434.85,147.16L435.24,7.79L435.64,94.49L435.84,95.67L436.03,94.84L436.23,147.17L436.62,7.77L437.02,94.53L437.22,95.65L437.41,94.9L437.61,147.16L438.01,7.76L438.4,94.52L438.6,95.66L438.79,94.85L438.99,147.14L439.39,7.82L439.78,94.51L439.98,95.66L440.18,94.85L440.37,147.16L440.77,7.79L441.16,94.49L441.36,95.67L441.56,94.85L441.75,147.17L442.15,7.78L442.54,94.51L442.74,95.66L442.94,94.8L443.14,147.16L443.53,7.8L443.92,94.5L444.12,95.66L444.32,94.85L444.52,147.17L444.91,7.79L445.31,94.5L445.5,95.65L445.7,94.85L445.9,147.16L446.29,7.75L446.69,94.52L446.88,95.67L447.08,94.86L447.28,147.15L447.67,7.83L448.07,94.51L448.27,95.66L448.46,94.81L448.66,147.14L449.05,7.81L449.45,94.5L449.65,95.66L449.84,94.85L450.04,147.17L450.44,7.79L450.83,94.5L451.03,95.65L451.22,94.85L451.42,147.16L451.82,7.75L452.21,94.52L452.41,95.67L452.61,94.86L452.8,147.15L453.2,7.79L453.59,94.51L453.79,95.66L453.99,94.8L454.18,147.16L454.58,7.81L454.97,94.5L455.17,95.65L455.37,94.86L455.57,147.15L455.96,7.79L456.35,94.51L456.55,95.66L456.75,94.87L456.95,147.16L457.34,7.79L457.74,94.49L457.93,95.68L458.13,94.86L458.33,147.17L458.72,7.79L459.12,94.49L459.31,95.65L459.51,94.81L459.71,147.16L460.1,7.77L460.5,94.53L460.69,95.65L460.89,94.87L461.09,147.15L461.48,7.83L461.88,94.51L462.08,95.65L462.27,94.87L462.47,147.16L462.87,7.81L463.26,94.5L463.46,95.68L463.65,94.81L463.85,147.17L464.25,7.79L464.64,94.52L464.84,95.65L465.04,94.81L465.23,147.17L465.63,7.77L466.02,94.5L466.22,95.65L466.42,94.87L466.61,147.15L467.01,7.79L467.4,94.51L467.6,95.67L467.8,94.87L468,147.16L468.39,7.77L468.78,94.5L468.98,95.66L469.18,94.82L469.38,147.15L469.77,7.79L470.17,94.52L470.36,95.65L470.56,94.82L470.76,147.15L471.15,7.81L471.55,94.5L471.74,95.66L471.94,94.88L472.14,147.18L472.53,7.79L472.93,94.49L473.12,95.66L473.32,94.87L473.52,147.16L473.91,7.77L474.31,94.52L474.51,95.66L474.7,94.82L474.9,147.15L475.3,7.79L475.69,94.52L475.89,95.65L476.08,94.83L476.28,147.17L476.68,7.81L477.07,94.5L477.27,95.65L477.47,94.88L477.66,147.15L478.06,7.79L478.45,94.51L478.65,95.67L478.85,94.88L479.04,147.16L479.44,7.77L479.83,94.5L480.03,95.67L480.23,94.82L480.42,147.15L480.82,7.79L481.21,94.5L481.41,95.65L481.61,94.82L481.81,147.17L482.2,7.77L482.6,94.5L482.79,95.64L482.99,94.88L483.19,147.15L483.58,7.75L483.98,94.52L484.17,95.66L484.37,94.83L484.57,147.14L484.96,7.81L485.36,94.5L485.55,95.67L485.75,94.84L485.95,147.19L486.34,7.79L486.74,94.49L486.94,95.65L487.13,94.82L487.33,147.17L487.73,7.77L488.12,94.51L488.32,95.66L488.51,94.88L488.71,147.15L489.11,7.81L489.5,94.52L489.7,95.66L489.9,94.83L490.09,147.17L490.49,7.78L490.88,94.51L491.08,95.67L491.28,94.83L491.47,147.16L491.87,7.8L492.26,94.52L492.46,95.64L492.66,94.84L492.85,147.15L493.25,7.78L493.64,94.51L493.84,95.67L494.04,94.89L494.24,147.15L494.63,7.81L495.03,94.5L495.22,95.67L495.42,94.83L495.62,147.17L496.01,7.78L496.41,94.48L496.6,95.66L496.8,94.83L497,147.16L497.39,7.76L497.79,94.52L497.98,95.64L498.18,94.84L498.38,147.15L498.77,7.82L499.17,94.51L499.37,95.66L499.56,94.9L499.76,147.15L500.15,7.81L500.55,94.5L500.75,95.66L500.94,94.84L501.14,147.17L501.54,7.78L501.93,94.51L502.13,95.66L502.33,94.84L502.52,147.16L502.92,7.8L503.31,94.5L503.51,95.64L503.71,94.84L503.9,147.18L504.3,7.78L504.69,94.51L504.89,95.66L505.09,94.89L505.28,147.16L505.68,7.77L506.07,94.52L506.27,95.66L506.47,94.84L506.67,147.15L507.06,7.78L507.46,94.5L507.65,95.66L507.85,94.85L508.05,147.14L508.44,7.8L508.84,94.5L509.03,95.68L509.23,94.84L509.43,147.18L509.82,7.79L510.22,94.49L510.41,95.65L510.61,94.84L510.81,147.16L511.2,7.77L511.6,94.53L511.8,95.66L511.99,94.85L512.19,147.15L512.58,7.78L512.98,94.51L513.18,95.66L513.37,94.85L513.57,147.16L513.97,7.8L514.36,94.5L514.56,95.67L514.76,94.85L514.95,147.15L515.35,7.79L515.74,94.51L515.94,95.66L516.14,94.85L516.33,147.16L516.73,7.81L517.12,94.5L517.32,95.66L517.52,94.85L517.71,147.18L518.11,7.78L518.5,94.48L518.7,95.66L518.9,94.85L519.1,147.17L519.49,7.76L519.88,94.53L520.08,95.67L520.28,94.85L520.48,147.15L520.87,7.76L521.27,94.52L521.46,95.66L521.66,94.86L521.86,147.13L522.25,7.82L522.65,94.51L522.84,95.66L523.04,94.85L523.24,147.18L523.63,7.78L524.03,94.48L524.23,95.66L524.42,94.85L524.62,147.17L525.01,7.76L525.41,94.51L525.61,95.67L525.8,94.86L526,147.15L526.4,7.8L526.79,94.52L526.99,95.66L527.19,94.86L527.38,147.16L527.78,7.78L528.17,94.5L528.37,95.65L528.57,94.86L528.76,147.15L529.16,7.78L529.55,94.51L529.75,95.67L529.95,94.86L530.14,147.14L530.54,7.82L530.93,94.51L531.13,95.68L531.33,94.81L531.53,147.18L531.92,7.8L532.31,94.5L532.51,95.66L532.71,94.86L532.91,147.18L533.3,7.78L533.7,94.53L533.89,95.65L534.09,94.86L534.29,147.16L534.68,7.78L535.08,94.51L535.27,95.67L535.47,94.87L535.67,147.14L536.06,7.82L536.46,94.51L536.66,95.67L536.85,94.81L537.05,147.16L537.44,7.8L537.84,94.5L538.04,95.65L538.23,94.87L538.43,147.18L538.83,7.78L539.22,94.5L539.42,95.66L539.61,94.87L539.81,147.16L540.21,7.79L540.6,94.49L540.8,95.67L541,94.87L541.19,147.17L541.59,7.78L541.98,94.51L542.18,95.66L542.38,94.81L542.57,147.16L542.97,7.76L543.36,94.52L543.56,95.65L543.76,94.87L543.96,147.15L544.35,7.82L544.74,94.5L544.94,95.65L545.14,94.88L545.34,147.18L545.73,7.79L546.13,94.49L546.32,95.68L546.52,94.87L546.72,147.17L547.11,7.78L547.51,94.51L547.7,95.66L547.9,94.82L548.1,147.16L548.49,7.8L548.89,94.53L549.09,95.65L549.28,94.88L549.48,147.15L549.87,7.78L550.27,94.51L550.47,95.67L550.66,94.87L550.86,147.16L551.26,7.82L551.65,94.49L551.85,95.66L552.04,94.82L552.24,147.15L552.64,7.78L553.03,94.52L553.23,95.67L553.43,94.83L553.62,147.17L554.02,7.8L554.41,94.5L554.61,95.66L554.81,94.88L555,147.18L555.4,7.78L555.79,94.48L555.99,95.66L556.19,94.88L556.39,147.16L556.78,7.78L557.17,94.52L557.37,95.66L557.57,94.83L557.77,147.15L558.16,7.82L558.56,94.52L558.75,95.67L558.95,94.83L559.15,147.17L559.54,7.8L559.94,94.5L560.13,95.65L560.33,94.88L560.53,147.18L560.92,7.78L561.32,94.51L561.52,95.67L561.71,94.88L561.91,147.16L562.3,7.82L562.7,94.5L562.9,95.66L563.09,94.83L563.29,147.15L563.69,7.78L564.08,94.52L564.28,95.67L564.47,94.83L564.67,147.17L565.07,7.77L565.46,94.5L565.66,95.64L565.86,94.89L566.05,147.16L566.45,7.79L566.84,94.51L567.04,95.66L567.24,94.89L567.43,147.14L567.83,7.82L568.22,94.5L568.42,95.67L568.62,94.84L568.82,147.17L569.21,7.79L569.6,94.5L569.8,95.65L570,94.83L570.2,147.17L570.59,7.77L570.99,94.53L571.18,95.64L571.38,94.89L571.58,147.16L571.97,7.8L572.37,94.51L572.56,95.66L572.76,94.84L572.96,147.16L573.35,7.82L573.75,94.5L573.95,95.67L574.14,94.84L574.34,147.16L574.73,7.79L575.13,94.51L575.33,95.66L575.52,94.84L575.72,147.17L576.12,7.81L576.51,94.5L576.71,95.67L576.9,94.89L577.1,147.16L577.5,7.8L577.89,94.49L578.09,95.66L578.29,94.84L578.48,147.16L578.88,7.78L579.27,94.5L579.47,95.66L579.67,94.84L579.86,147.16L580.26,7.75L580.65,94.51L580.85,95.66L581.05,94.85L581.25,147.15L581.64,7.81L582.03,94.51L582.23,95.66L582.43,94.91L582.63,147.18L583.02,7.8L583.42,94.49L583.61,95.66L583.81,94.84L584.01,147.16L584.4,7.78L584.8,94.51L584.99,95.65L585.19,94.84L585.39,147.16L585.78,7.79L586.18,94.51L586.37,95.66L586.57,94.85L586.77,147.17L587.16,7.77L587.56,94.51L587.76,95.66L587.95,94.9L588.15,147.16L588.55,7.8L588.94,94.52L589.14,95.66L589.33,94.85L589.53,147.14L589.93,7.82L590.32,94.51L590.52,95.66L590.72,94.86L590.91,147.16L591.31,7.79L591.7,94.49L591.9,95.67L592.1,94.84L592.29,147.17L592.69,7.77L593.08,94.48L593.28,95.65L593.48,94.8L593.68,147.16L594.07,7.77L594.46,94.52L594.66,95.66L594.86,94.85L595.06,147.15L595.45,7.82L595.85,94.5L596.04,95.66L596.24,94.86L596.44,147.16L596.83,7.79L597.23,94.49L597.42,95.67L597.62,94.86L597.82,147.17L598.21,7.79L598.61,94.51L598.8,95.66L599,94.8L599.2,147.16L599.59,7.81L599.99,94.5L600.19,95.65L600.38,94.86L600.58,147.17L600.98,7.79L601.37,94.5L601.57,95.66L601.76,94.85L601.96,147.16L602.36,7.75L602.75,94.52L602.95,95.67L603.15,94.86L603.34,147.15L603.74,7.83L604.13,94.51L604.33,95.66L604.53,94.81L604.72,147.14L605.12,7.81L605.51,94.5L605.71,95.66L605.91,94.85L606.1,147.17L606.5,7.79L606.89,94.51L607.09,95.65L607.29,94.86L607.49,147.16L607.88,7.75L608.28,94.52L608.47,95.67L608.67,94.86L608.87,147.15L609.26,7.79L609.66,94.52L609.85,95.66L610.05,94.81L610.25,147.16L610.64,7.81L611.04,94.5L611.23,95.65L611.43,94.86L611.63,147.15L612.02,7.79L612.42,94.51L612.62,95.65L612.81,94.87L613.01,147.16L613.41,7.8L613.8,94.5" style="vector-effect: none; fill: none; stroke: rgb(45, 146, 255); stroke-opacity: 1; stroke-width: 2px; opacity: 1;"/></g><g class="points"/><g class="text"/></g></g></g><g class="overplot"/><path class="xlines-above crisp" d="M45.5,591.75H691.5M45.5,435.3166666666667H691.5" style="fill: none; stroke-width: 1.5px; stroke: rgb(235, 240, 248); stroke-opacity: 1;"/><path class="ylines-above crisp" d="M46.25,436.0666666666667V591M690.75,436.0666666666667V591" style="fill: none; stroke-width: 1.5px; stroke: rgb(235, 240, 248); stroke-opacity: 1;"/><g class="overlines-above"/><g class="xaxislayer-above"><g class="x3tick"><text text-anchor="middle" x="0" y="604.5" transform="translate(80.53999999999999,0)" style="font-family: 'Open Sans', verdana, arial, sans-serif; font-size: 10px; fill: rgb(42, 63, 95); fill-opacity: 1; white-space: pre; opacity: 1;">2008</text></g><g class="x3tick"><text text-anchor="middle" x="0" y="604.5" style="font-family: 'Open Sans', verdana, arial, sans-serif; font-size: 10px; fill: rgb(42, 63, 95); fill-opacity: 1; white-space: pre; opacity: 1;" transform="translate(152.75,0)">2009</text></g><g class="x3tick"><text text-anchor="middle" x="0" y="604.5" style="font-family: 'Open Sans', verdana, arial, sans-serif; font-size: 10px; fill: rgb(42, 63, 95); fill-opacity: 1; white-space: pre; opacity: 1;" transform="translate(224.77,0)">2010</text></g><g class="x3tick"><text text-anchor="middle" x="0" y="604.5" style="font-family: 'Open Sans', verdana, arial, sans-serif; font-size: 10px; fill: rgb(42, 63, 95); fill-opacity: 1; white-space: pre; opacity: 1;" transform="translate(296.78,0)">2011</text></g><g class="x3tick"><text text-anchor="middle" x="0" y="604.5" style="font-family: 'Open Sans', verdana, arial, sans-serif; font-size: 10px; fill: rgb(42, 63, 95); fill-opacity: 1; white-space: pre; opacity: 1;" transform="translate(368.8,0)">2012</text></g><g class="x3tick"><text text-anchor="middle" x="0" y="604.5" style="font-family: 'Open Sans', verdana, arial, sans-serif; font-size: 10px; fill: rgb(42, 63, 95); fill-opacity: 1; white-space: pre; opacity: 1;" transform="translate(441.01,0)">2013</text></g><g class="x3tick"><text text-anchor="middle" x="0" y="604.5" style="font-family: 'Open Sans', verdana, arial, sans-serif; font-size: 10px; fill: rgb(42, 63, 95); fill-opacity: 1; white-space: pre; opacity: 1;" transform="translate(513.02,0)">2014</text></g><g class="x3tick"><text text-anchor="middle" x="0" y="604.5" style="font-family: 'Open Sans', verdana, arial, sans-serif; font-size: 10px; fill: rgb(42, 63, 95); fill-opacity: 1; white-space: pre; opacity: 1;" transform="translate(585.04,0)">2015</text></g><g class="x3tick"><text text-anchor="middle" x="0" y="604.5" style="font-family: 'Open Sans', verdana, arial, sans-serif; font-size: 10px; fill: rgb(42, 63, 95); fill-opacity: 1; white-space: pre; opacity: 1;" transform="translate(657.05,0)">2016</text></g></g><g class="yaxislayer-above"><g class="y3tick"><text text-anchor="end" x="43.5" y="3.5" transform="translate(0,558.1566666666668)" style="font-family: 'Open Sans', verdana, arial, sans-serif; font-size: 10px; fill: rgb(42, 63, 95); fill-opacity: 1; white-space: pre; opacity: 1;">−0.2</text></g><g class="y3tick"><text text-anchor="end" x="43.5" y="3.5" style="font-family: 'Open Sans', verdana, arial, sans-serif; font-size: 10px; fill: rgb(42, 63, 95); fill-opacity: 1; white-space: pre; opacity: 1;" transform="translate(0,517.3166666666667)">0</text></g><g class="y3tick"><text text-anchor="end" x="43.5" y="3.5" style="font-family: 'Open Sans', verdana, arial, sans-serif; font-size: 10px; fill: rgb(42, 63, 95); fill-opacity: 1; white-space: pre; opacity: 1;" transform="translate(0,476.4766666666667)">0.2</text></g></g><g class="overaxes-above"/></g></g><g class="polarlayer"/><g class="smithlayer"/><g class="ternarylayer"/><g class="geolayer"/><g class="funnelarealayer"/><g class="pielayer"/><g class="iciclelayer"/><g class="treemaplayer"/><g class="sunburstlayer"/><g class="glimages"/><defs id="topdefs-c0d751"><g class="clips"/></defs><g class="layer-above"><g class="imagelayer"/><g class="shapelayer"/></g><g class="infolayer"><g class="g-gtitle"/><g class="g-xtitle"><text class="xtitle" x="368.5" y="203.0875" text-anchor="middle" style="font-family: 'Open Sans', verdana, arial, sans-serif; font-size: 12px; fill: rgb(42, 63, 95); opacity: 1; font-weight: normal; white-space: pre;">ds</text></g><g class="g-x2title"><text class="x2title" x="368.5" y="416.11875" text-anchor="middle" style="font-family: 'Open Sans', verdana, arial, sans-serif; font-size: 12px; fill: rgb(42, 63, 95); opacity: 1; font-weight: normal; white-space: pre;">ds</text></g><g class="g-x3title" transform="translate(0,-2.1499999999999773)"><text class="x3title" x="368.5" y="629.15" text-anchor="middle" style="font-family: 'Open Sans', verdana, arial, sans-serif; font-size: 12px; fill: rgb(42, 63, 95); opacity: 1; font-weight: normal; white-space: pre;">ds</text></g><g class="g-ytitle" transform="translate(4.0693359375,0)"><text class="ytitle" transform="rotate(-90,6.943750000000001,87.46666666666668)" x="6.943750000000001" y="87.46666666666668" text-anchor="middle" style="font-family: 'Open Sans', verdana, arial, sans-serif; font-size: 12px; fill: rgb(42, 63, 95); opacity: 1; font-weight: normal; white-space: pre;">Trend</text></g><g class="g-y2title" transform="translate(9.900390625,0)"><text class="y2title" transform="rotate(-90,1.1000000000000014,300.5)" x="1.1000000000000014" y="300.5" text-anchor="middle" style="font-family: 'Open Sans', verdana, arial, sans-serif; font-size: 12px; fill: rgb(42, 63, 95); opacity: 1; font-weight: normal; white-space: pre;">yearly seasonality</text></g><g class="g-y3title" transform="translate(9.90234375,0)"><text class="y3title" transform="rotate(-90,1.1000000000000014,513.5333333333334)" x="1.1000000000000014" y="513.5333333333334" text-anchor="middle" style="font-family: 'Open Sans', verdana, arial, sans-serif; font-size: 12px; fill: rgb(42, 63, 95); opacity: 1; font-weight: normal; white-space: pre;">weekly seasonality</text></g></g></svg>