<svg class="main-svg" xmlns="http://www.w3.org/2000/svg" xmlns:xlink="http://www.w3.org/1999/xlink" width="700" height="1050" style="" viewBox="0 0 700 1050"><rect x="0" y="0" width="700" height="1050" style="fill: rgb(255, 255, 255); fill-opacity: 1;"/><defs id="defs-261bf7"><g class="clips"><clipPath id="clip261bf7xyplot" class="plotclip"><rect width="643" height="152.15200000000002"/></clipPath><clipPath id="clip261bf7x2y2plot" class="plotclip"><rect width="643" height="152.15200000000002"/></clipPath><clipPath id="clip261bf7x3y3plot" class="plotclip"><rect width="643" height="152.15199999999996"/></clipPath><clipPath id="clip261bf7x4y4plot" class="plotclip"><rect width="643" height="152.152"/></clipPath><clipPath id="clip261bf7x5y5plot" class="plotclip"><rect width="643" height="152.152"/></clipPath><clipPath class="axesclip" id="clip261bf7x"><rect x="47" y="0" width="643" height="1050"/></clipPath><clipPath class="axesclip" id="clip261bf7y"><rect x="0" y="10" width="700" height="152.15200000000002"/></clipPath><clipPath class="axesclip" id="clip261bf7xy"><rect x="47" y="10" width="643" height="152.15200000000002"/></clipPath><clipPath class="axesclip" id="clip261bf7y2"><rect x="0" y="222.21200000000007" width="700" height="152.15200000000002"/></clipPath><clipPath class="axesclip" id="clip261bf7xy2"><rect x="47" y="222.21200000000007" width="643" height="152.15200000000002"/></clipPath><clipPath class="axesclip" id="clip261bf7y3"><rect x="0" y="434.42400000000004" width="700" height="152.15199999999996"/></clipPath><clipPath class="axesclip" id="clip261bf7xy3"><rect x="47" y="434.42400000000004" width="643" height="152.15199999999996"/></clipPath><clipPath class="axesclip" id="clip261bf7y4"><rect x="0" y="646.636" width="700" height="152.152"/></clipPath><clipPath class="axesclip" id="clip261bf7xy4"><rect x="47" y="646.636" width="643" height="152.152"/></clipPath><clipPath class="axesclip" id="clip261bf7y5"><rect x="0" y="858.848" width="700" height="152.152"/></clipPath><clipPath class="axesclip" id="clip261bf7xy5"><rect x="47" y="858.848" width="643" height="152.152"/></clipPath><clipPath class="axesclip" id="clip261bf7x2"><rect x="47" y="0" width="643" height="1050"/></clipPath><clipPath class="axesclip" id="clip261bf7x2y"><rect x="47" y="10" width="643" height="152.15200000000002"/></clipPath><clipPath class="axesclip" id="clip261bf7x2y2"><rect x="47" y="222.21200000000007" width="643" height="152.15200000000002"/></clipPath><clipPath class="axesclip" id="clip261bf7x2y3"><rect x="47" y="434.42400000000004" width="643" height="152.15199999999996"/></clipPath><clipPath class="axesclip" id="clip261bf7x2y4"><rect x="47" y="646.636" width="643" height="152.152"/></clipPath><clipPath class="axesclip" id="clip261bf7x2y5"><rect x="47" y="858.848" width="643" height="152.152"/></clipPath><clipPath class="axesclip" id="clip261bf7x3"><rect x="47" y="0" width="643" height="1050"/></clipPath><clipPath class="axesclip" id="clip261bf7x3y"><rect x="47" y="10" width="643" height="152.15200000000002"/></clipPath><clipPath class="axesclip" id="clip261bf7x3y2"><rect x="47" y="222.21200000000007" width="643" height="152.15200000000002"/></clipPath><clipPath class="axesclip" id="clip261bf7x3y3"><rect x="47" y="434.42400000000004" width="643" height="152.15199999999996"/></clipPath><clipPath class="axesclip" id="clip261bf7x3y4"><rect x="47" y="646.636" width="643" height="152.152"/></clipPath><clipPath class="axesclip" id="clip261bf7x3y5"><rect x="47" y="858.848" width="643" height="152.152"/></clipPath><clipPath class="axesclip" id="clip261bf7x4"><rect x="47" y="0" width="643" height="1050"/></clipPath><clipPath class="axesclip" id="clip261bf7x4y"><rect x="47" y="10" width="643" height="152.15200000000002"/></clipPath><clipPath class="axesclip" id="clip261bf7x4y2"><rect x="47" y="222.21200000000007" width="643" height="152.15200000000002"/></clipPath><clipPath class="axesclip" id="clip261bf7x4y3"><rect x="47" y="434.42400000000004" width="643" height="152.15199999999996"/></clipPath><clipPath class="axesclip" id="clip261bf7x4y4"><rect x="47" y="646.636" width="643" height="152.152"/></clipPath><clipPath class="axesclip" id="clip261bf7x4y5"><rect x="47" y="858.848" width="643" height="152.152"/></clipPath><clipPath class="axesclip" id="clip261bf7x5"><rect x="47" y="0" width="643" height="1050"/></clipPath><clipPath class="axesclip" id="clip261bf7x5y"><rect x="47" y="10" width="643" height="152.15200000000002"/></clipPath><clipPath class="axesclip" id="clip261bf7x5y2"><rect x="47" y="222.21200000000007" width="643" height="152.15200000000002"/></clipPath><clipPath class="axesclip" id="clip261bf7x5y3"><rect x="47" y="434.42400000000004" width="643" height="152.15199999999996"/></clipPath><clipPath class="axesclip" id="clip261bf7x5y4"><rect x="47" y="646.636" width="643" height="152.152"/></clipPath><clipPath class="axesclip" id="clip261bf7x5y5"><rect x="47" y="858.848" width="643" height="152.152"/></clipPath></g><g class="gradients"/><g class="patterns"/></defs><g class="bglayer"/><g class="layer-below"><g class="imagelayer"/><g class="shapelayer"/></g><g class="cartesianlayer"><g class="subplot xy"><g class="layer-subplot"><g class="shapelayer"/><g class="imagelayer"/></g><g class="minor-gridlayer"><g class="x"/><g class="y"/></g><g class="gridlayer"><g class="x"><path class="xgrid crisp" transform="translate(76.17,0)" d="M0,10v152.15200000000002" style="stroke: rgb(235, 240, 248); stroke-opacity: 1; stroke-width: 1px;"/><path class="xgrid crisp" transform="translate(193.17,0)" d="M0,10v152.15200000000002" style="stroke: rgb(235, 240, 248); stroke-opacity: 1; stroke-width: 1px;"/><path class="xgrid crisp" transform="translate(310.16,0)" d="M0,10v152.15200000000002" style="stroke: rgb(235, 240, 248); stroke-opacity: 1; stroke-width: 1px;"/><path class="xgrid crisp" transform="translate(427.48,0)" d="M0,10v152.15200000000002" style="stroke: rgb(235, 240, 248); stroke-opacity: 1; stroke-width: 1px;"/><path class="xgrid crisp" transform="translate(544.48,0)" d="M0,10v152.15200000000002" style="stroke: rgb(235, 240, 248); stroke-opacity: 1; stroke-width: 1px;"/><path class="xgrid crisp" transform="translate(661.47,0)" d="M0,10v152.15200000000002" style="stroke: rgb(235, 240, 248); stroke-opacity: 1; stroke-width: 1px;"/></g><g class="y"><path class="ygrid crisp" transform="translate(0,128.18)" d="M47,0h643" style="stroke: rgb(235, 240, 248); stroke-opacity: 1; stroke-width: 1px;"/><path class="ygrid crisp" transform="translate(0,82.39)" d="M47,0h643" style="stroke: rgb(235, 240, 248); stroke-opacity: 1; stroke-width: 1px;"/></g></g><g class="zerolinelayer"><path class="yzl zl crisp" transform="translate(0,36.61)" d="M47,0h643" style="stroke: rgb(235, 240, 248); stroke-opacity: 1; stroke-width: 2px;"/></g><path class="xlines-below"/><path class="ylines-below"/><g class="overlines-below"/><g class="xaxislayer-below"/><g class="yaxislayer-below"/><g class="overaxes-below"/><g class="plot" transform="translate(47,10)" clip-path="url(#clip261bf7xyplot)"><g class="scatterlayer mlayer"><g class="trace scatter trace37da03" style="stroke-miterlimit: 2; opacity: 1;"><g class="fills"/><g class="errorbars"/><g class="lines"><path class="js-line" d="M29.17,144.54L180.46,134.34L180.78,134.31L292.65,126.65L292.97,126.53L476.32,58.57L476.64,58.46L613.83,7.61" style="vector-effect: none; fill: none; stroke: rgb(45, 146, 255); stroke-opacity: 1; stroke-width: 2px; opacity: 1;"/></g><g class="points"/><g class="text"/></g></g></g><g class="overplot"/><path class="xlines-above crisp" d="M45.5,162.90200000000002H691.5M45.5,9.25H691.5" style="fill: none; stroke-width: 1.5px; stroke: rgb(235, 240, 248); stroke-opacity: 1;"/><path class="ylines-above crisp" d="M46.25,10V162.15200000000002M690.75,10V162.15200000000002" style="fill: none; stroke-width: 1.5px; stroke: rgb(235, 240, 248); stroke-opacity: 1;"/><g class="overlines-above"/><g class="xaxislayer-above"><g class="xtick"><text text-anchor="middle" x="0" y="175.65200000000002" transform="translate(76.17,0)" style="font-family: 'Open Sans', verdana, arial, sans-serif; font-size: 10px; fill: rgb(42, 63, 95); fill-opacity: 1; white-space: pre; opacity: 1;">2018</text></g><g class="xtick"><text text-anchor="middle" x="0" y="175.65200000000002" style="font-family: 'Open Sans', verdana, arial, sans-serif; font-size: 10px; fill: rgb(42, 63, 95); fill-opacity: 1; white-space: pre; opacity: 1;" transform="translate(193.17,0)">2019</text></g><g class="xtick"><text text-anchor="middle" x="0" y="175.65200000000002" style="font-family: 'Open Sans', verdana, arial, sans-serif; font-size: 10px; fill: rgb(42, 63, 95); fill-opacity: 1; white-space: pre; opacity: 1;" transform="translate(310.16,0)">2020</text></g><g class="xtick"><text text-anchor="middle" x="0" y="175.65200000000002" style="font-family: 'Open Sans', verdana, arial, sans-serif; font-size: 10px; fill: rgb(42, 63, 95); fill-opacity: 1; white-space: pre; opacity: 1;" transform="translate(427.48,0)">2021</text></g><g class="xtick"><text text-anchor="middle" x="0" y="175.65200000000002" style="font-family: 'Open Sans', verdana, arial, sans-serif; font-size: 10px; fill: rgb(42, 63, 95); fill-opacity: 1; white-space: pre; opacity: 1;" transform="translate(544.48,0)">2022</text></g><g class="xtick"><text text-anchor="middle" x="0" y="175.65200000000002" style="font-family: 'Open Sans', verdana, arial, sans-serif; font-size: 10px; fill: rgb(42, 63, 95); fill-opacity: 1; white-space: pre; opacity: 1;" transform="translate(661.47,0)">2023</text></g></g><g class="yaxislayer-above"><g class="ytick"><text text-anchor="end" x="43.5" y="3.5" transform="translate(0,128.18)" style="font-family: 'Open Sans', verdana, arial, sans-serif; font-size: 10px; fill: rgb(42, 63, 95); fill-opacity: 1; white-space: pre; opacity: 1;">−1</text></g><g class="ytick"><text text-anchor="end" x="43.5" y="3.5" style="font-family: 'Open Sans', verdana, arial, sans-serif; font-size: 10px; fill: rgb(42, 63, 95); fill-opacity: 1; white-space: pre; opacity: 1;" transform="translate(0,82.39)">−0.5</text></g><g class="ytick"><text text-anchor="end" x="43.5" y="3.5" style="font-family: 'Open Sans', verdana, arial, sans-serif; font-size: 10px; fill: rgb(42, 63, 95); fill-opacity: 1; white-space: pre; opacity: 1;" transform="translate(0,36.61)">0</text></g></g><g class="overaxes-above"/></g><g class="subplot x2y2"><g class="layer-subplot"><g class="shapelayer"/><g class="imagelayer"/></g><g class="minor-gridlayer"><g class="x2"/><g class="y2"/></g><g class="gridlayer"><g class="x2"/><g class="y2"><path class="y2grid crisp" transform="translate(0,329.6120000000001)" d="M47,0h643" style="stroke: rgb(235, 240, 248); stroke-opacity: 1; stroke-width: 1px;"/><path class="y2grid crisp" transform="translate(0,284.8620000000001)" d="M47,0h643" style="stroke: rgb(235, 240, 248); stroke-opacity: 1; stroke-width: 1px;"/><path class="y2grid crisp" transform="translate(0,240.11200000000008)" d="M47,0h643" style="stroke: rgb(235, 240, 248); stroke-opacity: 1; stroke-width: 1px;"/></g></g><g class="zerolinelayer"><path class="y2zl zl crisp" transform="translate(0,374.3620000000001)" d="M47,0h643" style="stroke: rgb(235, 240, 248); stroke-opacity: 1; stroke-width: 2px;"/></g><path class="xlines-below"/><path class="ylines-below"/><g class="overlines-below"/><g class="xaxislayer-below"/><g class="yaxislayer-below"/><g class="overaxes-below"/><g class="plot" transform="translate(47,222.21200000000007)" clip-path="url(#clip261bf7x2y2plot)"><g class="barlayer mlayer"><g class="trace bars" style="opacity: 1;"><g class="points"><g class="point"><path d="M-115.74,152.15V7.61H115.74V152.15Z" style="vector-effect: none; opacity: 1; stroke-width: 0.5px; fill: rgb(45, 146, 255); fill-opacity: 1; stroke: rgb(255, 255, 255); stroke-opacity: 1;"/></g><g class="point"><path d="M173.61,152.15V58.46H405.09V152.15Z" style="vector-effect: none; opacity: 1; stroke-width: 0.5px; fill: rgb(45, 146, 255); fill-opacity: 1; stroke: rgb(255, 255, 255); stroke-opacity: 1;"/></g><g class="point"><path d="M527.26,152.15V152.15H758.74V152.15Z" style="vector-effect: none; opacity: 1; stroke-width: 0.5px; fill: rgb(45, 146, 255); fill-opacity: 1; stroke: rgb(255, 255, 255); stroke-opacity: 1;"/></g></g></g></g></g><g class="overplot"/><path class="xlines-above crisp" d="M45.5,375.1140000000001H691.5M45.5,221.46200000000007H691.5" style="fill: none; stroke-width: 1.5px; stroke: rgb(235, 240, 248); stroke-opacity: 1;"/><path class="ylines-above crisp" d="M46.25,222.21200000000007V374.3640000000001M690.75,222.21200000000007V374.3640000000001" style="fill: none; stroke-width: 1.5px; stroke: rgb(235, 240, 248); stroke-opacity: 1;"/><g class="overlines-above"/><g class="xaxislayer-above"><g class="x2tick"><text text-anchor="middle" x="0" y="387.8640000000001" transform="translate(47,0)" style="font-family: 'Open Sans', verdana, arial, sans-serif; font-size: 10px; fill: rgb(42, 63, 95); fill-opacity: 1; white-space: pre; opacity: 1;">2018</text></g><g class="x2tick"><text text-anchor="middle" x="0" y="387.8640000000001" style="font-family: 'Open Sans', verdana, arial, sans-serif; font-size: 10px; fill: rgb(42, 63, 95); fill-opacity: 1; white-space: pre; opacity: 1;" transform="translate(175.67,0)">2019</text></g><g class="x2tick"><text text-anchor="middle" x="0" y="387.8640000000001" style="font-family: 'Open Sans', verdana, arial, sans-serif; font-size: 10px; fill: rgb(42, 63, 95); fill-opacity: 1; white-space: pre; opacity: 1;" transform="translate(304.34,0)">2020</text></g><g class="x2tick"><text text-anchor="middle" x="0" y="387.8640000000001" style="font-family: 'Open Sans', verdana, arial, sans-serif; font-size: 10px; fill: rgb(42, 63, 95); fill-opacity: 1; white-space: pre; opacity: 1;" transform="translate(433.36,0)">2021</text></g><g class="x2tick"><text text-anchor="middle" x="0" y="387.8640000000001" style="font-family: 'Open Sans', verdana, arial, sans-serif; font-size: 10px; fill: rgb(42, 63, 95); fill-opacity: 1; white-space: pre; opacity: 1;" transform="translate(562.03,0)">2022</text></g></g><g class="yaxislayer-above"><g class="y2tick"><text text-anchor="end" x="43.5" y="3.5" transform="translate(0,374.3620000000001)" style="font-family: 'Open Sans', verdana, arial, sans-serif; font-size: 10px; fill: rgb(42, 63, 95); fill-opacity: 1; white-space: pre; opacity: 1;">0</text></g><g class="y2tick"><text text-anchor="end" x="43.5" y="3.5" style="font-family: 'Open Sans', verdana, arial, sans-serif; font-size: 10px; fill: rgb(42, 63, 95); fill-opacity: 1; white-space: pre; opacity: 1;" transform="translate(0,329.6120000000001)">0.1</text></g><g class="y2tick"><text text-anchor="end" x="43.5" y="3.5" style="font-family: 'Open Sans', verdana, arial, sans-serif; font-size: 10px; fill: rgb(42, 63, 95); fill-opacity: 1; white-space: pre; opacity: 1;" transform="translate(0,284.8620000000001)">0.2</text></g><g class="y2tick"><text text-anchor="end" x="43.5" y="3.5" style="font-family: 'Open Sans', verdana, arial, sans-serif; font-size: 10px; fill: rgb(42, 63, 95); fill-opacity: 1; white-space: pre; opacity: 1;" transform="translate(0,240.11200000000008)">0.3</text></g></g><g class="overaxes-above"/></g><g class="subplot x3y3"><g class="layer-subplot"><g class="shapelayer"/><g class="imagelayer"/></g><g class="minor-gridlayer"><g class="x3"/><g class="y3"/></g><g class="gridlayer"><g class="x3"><path class="x3grid crisp" transform="translate(75.93,0)" d="M0,434.42400000000004v152.15199999999996" style="stroke: rgb(235, 240, 248); stroke-opacity: 1; stroke-width: 1px;"/><path class="x3grid crisp" transform="translate(170.78,0)" d="M0,434.42400000000004v152.15199999999996" style="stroke: rgb(235, 240, 248); stroke-opacity: 1; stroke-width: 1px;"/><path class="x3grid crisp" transform="translate(268.83000000000004,0)" d="M0,434.42400000000004v152.15199999999996" style="stroke: rgb(235, 240, 248); stroke-opacity: 1; stroke-width: 1px;"/><path class="x3grid crisp" transform="translate(366.89,0)" d="M0,434.42400000000004v152.15199999999996" style="stroke: rgb(235, 240, 248); stroke-opacity: 1; stroke-width: 1px;"/><path class="x3grid crisp" transform="translate(466.56,0)" d="M0,434.42400000000004v152.15199999999996" style="stroke: rgb(235, 240, 248); stroke-opacity: 1; stroke-width: 1px;"/><path class="x3grid crisp" transform="translate(564.61,0)" d="M0,434.42400000000004v152.15199999999996" style="stroke: rgb(235, 240, 248); stroke-opacity: 1; stroke-width: 1px;"/><path class="x3grid crisp" transform="translate(662.67,0)" d="M0,434.42400000000004v152.15199999999996" style="stroke: rgb(235, 240, 248); stroke-opacity: 1; stroke-width: 1px;"/></g><g class="y3"><path class="y3grid crisp" transform="translate(0,556.8240000000001)" d="M47,0h643" style="stroke: rgb(235, 240, 248); stroke-opacity: 1; stroke-width: 1px;"/><path class="y3grid crisp" transform="translate(0,465.70400000000006)" d="M47,0h643" style="stroke: rgb(235, 240, 248); stroke-opacity: 1; stroke-width: 1px;"/></g></g><g class="zerolinelayer"><path class="y3zl zl crisp" transform="translate(0,511.264)" d="M47,0h643" style="stroke: rgb(235, 240, 248); stroke-opacity: 1; stroke-width: 2px;"/></g><path class="xlines-below"/><path class="ylines-below"/><g class="overlines-below"/><g class="xaxislayer-below"/><g class="yaxislayer-below"/><g class="overaxes-below"/><g class="plot" transform="translate(47,434.42400000000004)" clip-path="url(#clip261bf7x3y3plot)"><g class="scatterlayer mlayer"><g class="trace scatter trace23d6aa" style="stroke-miterlimit: 2; opacity: 1;"><g class="fills"/><g class="errorbars"/><g class="lines"><path class="js-line" d="M28.93,57.58L43.4,42.17L45.01,40.64L54.65,32.54L56.26,31.38L65.91,25.55L67.51,24.76L77.16,20.92L78.77,20.41L93.23,16.78L94.84,16.44L138.24,7.84L139.85,7.73L149.5,7.88L151.1,8.07L160.75,10.25L162.36,10.79L172,15.03L173.61,15.88L186.47,23.69L188.08,24.74L207.37,36.58L208.97,37.42L220.23,42.28L221.83,42.83L234.69,46.2L236.3,46.52L258.81,51.39L260.41,51.89L270.06,55.79L271.67,56.6L281.31,62.42L282.92,63.55L294.17,72.55L295.78,73.96L334.36,108.47L335.97,109.66L347.22,117.15L348.83,118.1L361.69,124.73L363.29,125.45L380.98,132.5L382.58,133.08L403.48,139.89L405.09,140.34L419.56,143.54L421.16,143.78L432.42,144.54L434.02,144.51L443.67,143.48L445.28,143.16L454.92,140.43L456.53,139.84L467.78,134.77L469.39,133.93L507.97,113.24L509.58,112.61L520.83,109.12L522.44,108.75L535.3,106.71L536.9,106.54L557.8,103.72L559.41,103.34L569.06,100.04L570.66,99.31L578.7,94.75L580.31,93.65L589.95,85.84L591.56,84.34L602.81,72.68L604.42,70.88L614.06,59.87" style="vector-effect: none; fill: none; stroke: rgb(45, 146, 255); stroke-opacity: 1; stroke-width: 2px; opacity: 1;"/></g><g class="points"/><g class="text"/></g></g></g><g class="overplot"/><path class="xlines-above crisp" d="M45.5,587.326H691.5M45.5,433.67400000000004H691.5" style="fill: none; stroke-width: 1.5px; stroke: rgb(235, 240, 248); stroke-opacity: 1;"/><path class="ylines-above crisp" d="M46.25,434.42400000000004V586.576M690.75,434.42400000000004V586.576" style="fill: none; stroke-width: 1.5px; stroke: rgb(235, 240, 248); stroke-opacity: 1;"/><g class="overlines-above"/><g class="xaxislayer-above"><g class="x3tick"><text text-anchor="middle" x="0" y="600.076" transform="translate(75.93,0)" style="font-family: 'Open Sans', verdana, arial, sans-serif; font-size: 10px; fill: rgb(42, 63, 95); fill-opacity: 1; white-space: pre; opacity: 1;">Jan 2017</text></g><g class="x3tick"><text text-anchor="middle" x="0" y="600.076" style="font-family: 'Open Sans', verdana, arial, sans-serif; font-size: 10px; fill: rgb(42, 63, 95); fill-opacity: 1; white-space: pre; opacity: 1;" transform="translate(170.78,0)">Mar 2017</text></g><g class="x3tick"><text text-anchor="middle" x="0" y="600.076" style="font-family: 'Open Sans', verdana, arial, sans-serif; font-size: 10px; fill: rgb(42, 63, 95); fill-opacity: 1; white-space: pre; opacity: 1;" transform="translate(268.83000000000004,0)">May 2017</text></g><g class="x3tick"><text text-anchor="middle" x="0" y="600.076" style="font-family: 'Open Sans', verdana, arial, sans-serif; font-size: 10px; fill: rgb(42, 63, 95); fill-opacity: 1; white-space: pre; opacity: 1;" transform="translate(366.89,0)">Jul 2017</text></g><g class="x3tick"><text text-anchor="middle" x="0" y="600.076" style="font-family: 'Open Sans', verdana, arial, sans-serif; font-size: 10px; fill: rgb(42, 63, 95); fill-opacity: 1; white-space: pre; opacity: 1;" transform="translate(466.56,0)">Sep 2017</text></g><g class="x3tick"><text text-anchor="middle" x="0" y="600.076" style="font-family: 'Open Sans', verdana, arial, sans-serif; font-size: 10px; fill: rgb(42, 63, 95); fill-opacity: 1; white-space: pre; opacity: 1;" transform="translate(564.61,0)">Nov 2017</text></g><g class="x3tick"><text text-anchor="middle" x="0" y="600.076" style="font-family: 'Open Sans', verdana, arial, sans-serif; font-size: 10px; fill: rgb(42, 63, 95); fill-opacity: 1; white-space: pre; opacity: 1;" transform="translate(662.67,0)">Jan 2018</text></g></g><g class="yaxislayer-above"><g class="y3tick"><text text-anchor="end" x="43.5" y="3.5" transform="translate(0,556.8240000000001)" style="font-family: 'Open Sans', verdana, arial, sans-serif; font-size: 10px; fill: rgb(42, 63, 95); fill-opacity: 1; white-space: pre; opacity: 1;">−2</text></g><g class="y3tick"><text text-anchor="end" x="43.5" y="3.5" style="font-family: 'Open Sans', verdana, arial, sans-serif; font-size: 10px; fill: rgb(42, 63, 95); fill-opacity: 1; white-space: pre; opacity: 1;" transform="translate(0,511.264)">0</text></g><g class="y3tick"><text text-anchor="end" x="43.5" y="3.5" style="font-family: 'Open Sans', verdana, arial, sans-serif; font-size: 10px; fill: rgb(42, 63, 95); fill-opacity: 1; white-space: pre; opacity: 1;" transform="translate(0,465.70400000000006)">2</text></g></g><g class="overaxes-above"/></g><g class="subplot x4y4"><g class="layer-subplot"><g class="shapelayer"/><g class="imagelayer"/></g><g class="minor-gridlayer"><g class="x4"/><g class="y4"/></g><g class="gridlayer"><g class="x4"><path class="x4grid crisp" transform="translate(159.44,0)" d="M0,646.636v152.152" style="stroke: rgb(235, 240, 248); stroke-opacity: 1; stroke-width: 1px;"/><path class="x4grid crisp" transform="translate(243.77,0)" d="M0,646.636v152.152" style="stroke: rgb(235, 240, 248); stroke-opacity: 1; stroke-width: 1px;"/><path class="x4grid crisp" transform="translate(328.09,0)" d="M0,646.636v152.152" style="stroke: rgb(235, 240, 248); stroke-opacity: 1; stroke-width: 1px;"/><path class="x4grid crisp" transform="translate(412.42,0)" d="M0,646.636v152.152" style="stroke: rgb(235, 240, 248); stroke-opacity: 1; stroke-width: 1px;"/><path class="x4grid crisp" transform="translate(496.75,0)" d="M0,646.636v152.152" style="stroke: rgb(235, 240, 248); stroke-opacity: 1; stroke-width: 1px;"/><path class="x4grid crisp" transform="translate(581.08,0)" d="M0,646.636v152.152" style="stroke: rgb(235, 240, 248); stroke-opacity: 1; stroke-width: 1px;"/><path class="x4grid crisp" transform="translate(665.4,0)" d="M0,646.636v152.152" style="stroke: rgb(235, 240, 248); stroke-opacity: 1; stroke-width: 1px;"/></g><g class="y4"><path class="y4grid crisp" transform="translate(0,794.386)" d="M47,0h643" style="stroke: rgb(235, 240, 248); stroke-opacity: 1; stroke-width: 1px;"/><path class="y4grid crisp" transform="translate(0,759.516)" d="M47,0h643" style="stroke: rgb(235, 240, 248); stroke-opacity: 1; stroke-width: 1px;"/><path class="y4grid crisp" transform="translate(0,689.7959999999999)" d="M47,0h643" style="stroke: rgb(235, 240, 248); stroke-opacity: 1; stroke-width: 1px;"/><path class="y4grid crisp" transform="translate(0,654.9359999999999)" d="M47,0h643" style="stroke: rgb(235, 240, 248); stroke-opacity: 1; stroke-width: 1px;"/></g></g><g class="zerolinelayer"><path class="x4zl zl crisp" transform="translate(75.11,0)" d="M0,646.636v152.152" style="stroke: rgb(235, 240, 248); stroke-opacity: 1; stroke-width: 2px;"/><path class="y4zl zl crisp" transform="translate(0,724.656)" d="M47,0h643" style="stroke: rgb(235, 240, 248); stroke-opacity: 1; stroke-width: 2px;"/></g><path class="xlines-below"/><path class="ylines-below"/><g class="overlines-below"/><g class="xaxislayer-below"/><g class="yaxislayer-below"/><g class="overaxes-below"/><g class="plot" transform="translate(47,646.636)" clip-path="url(#clip261bf7x4y4plot)"><g class="scatterlayer mlayer"><g class="trace scatter traceef2b16" style="stroke-miterlimit: 2; opacity: 1;"><g class="fills"/><g class="errorbars"/><g class="lines"><path class="js-line" d="M28.11,133.3L42.16,126.84L45.68,125.04L63.25,114.85L66.76,112.62L91.36,95.4L94.87,92.81L133.52,63.25L137.03,60.71L154.6,48.02L158.11,45.51L179.2,32.33L182.71,30.36L196.77,23.06L200.28,21.45L217.85,14.54L221.36,13.47L235.42,9.98L238.93,9.32L252.98,7.77L256.5,7.64L270.55,8.13L274.07,8.53L288.12,11.06L291.63,11.97L305.69,16.53L309.2,17.94L323.26,24.34L326.77,26.19L344.34,36.3L347.85,38.5L361.91,47.91L365.42,50.33L390.02,67.97L393.53,70.65L428.67,95.35L432.18,97.65L446.23,106.54L449.75,108.62L474.34,121.79L477.86,123.53L498.94,132.33L502.45,133.54L520.02,138.83L523.54,139.74L537.59,142.52L541.1,143.03L555.16,144.37L558.67,144.49L572.73,144.19L576.24,143.89L590.3,141.84L593.81,141.06L607.86,137.19L611.38,135.93L614.89,134.64" style="vector-effect: none; fill: none; stroke: rgb(45, 146, 255); stroke-opacity: 1; stroke-width: 2px; opacity: 1;"/></g><g class="points"/><g class="text"/></g></g></g><g class="overplot"/><path class="xlines-above crisp" d="M45.5,799.538H691.5M45.5,645.886H691.5" style="fill: none; stroke-width: 1.5px; stroke: rgb(235, 240, 248); stroke-opacity: 1;"/><path class="ylines-above crisp" d="M46.25,646.636V798.788M690.75,646.636V798.788" style="fill: none; stroke-width: 1.5px; stroke: rgb(235, 240, 248); stroke-opacity: 1;"/><g class="overlines-above"/><g class="xaxislayer-above"><g class="x4tick"><text text-anchor="middle" x="0" y="812.288" transform="translate(75.11,0)" style="font-family: 'Open Sans', verdana, arial, sans-serif; font-size: 10px; fill: rgb(42, 63, 95); fill-opacity: 1; white-space: pre; opacity: 1;">Sunday</text></g><g class="x4tick"><text text-anchor="middle" x="0" y="812.288" style="font-family: 'Open Sans', verdana, arial, sans-serif; font-size: 10px; fill: rgb(42, 63, 95); fill-opacity: 1; white-space: pre; opacity: 1;" transform="translate(159.44,0)">Monday</text></g><g class="x4tick"><text text-anchor="middle" x="0" y="812.288" style="font-family: 'Open Sans', verdana, arial, sans-serif; font-size: 10px; fill: rgb(42, 63, 95); fill-opacity: 1; white-space: pre; opacity: 1;" transform="translate(243.77,0)">Tuesday</text></g><g class="x4tick"><text text-anchor="middle" x="0" y="812.288" style="font-family: 'Open Sans', verdana, arial, sans-serif; font-size: 10px; fill: rgb(42, 63, 95); fill-opacity: 1; white-space: pre; opacity: 1;" transform="translate(328.09,0)">Wednesday</text></g><g class="x4tick"><text text-anchor="middle" x="0" y="812.288" style="font-family: 'Open Sans', verdana, arial, sans-serif; font-size: 10px; fill: rgb(42, 63, 95); fill-opacity: 1; white-space: pre; opacity: 1;" transform="translate(412.42,0)">Thursday</text></g><g class="x4tick"><text text-anchor="middle" x="0" y="812.288" style="font-family: 'Open Sans', verdana, arial, sans-serif; font-size: 10px; fill: rgb(42, 63, 95); fill-opacity: 1; white-space: pre; opacity: 1;" transform="translate(496.75,0)">Friday</text></g><g class="x4tick"><text text-anchor="middle" x="0" y="812.288" style="font-family: 'Open Sans', verdana, arial, sans-serif; font-size: 10px; fill: rgb(42, 63, 95); fill-opacity: 1; white-space: pre; opacity: 1;" transform="translate(581.08,0)">Saturday</text></g><g class="x4tick"><text text-anchor="middle" x="0" y="812.288" style="font-family: 'Open Sans', verdana, arial, sans-serif; font-size: 10px; fill: rgb(42, 63, 95); fill-opacity: 1; white-space: pre; opacity: 1;" transform="translate(665.4,0)">Sunday</text></g></g><g class="yaxislayer-above"><g class="y4tick"><text text-anchor="end" x="43.5" y="3.5" transform="translate(0,794.386)" style="font-family: 'Open Sans', verdana, arial, sans-serif; font-size: 10px; fill: rgb(42, 63, 95); fill-opacity: 1; white-space: pre; opacity: 1;">−1</text></g><g class="y4tick"><text text-anchor="end" x="43.5" y="3.5" style="font-family: 'Open Sans', verdana, arial, sans-serif; font-size: 10px; fill: rgb(42, 63, 95); fill-opacity: 1; white-space: pre; opacity: 1;" transform="translate(0,759.516)">−0.5</text></g><g class="y4tick"><text text-anchor="end" x="43.5" y="3.5" style="font-family: 'Open Sans', verdana, arial, sans-serif; font-size: 10px; fill: rgb(42, 63, 95); fill-opacity: 1; white-space: pre; opacity: 1;" transform="translate(0,724.656)">0</text></g><g class="y4tick"><text text-anchor="end" x="43.5" y="3.5" style="font-family: 'Open Sans', verdana, arial, sans-serif; font-size: 10px; fill: rgb(42, 63, 95); fill-opacity: 1; white-space: pre; opacity: 1;" transform="translate(0,689.7959999999999)">0.5</text></g><g class="y4tick"><text text-anchor="end" x="43.5" y="3.5" style="font-family: 'Open Sans', verdana, arial, sans-serif; font-size: 10px; fill: rgb(42, 63, 95); fill-opacity: 1; white-space: pre; opacity: 1;" transform="translate(0,654.9359999999999)">1</text></g></g><g class="overaxes-above"/></g><g class="subplot x5y5"><g class="layer-subplot"><g class="shapelayer"/><g class="imagelayer"/></g><g class="minor-gridlayer"><g class="x5"/><g class="y5"/></g><g class="gridlayer"><g class="x5"><path class="x5grid crisp" transform="translate(100.07,0)" d="M0,858.848v152.152" style="stroke: rgb(235, 240, 248); stroke-opacity: 1; stroke-width: 1px;"/><path class="x5grid crisp" transform="translate(124.57,0)" d="M0,858.848v152.152" style="stroke: rgb(235, 240, 248); stroke-opacity: 1; stroke-width: 1px;"/><path class="x5grid crisp" transform="translate(149.06,0)" d="M0,858.848v152.152" style="stroke: rgb(235, 240, 248); stroke-opacity: 1; stroke-width: 1px;"/><path class="x5grid crisp" transform="translate(173.56,0)" d="M0,858.848v152.152" style="stroke: rgb(235, 240, 248); stroke-opacity: 1; stroke-width: 1px;"/><path class="x5grid crisp" transform="translate(198.05,0)" d="M0,858.848v152.152" style="stroke: rgb(235, 240, 248); stroke-opacity: 1; stroke-width: 1px;"/><path class="x5grid crisp" transform="translate(222.55,0)" d="M0,858.848v152.152" style="stroke: rgb(235, 240, 248); stroke-opacity: 1; stroke-width: 1px;"/><path class="x5grid crisp" transform="translate(247.04,0)" d="M0,858.848v152.152" style="stroke: rgb(235, 240, 248); stroke-opacity: 1; stroke-width: 1px;"/><path class="x5grid crisp" transform="translate(271.53999999999996,0)" d="M0,858.848v152.152" style="stroke: rgb(235, 240, 248); stroke-opacity: 1; stroke-width: 1px;"/><path class="x5grid crisp" transform="translate(296.03,0)" d="M0,858.848v152.152" style="stroke: rgb(235, 240, 248); stroke-opacity: 1; stroke-width: 1px;"/><path class="x5grid crisp" transform="translate(320.53,0)" d="M0,858.848v152.152" style="stroke: rgb(235, 240, 248); stroke-opacity: 1; stroke-width: 1px;"/><path class="x5grid crisp" transform="translate(345.03,0)" d="M0,858.848v152.152" style="stroke: rgb(235, 240, 248); stroke-opacity: 1; stroke-width: 1px;"/><path class="x5grid crisp" transform="translate(369.52,0)" d="M0,858.848v152.152" style="stroke: rgb(235, 240, 248); stroke-opacity: 1; stroke-width: 1px;"/><path class="x5grid crisp" transform="translate(394.02,0)" d="M0,858.848v152.152" style="stroke: rgb(235, 240, 248); stroke-opacity: 1; stroke-width: 1px;"/><path class="x5grid crisp" transform="translate(418.51,0)" d="M0,858.848v152.152" style="stroke: rgb(235, 240, 248); stroke-opacity: 1; stroke-width: 1px;"/><path class="x5grid crisp" transform="translate(443.01,0)" d="M0,858.848v152.152" style="stroke: rgb(235, 240, 248); stroke-opacity: 1; stroke-width: 1px;"/><path class="x5grid crisp" transform="translate(467.5,0)" d="M0,858.848v152.152" style="stroke: rgb(235, 240, 248); stroke-opacity: 1; stroke-width: 1px;"/><path class="x5grid crisp" transform="translate(492,0)" d="M0,858.848v152.152" style="stroke: rgb(235, 240, 248); stroke-opacity: 1; stroke-width: 1px;"/><path class="x5grid crisp" transform="translate(516.49,0)" d="M0,858.848v152.152" style="stroke: rgb(235, 240, 248); stroke-opacity: 1; stroke-width: 1px;"/><path class="x5grid crisp" transform="translate(540.99,0)" d="M0,858.848v152.152" style="stroke: rgb(235, 240, 248); stroke-opacity: 1; stroke-width: 1px;"/><path class="x5grid crisp" transform="translate(565.48,0)" d="M0,858.848v152.152" style="stroke: rgb(235, 240, 248); stroke-opacity: 1; stroke-width: 1px;"/><path class="x5grid crisp" transform="translate(589.98,0)" d="M0,858.848v152.152" style="stroke: rgb(235, 240, 248); stroke-opacity: 1; stroke-width: 1px;"/><path class="x5grid crisp" transform="translate(614.47,0)" d="M0,858.848v152.152" style="stroke: rgb(235, 240, 248); stroke-opacity: 1; stroke-width: 1px;"/><path class="x5grid crisp" transform="translate(638.97,0)" d="M0,858.848v152.152" style="stroke: rgb(235, 240, 248); stroke-opacity: 1; stroke-width: 1px;"/><path class="x5grid crisp" transform="translate(663.46,0)" d="M0,858.848v152.152" style="stroke: rgb(235, 240, 248); stroke-opacity: 1; stroke-width: 1px;"/></g><g class="y5"><path class="y5grid crisp" transform="translate(0,981.838)" d="M47,0h643" style="stroke: rgb(235, 240, 248); stroke-opacity: 1; stroke-width: 1px;"/><path class="y5grid crisp" transform="translate(0,862.468)" d="M47,0h643" style="stroke: rgb(235, 240, 248); stroke-opacity: 1; stroke-width: 1px;"/></g></g><g class="zerolinelayer"><path class="x5zl zl crisp" transform="translate(75.58,0)" d="M0,858.848v152.152" style="stroke: rgb(235, 240, 248); stroke-opacity: 1; stroke-width: 2px;"/><path class="y5zl zl crisp" transform="translate(0,922.1579999999999)" d="M47,0h643" style="stroke: rgb(235, 240, 248); stroke-opacity: 1; stroke-width: 2px;"/></g><path class="xlines-below"/><path class="ylines-below"/><g class="overlines-below"/><g class="xaxislayer-below"/><g class="yaxislayer-below"/><g class="overaxes-below"/><g class="plot" transform="translate(47,858.848)" clip-path="url(#clip261bf7x5y5plot)"><g class="scatterlayer mlayer"><g class="trace scatter trace3a60e7" style="stroke-miterlimit: 2; opacity: 1;"><g class="fills"/><g class="errorbars"/><g class="lines"><path class="js-line" d="M28.58,37.51L34.7,41.41L36.74,42.02L40.83,44.03L42.87,43.51L46.95,44.41L48.99,43.14L53.07,42.86L55.11,40.43L61.24,38.7L63.28,35.6L65.32,34.43L67.36,31.32L73.49,28.19L75.53,25.02L77.57,24.49L79.61,22.81L85.73,19.9L87.77,19.31L97.98,19.32L100.02,21L104.1,21.55L106.15,23.99L112.27,25.78L114.31,28.48L116.35,29.66L118.39,29.94L120.43,32.86L122.48,33.81L124.52,34.44L126.56,37.31L130.64,38.51L132.68,40.54L136.77,41.7L138.81,43.51L151.05,47.76L153.1,48.52L161.26,53.42L163.3,56.19L165.34,56.97L167.38,59.56L169.43,62.43L171.47,63.73L181.67,80.97L183.71,85.35L198,117.56L200.04,120.18L206.17,132.68L208.21,134.62L210.25,139.77L212.29,140.63L216.37,144.35L218.42,144.48L222.5,144.05L224.54,142.64L226.58,141.66L228.62,139.21L230.66,135.56L232.7,133.58L234.75,125.89L236.79,123.53L240.87,111.76L242.91,103.85L244.95,100.81L246.99,94.01L249.03,84.45L251.08,81.21L253.12,70.15L255.16,64.9L263.32,36.13L265.37,32.91L269.45,21.39L271.49,17.42L273.53,15.37L275.57,11.56L277.61,9.56L279.65,9.11L281.7,7.68L283.74,7.61L285.78,8.46L287.82,10.6L291.9,14.43L293.94,19.04L295.98,23.21L298.03,25.46L300.07,34.63L302.11,37.4L306.19,50.93L308.23,54.07L314.36,74.25L316.4,77.38L318.44,87.39L320.48,90.25L328.64,109.58L330.69,110.87L332.73,114.44L334.77,116.49L336.81,118.58L338.85,119.1L342.93,119.61L344.97,119.68L351.1,115.05L353.14,113.31L355.18,112L357.22,109.54L361.3,103.5L363.35,102.04L365.39,97.13L367.43,95.79L371.51,90.1L373.55,89.08L379.68,83.29L381.72,82.89L387.84,80.78L389.88,80.91L396.01,81.74L398.05,83.38L408.25,88.85L410.3,90.4L412.34,91.33L414.38,91.34L418.46,92.28L420.5,91.95L424.58,90.64L426.63,89.47L428.67,88.54L430.71,85.92L434.79,82.52L436.83,76.58L438.87,74.83L440.91,71.27L445,61.43L447.04,59.35L451.12,48.49L453.16,46.98L455.2,38.29L457.24,36.38L465.41,20.08L467.45,17.66L473.57,11.47L475.62,11.39L479.7,11.19L481.74,12.03L483.78,14.38L485.82,15.03L496.03,32.62L498.07,37.14L500.11,39.67L502.15,49.15L504.19,51.61L506.23,58.84L508.28,64.1L510.32,66.65L520.52,91.33L522.57,93.19L526.65,99.15L528.69,100.39L530.73,102.15L532.77,102.66L536.85,102.48L538.9,102.46L545.02,95.5L547.06,94.55L549.1,89.21L551.14,86.18L559.31,70.17L561.35,65.6L567.47,51.36L569.51,48.8L573.6,40.45L575.64,38.3L583.8,28.88L585.84,27.38L587.89,25.87L589.93,25.45L594.01,24.55L596.05,25.42L600.13,26.15L602.17,27.78L606.26,29.64L608.3,31.06L612.38,34.05L614.42,35.69" style="vector-effect: none; fill: none; stroke: rgb(45, 146, 255); stroke-opacity: 1; stroke-width: 2px; opacity: 1;"/></g><g class="points"/><g class="text"/></g></g></g><g class="overplot"/><path class="xlines-above crisp" d="M45.5,1011.75H691.5M45.5,858.098H691.5" style="fill: none; stroke-width: 1.5px; stroke: rgb(235, 240, 248); stroke-opacity: 1;"/><path class="ylines-above crisp" d="M46.25,858.848V1011M690.75,858.848V1011" style="fill: none; stroke-width: 1.5px; stroke: rgb(235, 240, 248); stroke-opacity: 1;"/><g class="overlines-above"/><g class="xaxislayer-above"><g class="x5tick"><text text-anchor="middle" x="0" y="1024.5" transform="translate(75.58,0)" style="font-family: 'Open Sans', verdana, arial, sans-serif; font-size: 10px; fill: rgb(42, 63, 95); fill-opacity: 1; white-space: pre; opacity: 1;">0</text></g><g class="x5tick"><text text-anchor="middle" x="0" y="1024.5" style="font-family: 'Open Sans', verdana, arial, sans-serif; font-size: 10px; fill: rgb(42, 63, 95); fill-opacity: 1; white-space: pre; opacity: 1;" transform="translate(100.07,0)">1</text></g><g class="x5tick"><text text-anchor="middle" x="0" y="1024.5" style="font-family: 'Open Sans', verdana, arial, sans-serif; font-size: 10px; fill: rgb(42, 63, 95); fill-opacity: 1; white-space: pre; opacity: 1;" transform="translate(124.57,0)">2</text></g><g class="x5tick"><text text-anchor="middle" x="0" y="1024.5" style="font-family: 'Open Sans', verdana, arial, sans-serif; font-size: 10px; fill: rgb(42, 63, 95); fill-opacity: 1; white-space: pre; opacity: 1;" transform="translate(149.06,0)">3</text></g><g class="x5tick"><text text-anchor="middle" x="0" y="1024.5" style="font-family: 'Open Sans', verdana, arial, sans-serif; font-size: 10px; fill: rgb(42, 63, 95); fill-opacity: 1; white-space: pre; opacity: 1;" transform="translate(173.56,0)">4</text></g><g class="x5tick"><text text-anchor="middle" x="0" y="1024.5" style="font-family: 'Open Sans', verdana, arial, sans-serif; font-size: 10px; fill: rgb(42, 63, 95); fill-opacity: 1; white-space: pre; opacity: 1;" transform="translate(198.05,0)">5</text></g><g class="x5tick"><text text-anchor="middle" x="0" y="1024.5" style="font-family: 'Open Sans', verdana, arial, sans-serif; font-size: 10px; fill: rgb(42, 63, 95); fill-opacity: 1; white-space: pre; opacity: 1;" transform="translate(222.55,0)">6</text></g><g class="x5tick"><text text-anchor="middle" x="0" y="1024.5" style="font-family: 'Open Sans', verdana, arial, sans-serif; font-size: 10px; fill: rgb(42, 63, 95); fill-opacity: 1; white-space: pre; opacity: 1;" transform="translate(247.04,0)">7</text></g><g class="x5tick"><text text-anchor="middle" x="0" y="1024.5" style="font-family: 'Open Sans', verdana, arial, sans-serif; font-size: 10px; fill: rgb(42, 63, 95); fill-opacity: 1; white-space: pre; opacity: 1;" transform="translate(271.53999999999996,0)">8</text></g><g class="x5tick"><text text-anchor="middle" x="0" y="1024.5" style="font-family: 'Open Sans', verdana, arial, sans-serif; font-size: 10px; fill: rgb(42, 63, 95); fill-opacity: 1; white-space: pre; opacity: 1;" transform="translate(296.03,0)">9</text></g><g class="x5tick"><text text-anchor="middle" x="0" y="1024.5" style="font-family: 'Open Sans', verdana, arial, sans-serif; font-size: 10px; fill: rgb(42, 63, 95); fill-opacity: 1; white-space: pre; opacity: 1;" transform="translate(320.53,0)">10</text></g><g class="x5tick"><text text-anchor="middle" x="0" y="1024.5" style="font-family: 'Open Sans', verdana, arial, sans-serif; font-size: 10px; fill: rgb(42, 63, 95); fill-opacity: 1; white-space: pre; opacity: 1;" transform="translate(345.03,0)">11</text></g><g class="x5tick"><text text-anchor="middle" x="0" y="1024.5" style="font-family: 'Open Sans', verdana, arial, sans-serif; font-size: 10px; fill: rgb(42, 63, 95); fill-opacity: 1; white-space: pre; opacity: 1;" transform="translate(369.52,0)">12</text></g><g class="x5tick"><text text-anchor="middle" x="0" y="1024.5" style="font-family: 'Open Sans', verdana, arial, sans-serif; font-size: 10px; fill: rgb(42, 63, 95); fill-opacity: 1; white-space: pre; opacity: 1;" transform="translate(394.02,0)">13</text></g><g class="x5tick"><text text-anchor="middle" x="0" y="1024.5" style="font-family: 'Open Sans', verdana, arial, sans-serif; font-size: 10px; fill: rgb(42, 63, 95); fill-opacity: 1; white-space: pre; opacity: 1;" transform="translate(418.51,0)">14</text></g><g class="x5tick"><text text-anchor="middle" x="0" y="1024.5" style="font-family: 'Open Sans', verdana, arial, sans-serif; font-size: 10px; fill: rgb(42, 63, 95); fill-opacity: 1; white-space: pre; opacity: 1;" transform="translate(443.01,0)">15</text></g><g class="x5tick"><text text-anchor="middle" x="0" y="1024.5" style="font-family: 'Open Sans', verdana, arial, sans-serif; font-size: 10px; fill: rgb(42, 63, 95); fill-opacity: 1; white-space: pre; opacity: 1;" transform="translate(467.5,0)">16</text></g><g class="x5tick"><text text-anchor="middle" x="0" y="1024.5" style="font-family: 'Open Sans', verdana, arial, sans-serif; font-size: 10px; fill: rgb(42, 63, 95); fill-opacity: 1; white-space: pre; opacity: 1;" transform="translate(492,0)">17</text></g><g class="x5tick"><text text-anchor="middle" x="0" y="1024.5" style="font-family: 'Open Sans', verdana, arial, sans-serif; font-size: 10px; fill: rgb(42, 63, 95); fill-opacity: 1; white-space: pre; opacity: 1;" transform="translate(516.49,0)">18</text></g><g class="x5tick"><text text-anchor="middle" x="0" y="1024.5" style="font-family: 'Open Sans', verdana, arial, sans-serif; font-size: 10px; fill: rgb(42, 63, 95); fill-opacity: 1; white-space: pre; opacity: 1;" transform="translate(540.99,0)">19</text></g><g class="x5tick"><text text-anchor="middle" x="0" y="1024.5" style="font-family: 'Open Sans', verdana, arial, sans-serif; font-size: 10px; fill: rgb(42, 63, 95); fill-opacity: 1; white-space: pre; opacity: 1;" transform="translate(565.48,0)">20</text></g><g class="x5tick"><text text-anchor="middle" x="0" y="1024.5" style="font-family: 'Open Sans', verdana, arial, sans-serif; font-size: 10px; fill: rgb(42, 63, 95); fill-opacity: 1; white-space: pre; opacity: 1;" transform="translate(589.98,0)">21</text></g><g class="x5tick"><text text-anchor="middle" x="0" y="1024.5" style="font-family: 'Open Sans', verdana, arial, sans-serif; font-size: 10px; fill: rgb(42, 63, 95); fill-opacity: 1; white-space: pre; opacity: 1;" transform="translate(614.47,0)">22</text></g><g class="x5tick"><text text-anchor="middle" x="0" y="1024.5" style="font-family: 'Open Sans', verdana, arial, sans-serif; font-size: 10px; fill: rgb(42, 63, 95); fill-opacity: 1; white-space: pre; opacity: 1;" transform="translate(638.97,0)">23</text></g><g class="x5tick"><text text-anchor="middle" x="0" y="1024.5" style="font-family: 'Open Sans', verdana, arial, sans-serif; font-size: 10px; fill: rgb(42, 63, 95); fill-opacity: 1; white-space: pre; opacity: 1;" transform="translate(663.46,0)">24</text></g></g><g class="yaxislayer-above"><g class="y5tick"><text text-anchor="end" x="43.5" y="3.5" transform="translate(0,981.838)" style="font-family: 'Open Sans', verdana, arial, sans-serif; font-size: 10px; fill: rgb(42, 63, 95); fill-opacity: 1; white-space: pre; opacity: 1;">−5</text></g><g class="y5tick"><text text-anchor="end" x="43.5" y="3.5" style="font-family: 'Open Sans', verdana, arial, sans-serif; font-size: 10px; fill: rgb(42, 63, 95); fill-opacity: 1; white-space: pre; opacity: 1;" transform="translate(0,922.1579999999999)">0</text></g><g class="y5tick"><text text-anchor="end" x="43.5" y="3.5" style="font-family: 'Open Sans', verdana, arial, sans-serif; font-size: 10px; fill: rgb(42, 63, 95); fill-opacity: 1; white-space: pre; opacity: 1;" transform="translate(0,862.468)">5</text></g></g><g class="overaxes-above"/></g></g><g class="polarlayer"/><g class="smithlayer"/><g class="ternarylayer"/><g class="geolayer"/><g class="funnelarealayer"/><g class="pielayer"/><g class="iciclelayer"/><g class="treemaplayer"/><g class="sunburstlayer"/><g class="glimages"/><defs id="topdefs-261bf7"><g class="clips"/></defs><g class="layer-above"><g class="imagelayer"/><g class="shapelayer"/></g><g class="infolayer"><g class="g-gtitle"/><g class="g-xtitle"><text class="xtitle" x="368.5" y="200.30625" text-anchor="middle" style="font-family: 'Open Sans', verdana, arial, sans-serif; font-size: 12px; fill: rgb(42, 63, 95); opacity: 1; font-weight: normal; white-space: pre;">ds</text></g><g class="g-x2title"><text class="x2title" x="368.5" y="412.525" text-anchor="middle" style="font-family: 'Open Sans', verdana, arial, sans-serif; font-size: 12px; fill: rgb(42, 63, 95); opacity: 1; font-weight: normal; white-space: pre;">Trend segment</text></g><g class="g-x3title"><text class="x3title" x="368.5" y="624.728125" text-anchor="middle" style="font-family: 'Open Sans', verdana, arial, sans-serif; font-size: 12px; fill: rgb(42, 63, 95); opacity: 1; font-weight: normal; white-space: pre;">Day of year</text></g><g class="g-x4title"><text class="x4title" x="368.5" y="836.946875" text-anchor="middle" style="font-family: 'Open Sans', verdana, arial, sans-serif; font-size: 12px; fill: rgb(42, 63, 95); opacity: 1; font-weight: normal; white-space: pre;">Day of week</text></g><g class="g-x5title" transform="translate(0,-2.150000000000091)"><text class="x5title" x="368.5" y="1049.15" text-anchor="middle" style="font-family: 'Open Sans', verdana, arial, sans-serif; font-size: 12px; fill: rgb(42, 63, 95); opacity: 1; font-weight: normal; white-space: pre;">Hour of day</text></g><g class="g-ytitle" transform="translate(9.9130859375,0)"><text class="ytitle" transform="rotate(-90,1.1000000000000014,86.07600000000001)" x="1.1000000000000014" y="86.07600000000001" text-anchor="middle" style="font-family: 'Open Sans', verdana, arial, sans-serif; font-size: 12px; fill: rgb(42, 63, 95); opacity: 1; font-weight: normal; white-space: pre;">Trend</text></g><g class="g-y2title" transform="translate(4.0634765625,0)"><text class="y2title" transform="rotate(-90,6.943750000000001,298.28800000000007)" x="6.943750000000001" y="298.28800000000007" text-anchor="middle" style="font-family: 'Open Sans', verdana, arial, sans-serif; font-size: 12px; fill: rgb(42, 63, 95); opacity: 1; font-weight: normal; white-space: pre;">Trend Rate Change</text></g><g class="g-y3title" transform="translate(1.556640625,0)"><text class="y3title" transform="rotate(-90,9.443750000000001,510.5)" x="9.443750000000001" y="510.5" text-anchor="middle" style="font-family: 'Open Sans', verdana, arial, sans-serif; font-size: 12px; fill: rgb(42, 63, 95); opacity: 1; font-weight: normal; white-space: pre;">Seasonality: yearly</text></g><g class="g-y4title" transform="translate(9.9091796875,0)"><text class="y4title" transform="rotate(-90,1.1000000000000014,722.712)" x="1.1000000000000014" y="722.712" text-anchor="middle" style="font-family: 'Open Sans', verdana, arial, sans-serif; font-size: 12px; fill: rgb(42, 63, 95); opacity: 1; font-weight: normal; white-space: pre;">Seasonality: weekly</text></g><g class="g-y5title" transform="translate(1.55859375,0)"><text class="y5title" transform="rotate(-90,9.443750000000001,934.924)" x="9.443750000000001" y="934.924" text-anchor="middle" style="font-family: 'Open Sans', verdana, arial, sans-serif; font-size: 12px; fill: rgb(42, 63, 95); opacity: 1; font-weight: normal; white-space: pre;">Seasonality: daily</text></g></g></svg>