<svg class="main-svg" xmlns="http://www.w3.org/2000/svg" xmlns:xlink="http://www.w3.org/1999/xlink" width="700" height="840" style="" viewBox="0 0 700 840"><rect x="0" y="0" width="700" height="840" style="fill: rgb(255, 255, 255); fill-opacity: 1;"/><defs id="defs-6017f1"><g class="clips"><clipPath id="clip6017f1xyplot" class="plotclip"><rect width="643" height="153.25625"/></clipPath><clipPath id="clip6017f1x2y2plot" class="plotclip"><rect width="643" height="153.25625"/></clipPath><clipPath id="clip6017f1x3y3plot" class="plotclip"><rect width="643" height="153.25625000000002"/></clipPath><clipPath id="clip6017f1x4y4plot" class="plotclip"><rect width="643" height="153.25625"/></clipPath><clipPath class="axesclip" id="clip6017f1x"><rect x="47" y="0" width="643" height="840"/></clipPath><clipPath class="axesclip" id="clip6017f1y"><rect x="0" y="10" width="700" height="153.25625"/></clipPath><clipPath class="axesclip" id="clip6017f1xy"><rect x="47" y="10" width="643" height="153.25625"/></clipPath><clipPath class="axesclip" id="clip6017f1y2"><rect x="0" y="222.58125000000004" width="700" height="153.25625"/></clipPath><clipPath class="axesclip" id="clip6017f1xy2"><rect x="47" y="222.58125000000004" width="643" height="153.25625"/></clipPath><clipPath class="axesclip" id="clip6017f1y3"><rect x="0" y="435.16249999999997" width="700" height="153.25625000000002"/></clipPath><clipPath class="axesclip" id="clip6017f1xy3"><rect x="47" y="435.16249999999997" width="643" height="153.25625000000002"/></clipPath><clipPath class="axesclip" id="clip6017f1y4"><rect x="0" y="647.74375" width="700" height="153.25625"/></clipPath><clipPath class="axesclip" id="clip6017f1xy4"><rect x="47" y="647.74375" width="643" height="153.25625"/></clipPath><clipPath class="axesclip" id="clip6017f1x2"><rect x="47" y="0" width="643" height="840"/></clipPath><clipPath class="axesclip" id="clip6017f1x2y"><rect x="47" y="10" width="643" height="153.25625"/></clipPath><clipPath class="axesclip" id="clip6017f1x2y2"><rect x="47" y="222.58125000000004" width="643" height="153.25625"/></clipPath><clipPath class="axesclip" id="clip6017f1x2y3"><rect x="47" y="435.16249999999997" width="643" height="153.25625000000002"/></clipPath><clipPath class="axesclip" id="clip6017f1x2y4"><rect x="47" y="647.74375" width="643" height="153.25625"/></clipPath><clipPath class="axesclip" id="clip6017f1x3"><rect x="47" y="0" width="643" height="840"/></clipPath><clipPath class="axesclip" id="clip6017f1x3y"><rect x="47" y="10" width="643" height="153.25625"/></clipPath><clipPath class="axesclip" id="clip6017f1x3y2"><rect x="47" y="222.58125000000004" width="643" height="153.25625"/></clipPath><clipPath class="axesclip" id="clip6017f1x3y3"><rect x="47" y="435.16249999999997" width="643" height="153.25625000000002"/></clipPath><clipPath class="axesclip" id="clip6017f1x3y4"><rect x="47" y="647.74375" width="643" height="153.25625"/></clipPath><clipPath class="axesclip" id="clip6017f1x4"><rect x="47" y="0" width="643" height="840"/></clipPath><clipPath class="axesclip" id="clip6017f1x4y"><rect x="47" y="10" width="643" height="153.25625"/></clipPath><clipPath class="axesclip" id="clip6017f1x4y2"><rect x="47" y="222.58125000000004" width="643" height="153.25625"/></clipPath><clipPath class="axesclip" id="clip6017f1x4y3"><rect x="47" y="435.16249999999997" width="643" height="153.25625000000002"/></clipPath><clipPath class="axesclip" id="clip6017f1x4y4"><rect x="47" y="647.74375" width="643" height="153.25625"/></clipPath></g><g class="gradients"/><g class="patterns"/></defs><g class="bglayer"/><g class="layer-below"><g class="imagelayer"/><g class="shapelayer"/></g><g class="cartesianlayer"><g class="subplot xy"><g class="layer-subplot"><g class="shapelayer"/><g class="imagelayer"/></g><g class="minor-gridlayer"><g class="x"/><g class="y"/></g><g class="gridlayer"><g class="x"><path class="xgrid crisp" transform="translate(77.53999999999999,0)" d="M0,10v153.25625" style="stroke: rgb(235, 240, 248); stroke-opacity: 1; stroke-width: 1px;"/><path class="xgrid crisp" transform="translate(172.38,0)" d="M0,10v153.25625" style="stroke: rgb(235, 240, 248); stroke-opacity: 1; stroke-width: 1px;"/><path class="xgrid crisp" transform="translate(270.44,0)" d="M0,10v153.25625" style="stroke: rgb(235, 240, 248); stroke-opacity: 1; stroke-width: 1px;"/><path class="xgrid crisp" transform="translate(368.5,0)" d="M0,10v153.25625" style="stroke: rgb(235, 240, 248); stroke-opacity: 1; stroke-width: 1px;"/><path class="xgrid crisp" transform="translate(468.17,0)" d="M0,10v153.25625" style="stroke: rgb(235, 240, 248); stroke-opacity: 1; stroke-width: 1px;"/><path class="xgrid crisp" transform="translate(566.22,0)" d="M0,10v153.25625" style="stroke: rgb(235, 240, 248); stroke-opacity: 1; stroke-width: 1px;"/><path class="xgrid crisp" transform="translate(664.28,0)" d="M0,10v153.25625" style="stroke: rgb(235, 240, 248); stroke-opacity: 1; stroke-width: 1px;"/></g><g class="y"><path class="ygrid crisp" transform="translate(0,158.16)" d="M47,0h643" style="stroke: rgb(235, 240, 248); stroke-opacity: 1; stroke-width: 1px;"/><path class="ygrid crisp" transform="translate(0,99.74)" d="M47,0h643" style="stroke: rgb(235, 240, 248); stroke-opacity: 1; stroke-width: 1px;"/><path class="ygrid crisp" transform="translate(0,41.33)" d="M47,0h643" style="stroke: rgb(235, 240, 248); stroke-opacity: 1; stroke-width: 1px;"/></g></g><g class="zerolinelayer"/><path class="xlines-below"/><path class="ylines-below"/><g class="overlines-below"/><g class="xaxislayer-below"/><g class="yaxislayer-below"/><g class="overaxes-below"/><g class="plot" transform="translate(47,10)" clip-path="url(#clip6017f1xyplot)"><g class="scatterlayer mlayer"><g class="trace scatter trace7cdeae" style="stroke-miterlimit: 2; opacity: 1;"><g class="fills"/><g class="errorbars"/><g class="lines"><path class="js-line" d="M28.93,145.59L614.06,7.66" style="vector-effect: none; fill: none; stroke: rgb(45, 146, 255); stroke-opacity: 1; stroke-width: 2px; opacity: 1;"/></g><g class="points"/><g class="text"/></g></g></g><g class="overplot"/><path class="xlines-above crisp" d="M45.5,164.00625H691.5M45.5,9.25H691.5" style="fill: none; stroke-width: 1.5px; stroke: rgb(235, 240, 248); stroke-opacity: 1;"/><path class="ylines-above crisp" d="M46.25,10V163.25625M690.75,10V163.25625" style="fill: none; stroke-width: 1.5px; stroke: rgb(235, 240, 248); stroke-opacity: 1;"/><g class="overlines-above"/><g class="xaxislayer-above"><g class="xtick"><text text-anchor="middle" x="0" y="176.75625" transform="translate(77.53999999999999,0)" style="font-family: 'Open Sans', verdana, arial, sans-serif; font-size: 10px; fill: rgb(42, 63, 95); fill-opacity: 1; white-space: pre; opacity: 1;">Jan 2023</text></g><g class="xtick"><text text-anchor="middle" x="0" y="176.75625" style="font-family: 'Open Sans', verdana, arial, sans-serif; font-size: 10px; fill: rgb(42, 63, 95); fill-opacity: 1; white-space: pre; opacity: 1;" transform="translate(172.38,0)">Mar 2023</text></g><g class="xtick"><text text-anchor="middle" x="0" y="176.75625" style="font-family: 'Open Sans', verdana, arial, sans-serif; font-size: 10px; fill: rgb(42, 63, 95); fill-opacity: 1; white-space: pre; opacity: 1;" transform="translate(270.44,0)">May 2023</text></g><g class="xtick"><text text-anchor="middle" x="0" y="176.75625" style="font-family: 'Open Sans', verdana, arial, sans-serif; font-size: 10px; fill: rgb(42, 63, 95); fill-opacity: 1; white-space: pre; opacity: 1;" transform="translate(368.5,0)">Jul 2023</text></g><g class="xtick"><text text-anchor="middle" x="0" y="176.75625" style="font-family: 'Open Sans', verdana, arial, sans-serif; font-size: 10px; fill: rgb(42, 63, 95); fill-opacity: 1; white-space: pre; opacity: 1;" transform="translate(468.17,0)">Sep 2023</text></g><g class="xtick"><text text-anchor="middle" x="0" y="176.75625" style="font-family: 'Open Sans', verdana, arial, sans-serif; font-size: 10px; fill: rgb(42, 63, 95); fill-opacity: 1; white-space: pre; opacity: 1;" transform="translate(566.22,0)">Nov 2023</text></g><g class="xtick"><text text-anchor="middle" x="0" y="176.75625" style="font-family: 'Open Sans', verdana, arial, sans-serif; font-size: 10px; fill: rgb(42, 63, 95); fill-opacity: 1; white-space: pre; opacity: 1;" transform="translate(664.28,0)">Jan 2024</text></g></g><g class="yaxislayer-above"><g class="ytick"><text text-anchor="end" x="43.5" y="3.5" transform="translate(0,158.16)" style="font-family: 'Open Sans', verdana, arial, sans-serif; font-size: 10px; fill: rgb(42, 63, 95); fill-opacity: 1; white-space: pre; opacity: 1;">0.2</text></g><g class="ytick"><text text-anchor="end" x="43.5" y="3.5" style="font-family: 'Open Sans', verdana, arial, sans-serif; font-size: 10px; fill: rgb(42, 63, 95); fill-opacity: 1; white-space: pre; opacity: 1;" transform="translate(0,99.74)">0.4</text></g><g class="ytick"><text text-anchor="end" x="43.5" y="3.5" style="font-family: 'Open Sans', verdana, arial, sans-serif; font-size: 10px; fill: rgb(42, 63, 95); fill-opacity: 1; white-space: pre; opacity: 1;" transform="translate(0,41.33)">0.6</text></g></g><g class="overaxes-above"/></g><g class="subplot x2y2"><g class="layer-subplot"><g class="shapelayer"/><g class="imagelayer"/></g><g class="minor-gridlayer"><g class="x2"/><g class="y2"/></g><g class="gridlayer"><g class="x2"><path class="x2grid crisp" transform="translate(77.53999999999999,0)" d="M0,222.58125000000004v153.25625" style="stroke: rgb(235, 240, 248); stroke-opacity: 1; stroke-width: 1px;"/><path class="x2grid crisp" transform="translate(172.38,0)" d="M0,222.58125000000004v153.25625" style="stroke: rgb(235, 240, 248); stroke-opacity: 1; stroke-width: 1px;"/><path class="x2grid crisp" transform="translate(270.44,0)" d="M0,222.58125000000004v153.25625" style="stroke: rgb(235, 240, 248); stroke-opacity: 1; stroke-width: 1px;"/><path class="x2grid crisp" transform="translate(368.5,0)" d="M0,222.58125000000004v153.25625" style="stroke: rgb(235, 240, 248); stroke-opacity: 1; stroke-width: 1px;"/><path class="x2grid crisp" transform="translate(468.17,0)" d="M0,222.58125000000004v153.25625" style="stroke: rgb(235, 240, 248); stroke-opacity: 1; stroke-width: 1px;"/><path class="x2grid crisp" transform="translate(566.22,0)" d="M0,222.58125000000004v153.25625" style="stroke: rgb(235, 240, 248); stroke-opacity: 1; stroke-width: 1px;"/><path class="x2grid crisp" transform="translate(664.28,0)" d="M0,222.58125000000004v153.25625" style="stroke: rgb(235, 240, 248); stroke-opacity: 1; stroke-width: 1px;"/></g><g class="y2"><path class="y2grid crisp" transform="translate(0,345.87125000000003)" d="M47,0h643" style="stroke: rgb(235, 240, 248); stroke-opacity: 1; stroke-width: 1px;"/><path class="y2grid crisp" transform="translate(0,254.09125000000003)" d="M47,0h643" style="stroke: rgb(235, 240, 248); stroke-opacity: 1; stroke-width: 1px;"/></g></g><g class="zerolinelayer"><path class="y2zl zl crisp" transform="translate(0,299.98125000000005)" d="M47,0h643" style="stroke: rgb(235, 240, 248); stroke-opacity: 1; stroke-width: 2px;"/></g><path class="xlines-below"/><path class="ylines-below"/><g class="overlines-below"/><g class="xaxislayer-below"/><g class="yaxislayer-below"/><g class="overaxes-below"/><g class="plot" transform="translate(47,222.58125000000004)" clip-path="url(#clip6017f1x2y2plot)"><g class="scatterlayer mlayer"><g class="trace scatter trace99a909" style="stroke-miterlimit: 2; opacity: 1;"><g class="fills"/><g class="errorbars"/><g class="lines"><path class="js-line" d="M28.93,60.77L45.01,43.26L46.62,41.71L56.26,33.39L57.87,32.19L67.51,26.16L69.12,25.33L78.77,21.34L80.38,20.81L93.24,17.43L94.84,17.08L139.85,7.98L141.46,7.84L151.1,7.87L152.71,8.03L162.36,10.08L163.97,10.6L173.61,14.73L175.22,15.57L188.08,23.34L189.68,24.4L210.58,37.28L212.19,38.1L223.44,42.87L225.05,43.41L237.91,46.7L239.52,47.02L262.02,52.01L263.63,52.55L273.27,56.6L274.88,57.43L284.53,63.44L286.13,64.6L297.39,73.79L298.99,75.22L335.97,108.64L337.58,109.86L350.43,118.49L352.04,119.42L364.9,126L366.51,126.72L384.19,133.76L385.8,134.34L408.31,141.57L409.91,142L422.77,144.71L424.38,144.93L435.63,145.58L437.24,145.53L446.88,144.36L448.49,144.03L458.14,141.15L459.74,140.54L471,135.32L472.6,134.47L509.58,114.39L511.18,113.74L522.44,110.1L524.04,109.72L536.9,107.58L538.51,107.4L561.02,104.28L562.63,103.87L572.27,100.41L573.88,99.64L581.92,94.89L583.52,93.76L593.17,85.72L594.77,84.18L606.03,72.31L607.63,70.49L614.06,63.1" style="vector-effect: none; fill: none; stroke: rgb(45, 146, 255); stroke-opacity: 1; stroke-width: 2px; opacity: 1;"/></g><g class="points"/><g class="text"/></g></g></g><g class="overplot"/><path class="xlines-above crisp" d="M45.5,376.58750000000003H691.5M45.5,221.83125000000004H691.5" style="fill: none; stroke-width: 1.5px; stroke: rgb(235, 240, 248); stroke-opacity: 1;"/><path class="ylines-above crisp" d="M46.25,222.58125000000004V375.83750000000003M690.75,222.58125000000004V375.83750000000003" style="fill: none; stroke-width: 1.5px; stroke: rgb(235, 240, 248); stroke-opacity: 1;"/><g class="overlines-above"/><g class="xaxislayer-above"><g class="x2tick"><text text-anchor="middle" x="0" y="389.33750000000003" transform="translate(77.53999999999999,0)" style="font-family: 'Open Sans', verdana, arial, sans-serif; font-size: 10px; fill: rgb(42, 63, 95); fill-opacity: 1; white-space: pre; opacity: 1;">Jan 2023</text></g><g class="x2tick"><text text-anchor="middle" x="0" y="389.33750000000003" style="font-family: 'Open Sans', verdana, arial, sans-serif; font-size: 10px; fill: rgb(42, 63, 95); fill-opacity: 1; white-space: pre; opacity: 1;" transform="translate(172.38,0)">Mar 2023</text></g><g class="x2tick"><text text-anchor="middle" x="0" y="389.33750000000003" style="font-family: 'Open Sans', verdana, arial, sans-serif; font-size: 10px; fill: rgb(42, 63, 95); fill-opacity: 1; white-space: pre; opacity: 1;" transform="translate(270.44,0)">May 2023</text></g><g class="x2tick"><text text-anchor="middle" x="0" y="389.33750000000003" style="font-family: 'Open Sans', verdana, arial, sans-serif; font-size: 10px; fill: rgb(42, 63, 95); fill-opacity: 1; white-space: pre; opacity: 1;" transform="translate(368.5,0)">Jul 2023</text></g><g class="x2tick"><text text-anchor="middle" x="0" y="389.33750000000003" style="font-family: 'Open Sans', verdana, arial, sans-serif; font-size: 10px; fill: rgb(42, 63, 95); fill-opacity: 1; white-space: pre; opacity: 1;" transform="translate(468.17,0)">Sep 2023</text></g><g class="x2tick"><text text-anchor="middle" x="0" y="389.33750000000003" style="font-family: 'Open Sans', verdana, arial, sans-serif; font-size: 10px; fill: rgb(42, 63, 95); fill-opacity: 1; white-space: pre; opacity: 1;" transform="translate(566.22,0)">Nov 2023</text></g><g class="x2tick"><text text-anchor="middle" x="0" y="389.33750000000003" style="font-family: 'Open Sans', verdana, arial, sans-serif; font-size: 10px; fill: rgb(42, 63, 95); fill-opacity: 1; white-space: pre; opacity: 1;" transform="translate(664.28,0)">Jan 2024</text></g></g><g class="yaxislayer-above"><g class="y2tick"><text text-anchor="end" x="43.5" y="3.5" transform="translate(0,345.87125000000003)" style="font-family: 'Open Sans', verdana, arial, sans-serif; font-size: 10px; fill: rgb(42, 63, 95); fill-opacity: 1; white-space: pre; opacity: 1;">−2</text></g><g class="y2tick"><text text-anchor="end" x="43.5" y="3.5" style="font-family: 'Open Sans', verdana, arial, sans-serif; font-size: 10px; fill: rgb(42, 63, 95); fill-opacity: 1; white-space: pre; opacity: 1;" transform="translate(0,299.98125000000005)">0</text></g><g class="y2tick"><text text-anchor="end" x="43.5" y="3.5" style="font-family: 'Open Sans', verdana, arial, sans-serif; font-size: 10px; fill: rgb(42, 63, 95); fill-opacity: 1; white-space: pre; opacity: 1;" transform="translate(0,254.09125000000003)">2</text></g></g><g class="overaxes-above"/></g><g class="subplot x3y3"><g class="layer-subplot"><g class="shapelayer"/><g class="imagelayer"/></g><g class="minor-gridlayer"><g class="x3"/><g class="y3"/></g><g class="gridlayer"><g class="x3"><path class="x3grid crisp" transform="translate(77.53999999999999,0)" d="M0,435.16249999999997v153.25625000000002" style="stroke: rgb(235, 240, 248); stroke-opacity: 1; stroke-width: 1px;"/><path class="x3grid crisp" transform="translate(172.38,0)" d="M0,435.16249999999997v153.25625000000002" style="stroke: rgb(235, 240, 248); stroke-opacity: 1; stroke-width: 1px;"/><path class="x3grid crisp" transform="translate(270.44,0)" d="M0,435.16249999999997v153.25625000000002" style="stroke: rgb(235, 240, 248); stroke-opacity: 1; stroke-width: 1px;"/><path class="x3grid crisp" transform="translate(368.5,0)" d="M0,435.16249999999997v153.25625000000002" style="stroke: rgb(235, 240, 248); stroke-opacity: 1; stroke-width: 1px;"/><path class="x3grid crisp" transform="translate(468.17,0)" d="M0,435.16249999999997v153.25625000000002" style="stroke: rgb(235, 240, 248); stroke-opacity: 1; stroke-width: 1px;"/><path class="x3grid crisp" transform="translate(566.22,0)" d="M0,435.16249999999997v153.25625000000002" style="stroke: rgb(235, 240, 248); stroke-opacity: 1; stroke-width: 1px;"/><path class="x3grid crisp" transform="translate(664.28,0)" d="M0,435.16249999999997v153.25625000000002" style="stroke: rgb(235, 240, 248); stroke-opacity: 1; stroke-width: 1px;"/></g><g class="y3"><path class="y3grid crisp" transform="translate(0,586.7925)" d="M47,0h643" style="stroke: rgb(235, 240, 248); stroke-opacity: 1; stroke-width: 1px;"/><path class="y3grid crisp" transform="translate(0,550.4625)" d="M47,0h643" style="stroke: rgb(235, 240, 248); stroke-opacity: 1; stroke-width: 1px;"/><path class="y3grid crisp" transform="translate(0,477.81249999999994)" d="M47,0h643" style="stroke: rgb(235, 240, 248); stroke-opacity: 1; stroke-width: 1px;"/><path class="y3grid crisp" transform="translate(0,441.49249999999995)" d="M47,0h643" style="stroke: rgb(235, 240, 248); stroke-opacity: 1; stroke-width: 1px;"/></g></g><g class="zerolinelayer"><path class="y3zl zl crisp" transform="translate(0,514.1424999999999)" d="M47,0h643" style="stroke: rgb(235, 240, 248); stroke-opacity: 1; stroke-width: 2px;"/></g><path class="xlines-below"/><path class="ylines-below"/><g class="overlines-below"/><g class="xaxislayer-below"/><g class="yaxislayer-below"/><g class="overaxes-below"/><g class="plot" transform="translate(47,435.16249999999997)" clip-path="url(#clip6017f1x3y3plot)"><g class="scatterlayer mlayer"><g class="trace scatter trace49995d" style="stroke-miterlimit: 2; opacity: 1;"><g class="fills"/><g class="errorbars"/><g class="lines"><path class="js-line" d="M28.93,145.58L30.54,136.55L32.15,80.42L33.76,21.67L35.36,7.7L40.19,145.58L41.79,136.55L45.01,21.67L46.62,7.66L51.44,145.58L53.05,136.55L56.26,21.67L57.87,7.66L62.69,145.58L64.3,136.55L67.51,21.67L69.12,7.7L73.94,145.58L75.55,136.54L78.77,21.67L80.38,7.67L85.2,145.58L86.81,136.62L90.02,21.66L91.63,7.66L96.45,145.58L98.06,136.54L101.27,21.67L102.88,7.66L107.7,145.58L109.31,136.54L112.52,21.67L114.13,7.71L118.95,145.58L120.56,136.54L123.78,21.66L125.38,7.67L130.21,145.58L131.81,136.62L135.03,21.66L136.64,7.67L141.46,145.58L143.07,136.54L146.28,21.66L147.89,7.67L152.71,145.58L154.32,136.54L157.53,21.66L159.14,7.71L163.97,145.58L165.57,136.54L168.79,21.66L170.4,7.67L175.22,145.58L176.83,136.62L180.04,21.66L181.65,7.67L186.47,145.58L188.08,136.54L191.29,21.66L192.9,7.67L197.72,145.58L199.33,136.54L202.54,21.66L204.15,7.71L208.97,145.58L210.58,136.54L213.8,21.66L215.4,7.67L220.23,145.58L221.83,136.61L225.05,21.66L226.66,7.67L231.48,145.58L233.09,136.53L236.3,21.75L237.91,7.67L242.73,145.58L244.34,136.53L247.56,21.66L249.16,7.67L253.99,145.58L255.59,136.61L258.81,21.65L260.42,7.67L265.24,145.58L266.85,136.61L270.06,21.65L271.67,7.67L276.49,145.58L278.1,136.53L281.31,21.75L282.92,7.67L287.74,145.58L289.35,136.53L292.56,21.65L294.17,7.67L298.99,145.59L300.6,136.61L303.82,21.65L305.42,7.67L310.25,145.59L311.85,136.61L315.07,21.65L316.68,7.67L321.5,145.59L323.11,136.53L326.32,21.74L327.93,7.67L332.75,145.58L334.36,136.53L337.58,21.65L339.18,7.67L344.01,145.59L345.61,136.61L348.83,21.65L350.43,7.67L355.26,145.59L356.86,136.6L360.08,21.65L361.69,7.67L366.51,145.59L368.12,136.53L371.33,21.74L372.94,7.68L377.76,145.59L379.37,136.53L382.58,21.64L384.19,7.68L389.01,145.59L390.62,136.6L393.84,21.65L395.44,7.67L400.27,145.59L401.88,136.6L405.09,21.64L406.7,7.67L411.52,145.59L413.13,136.52L416.34,21.74L417.95,7.68L422.77,145.59L424.38,136.6L427.6,21.64L429.2,7.68L434.02,145.59L435.63,136.6L438.85,21.64L440.45,7.68L445.28,145.59L446.88,136.6L450.1,21.73L451.71,7.68L456.53,145.59L458.14,136.52L461.35,21.73L462.96,7.67L467.78,145.59L469.39,136.6L472.6,21.64L474.21,7.68L479.03,145.59L480.64,136.6L483.86,21.64L485.47,7.68L490.29,145.59L491.9,136.6L495.11,21.73L496.72,7.68L501.54,145.59L503.15,136.52L506.36,21.73L507.97,7.68L512.79,145.59L514.4,136.59L517.61,21.64L519.22,7.68L524.04,145.59L525.65,136.59L528.87,21.63L530.47,7.68L535.3,145.59L536.9,136.59L540.12,21.73L541.73,7.68L546.55,145.59L548.16,136.51L551.37,21.73L552.98,7.68L557.8,145.59L559.41,136.59L562.63,21.63L564.23,7.68L569.06,145.59L570.66,136.59L573.88,21.63L575.49,7.68L580.31,145.59L581.92,136.59L585.13,21.73L586.74,7.68L591.56,145.59L593.17,136.59L596.38,21.72L597.99,7.68L602.81,145.59L604.42,136.59L607.63,21.63L609.24,7.68L614.06,145.59" style="vector-effect: none; fill: none; stroke: rgb(45, 146, 255); stroke-opacity: 1; stroke-width: 2px; opacity: 1;"/></g><g class="points"/><g class="text"/></g></g></g><g class="overplot"/><path class="xlines-above crisp" d="M45.5,589.16875H691.5M45.5,434.41249999999997H691.5" style="fill: none; stroke-width: 1.5px; stroke: rgb(235, 240, 248); stroke-opacity: 1;"/><path class="ylines-above crisp" d="M46.25,435.16249999999997V588.41875M690.75,435.16249999999997V588.41875" style="fill: none; stroke-width: 1.5px; stroke: rgb(235, 240, 248); stroke-opacity: 1;"/><g class="overlines-above"/><g class="xaxislayer-above"><g class="x3tick"><text text-anchor="middle" x="0" y="601.91875" transform="translate(77.53999999999999,0)" style="font-family: 'Open Sans', verdana, arial, sans-serif; font-size: 10px; fill: rgb(42, 63, 95); fill-opacity: 1; white-space: pre; opacity: 1;">Jan 2023</text></g><g class="x3tick"><text text-anchor="middle" x="0" y="601.91875" style="font-family: 'Open Sans', verdana, arial, sans-serif; font-size: 10px; fill: rgb(42, 63, 95); fill-opacity: 1; white-space: pre; opacity: 1;" transform="translate(172.38,0)">Mar 2023</text></g><g class="x3tick"><text text-anchor="middle" x="0" y="601.91875" style="font-family: 'Open Sans', verdana, arial, sans-serif; font-size: 10px; fill: rgb(42, 63, 95); fill-opacity: 1; white-space: pre; opacity: 1;" transform="translate(270.44,0)">May 2023</text></g><g class="x3tick"><text text-anchor="middle" x="0" y="601.91875" style="font-family: 'Open Sans', verdana, arial, sans-serif; font-size: 10px; fill: rgb(42, 63, 95); fill-opacity: 1; white-space: pre; opacity: 1;" transform="translate(368.5,0)">Jul 2023</text></g><g class="x3tick"><text text-anchor="middle" x="0" y="601.91875" style="font-family: 'Open Sans', verdana, arial, sans-serif; font-size: 10px; fill: rgb(42, 63, 95); fill-opacity: 1; white-space: pre; opacity: 1;" transform="translate(468.17,0)">Sep 2023</text></g><g class="x3tick"><text text-anchor="middle" x="0" y="601.91875" style="font-family: 'Open Sans', verdana, arial, sans-serif; font-size: 10px; fill: rgb(42, 63, 95); fill-opacity: 1; white-space: pre; opacity: 1;" transform="translate(566.22,0)">Nov 2023</text></g><g class="x3tick"><text text-anchor="middle" x="0" y="601.91875" style="font-family: 'Open Sans', verdana, arial, sans-serif; font-size: 10px; fill: rgb(42, 63, 95); fill-opacity: 1; white-space: pre; opacity: 1;" transform="translate(664.28,0)">Jan 2024</text></g></g><g class="yaxislayer-above"><g class="y3tick"><text text-anchor="end" x="43.5" y="3.5" transform="translate(0,586.7925)" style="font-family: 'Open Sans', verdana, arial, sans-serif; font-size: 10px; fill: rgb(42, 63, 95); fill-opacity: 1; white-space: pre; opacity: 1;">−1</text></g><g class="y3tick"><text text-anchor="end" x="43.5" y="3.5" style="font-family: 'Open Sans', verdana, arial, sans-serif; font-size: 10px; fill: rgb(42, 63, 95); fill-opacity: 1; white-space: pre; opacity: 1;" transform="translate(0,550.4625)">−0.5</text></g><g class="y3tick"><text text-anchor="end" x="43.5" y="3.5" style="font-family: 'Open Sans', verdana, arial, sans-serif; font-size: 10px; fill: rgb(42, 63, 95); fill-opacity: 1; white-space: pre; opacity: 1;" transform="translate(0,514.1424999999999)">0</text></g><g class="y3tick"><text text-anchor="end" x="43.5" y="3.5" style="font-family: 'Open Sans', verdana, arial, sans-serif; font-size: 10px; fill: rgb(42, 63, 95); fill-opacity: 1; white-space: pre; opacity: 1;" transform="translate(0,477.81249999999994)">0.5</text></g><g class="y3tick"><text text-anchor="end" x="43.5" y="3.5" style="font-family: 'Open Sans', verdana, arial, sans-serif; font-size: 10px; fill: rgb(42, 63, 95); fill-opacity: 1; white-space: pre; opacity: 1;" transform="translate(0,441.49249999999995)">1</text></g></g><g class="overaxes-above"/></g><g class="subplot x4y4"><g class="layer-subplot"><g class="shapelayer"/><g class="imagelayer"/></g><g class="minor-gridlayer"><g class="x4"/><g class="y4"/></g><g class="gridlayer"><g class="x4"><path class="x4grid crisp" transform="translate(77.53999999999999,0)" d="M0,647.74375v153.25625" style="stroke: rgb(235, 240, 248); stroke-opacity: 1; stroke-width: 1px;"/><path class="x4grid crisp" transform="translate(172.38,0)" d="M0,647.74375v153.25625" style="stroke: rgb(235, 240, 248); stroke-opacity: 1; stroke-width: 1px;"/><path class="x4grid crisp" transform="translate(270.44,0)" d="M0,647.74375v153.25625" style="stroke: rgb(235, 240, 248); stroke-opacity: 1; stroke-width: 1px;"/><path class="x4grid crisp" transform="translate(368.5,0)" d="M0,647.74375v153.25625" style="stroke: rgb(235, 240, 248); stroke-opacity: 1; stroke-width: 1px;"/><path class="x4grid crisp" transform="translate(468.17,0)" d="M0,647.74375v153.25625" style="stroke: rgb(235, 240, 248); stroke-opacity: 1; stroke-width: 1px;"/><path class="x4grid crisp" transform="translate(566.22,0)" d="M0,647.74375v153.25625" style="stroke: rgb(235, 240, 248); stroke-opacity: 1; stroke-width: 1px;"/><path class="x4grid crisp" transform="translate(664.28,0)" d="M0,647.74375v153.25625" style="stroke: rgb(235, 240, 248); stroke-opacity: 1; stroke-width: 1px;"/></g><g class="y4"><path class="y4grid crisp" transform="translate(0,767.70375)" d="M47,0h643" style="stroke: rgb(235, 240, 248); stroke-opacity: 1; stroke-width: 1px;"/><path class="y4grid crisp" transform="translate(0,734.4137499999999)" d="M47,0h643" style="stroke: rgb(235, 240, 248); stroke-opacity: 1; stroke-width: 1px;"/><path class="y4grid crisp" transform="translate(0,701.12375)" d="M47,0h643" style="stroke: rgb(235, 240, 248); stroke-opacity: 1; stroke-width: 1px;"/><path class="y4grid crisp" transform="translate(0,667.83375)" d="M47,0h643" style="stroke: rgb(235, 240, 248); stroke-opacity: 1; stroke-width: 1px;"/></g></g><g class="zerolinelayer"/><path class="xlines-below"/><path class="ylines-below"/><g class="overlines-below"/><g class="xaxislayer-below"/><g class="yaxislayer-below"/><g class="overaxes-below"/><g class="plot" transform="translate(47,647.74375)" clip-path="url(#clip6017f1x4y4plot)"><g class="scatterlayer mlayer"><g class="trace scatter trace9cb032" style="stroke-miterlimit: 2; opacity: 1;"><g class="fills"/><g class="errorbars"/><g class="lines"><path class="js-line" d="M28.93,10.85L33.76,8.45L35.36,10.87L40.19,8.42L41.79,10.9L46.62,8.62L48.22,10.71L54.65,7.94L56.26,9.92L61.08,7.85L62.69,10.23L67.51,7.82L69.12,10.26L73.94,7.8L75.55,10.11L80.38,7.99L81.98,10.36L86.81,8L88.41,10.32L93.24,7.9L94.84,10.29L99.67,7.82L101.27,10.28L106.1,8.16L107.7,10.44L112.52,8.06L114.13,10.45L118.95,8.02L120.56,10.48L125.38,8.01L126.99,10.32L131.81,8.2L133.42,10.59L138.24,8.21L139.85,10.53L144.67,8.1L146.28,10.5L151.1,8.33L152.71,10.49L157.53,8.38L159.14,10.66L163.97,8.27L165.57,10.67L170.4,8.23L172,10.7L176.83,8.54L178.43,10.53L183.26,8.42L184.86,10.82L189.68,8.43L191.29,10.75L196.11,8.3L197.72,10.72L202.54,8.55L204.15,10.7L208.97,8.61L210.58,10.88L215.4,8.47L217.01,10.89L221.83,8.44L223.44,10.81L228.26,8.64L229.87,10.73L236.3,7.96L237.91,9.94L242.73,7.87L244.34,10.25L249.16,7.84L250.77,10.28L255.59,7.82L257.2,10.14L262.02,8.01L263.63,10.38L268.45,8.02L270.06,10.34L274.88,7.92L276.49,10.31L281.31,7.84L282.92,10.3L287.74,8.18L289.35,10.46L294.17,8.08L295.78,10.47L300.6,8.05L302.21,10.5L307.03,8.33L308.64,10.34L313.46,8.22L315.07,10.61L319.89,8.24L321.5,10.56L326.32,8.12L327.93,10.53L332.75,8.35L334.36,10.51L339.18,8.41L340.79,10.68L345.61,8.29L347.22,10.69L352.04,8.25L353.65,10.72L358.47,8.56L360.08,10.55L364.9,8.44L366.51,10.84L371.33,8.45L372.94,10.77L377.76,8.32L379.37,10.74L384.19,8.58L385.8,10.72L390.62,8.63L392.23,10.9L397.05,8.5L398.66,10.91L403.48,8.46L405.09,10.83L411.52,7.66L413.13,10.11L417.95,7.98L419.56,9.96L424.38,7.89L425.99,10.27L430.81,7.86L432.42,10.31L437.24,7.85L438.85,10.16L443.67,8.03L445.28,10.41L450.1,8.04L451.71,10.37L456.53,7.94L458.14,10.34L462.96,7.86L464.57,10.32L469.39,8.21L471,10.48L475.82,8.1L477.43,10.5L482.25,8.07L483.86,10.53L488.68,8.35L490.29,10.36L495.11,8.25L496.72,10.64L501.54,8.26L503.15,10.58L507.97,8.14L509.58,10.55L514.4,8.38L516.01,10.53L520.83,8.43L522.44,10.7L527.26,8.31L528.87,10.72L533.69,8.28L535.3,10.75L540.12,8.47L541.73,10.57L546.55,8.46L548.16,10.87L552.98,8.47L554.59,10.79L559.41,8.34L561.02,10.76L565.84,8.6L567.45,10.75L572.27,8.65L573.88,10.93L578.7,8.52L580.31,10.94L585.13,8.48L586.74,10.85L593.17,7.68L594.77,10.13L599.6,8.01L601.2,10.28L606.03,7.92L607.63,10.3L612.46,7.88L614.06,10.33" style="vector-effect: none; fill: none; stroke: rgb(45, 146, 255); stroke-opacity: 1; stroke-width: 2px; opacity: 1;"/></g><g class="points"/><g class="text"/></g></g></g><g class="overplot"/><path class="xlines-above crisp" d="M45.5,801.75H691.5M45.5,646.99375H691.5" style="fill: none; stroke-width: 1.5px; stroke: rgb(235, 240, 248); stroke-opacity: 1;"/><path class="ylines-above crisp" d="M46.25,647.74375V801M690.75,647.74375V801" style="fill: none; stroke-width: 1.5px; stroke: rgb(235, 240, 248); stroke-opacity: 1;"/><g class="overlines-above"/><g class="xaxislayer-above"><g class="x4tick"><text text-anchor="middle" x="0" y="814.5" transform="translate(77.53999999999999,0)" style="font-family: 'Open Sans', verdana, arial, sans-serif; font-size: 10px; fill: rgb(42, 63, 95); fill-opacity: 1; white-space: pre; opacity: 1;">Jan 2023</text></g><g class="x4tick"><text text-anchor="middle" x="0" y="814.5" style="font-family: 'Open Sans', verdana, arial, sans-serif; font-size: 10px; fill: rgb(42, 63, 95); fill-opacity: 1; white-space: pre; opacity: 1;" transform="translate(172.38,0)">Mar 2023</text></g><g class="x4tick"><text text-anchor="middle" x="0" y="814.5" style="font-family: 'Open Sans', verdana, arial, sans-serif; font-size: 10px; fill: rgb(42, 63, 95); fill-opacity: 1; white-space: pre; opacity: 1;" transform="translate(270.44,0)">May 2023</text></g><g class="x4tick"><text text-anchor="middle" x="0" y="814.5" style="font-family: 'Open Sans', verdana, arial, sans-serif; font-size: 10px; fill: rgb(42, 63, 95); fill-opacity: 1; white-space: pre; opacity: 1;" transform="translate(368.5,0)">Jul 2023</text></g><g class="x4tick"><text text-anchor="middle" x="0" y="814.5" style="font-family: 'Open Sans', verdana, arial, sans-serif; font-size: 10px; fill: rgb(42, 63, 95); fill-opacity: 1; white-space: pre; opacity: 1;" transform="translate(468.17,0)">Sep 2023</text></g><g class="x4tick"><text text-anchor="middle" x="0" y="814.5" style="font-family: 'Open Sans', verdana, arial, sans-serif; font-size: 10px; fill: rgb(42, 63, 95); fill-opacity: 1; white-space: pre; opacity: 1;" transform="translate(566.22,0)">Nov 2023</text></g><g class="x4tick"><text text-anchor="middle" x="0" y="814.5" style="font-family: 'Open Sans', verdana, arial, sans-serif; font-size: 10px; fill: rgb(42, 63, 95); fill-opacity: 1; white-space: pre; opacity: 1;" transform="translate(664.28,0)">Jan 2024</text></g></g><g class="yaxislayer-above"><g class="y4tick"><text text-anchor="end" x="43.5" y="3.5" transform="translate(0,801.00375)" style="font-family: 'Open Sans', verdana, arial, sans-serif; font-size: 10px; fill: rgb(42, 63, 95); fill-opacity: 1; white-space: pre; opacity: 1;">0</text></g><g class="y4tick"><text text-anchor="end" x="43.5" y="3.5" style="font-family: 'Open Sans', verdana, arial, sans-serif; font-size: 10px; fill: rgb(42, 63, 95); fill-opacity: 1; white-space: pre; opacity: 1;" transform="translate(0,767.70375)">0.5</text></g><g class="y4tick"><text text-anchor="end" x="43.5" y="3.5" style="font-family: 'Open Sans', verdana, arial, sans-serif; font-size: 10px; fill: rgb(42, 63, 95); fill-opacity: 1; white-space: pre; opacity: 1;" transform="translate(0,734.4137499999999)">1</text></g><g class="y4tick"><text text-anchor="end" x="43.5" y="3.5" style="font-family: 'Open Sans', verdana, arial, sans-serif; font-size: 10px; fill: rgb(42, 63, 95); fill-opacity: 1; white-space: pre; opacity: 1;" transform="translate(0,701.12375)">1.5</text></g><g class="y4tick"><text text-anchor="end" x="43.5" y="3.5" style="font-family: 'Open Sans', verdana, arial, sans-serif; font-size: 10px; fill: rgb(42, 63, 95); fill-opacity: 1; white-space: pre; opacity: 1;" transform="translate(0,667.83375)">2</text></g></g><g class="overaxes-above"/></g></g><g class="polarlayer"/><g class="smithlayer"/><g class="ternarylayer"/><g class="geolayer"/><g class="funnelarealayer"/><g class="pielayer"/><g class="iciclelayer"/><g class="treemaplayer"/><g class="sunburstlayer"/><g class="glimages"/><defs id="topdefs-6017f1"><g class="clips"/></defs><g class="layer-above"><g class="imagelayer"/><g class="shapelayer"/></g><g class="infolayer"><g class="g-gtitle"/><g class="g-xtitle"><text class="xtitle" x="368.5" y="201.415625" text-anchor="middle" style="font-family: 'Open Sans', verdana, arial, sans-serif; font-size: 12px; fill: rgb(42, 63, 95); opacity: 1; font-weight: normal; white-space: pre;">ds</text></g><g class="g-x2title"><text class="x2title" x="368.5" y="413.99375" text-anchor="middle" style="font-family: 'Open Sans', verdana, arial, sans-serif; font-size: 12px; fill: rgb(42, 63, 95); opacity: 1; font-weight: normal; white-space: pre;">ds</text></g><g class="g-x3title"><text class="x3title" x="368.5" y="626.571875" text-anchor="middle" style="font-family: 'Open Sans', verdana, arial, sans-serif; font-size: 12px; fill: rgb(42, 63, 95); opacity: 1; font-weight: normal; white-space: pre;">ds</text></g><g class="g-x4title" transform="translate(0,-2.1499999999999773)"><text class="x4title" x="368.5" y="839.15" text-anchor="middle" style="font-family: 'Open Sans', verdana, arial, sans-serif; font-size: 12px; fill: rgb(42, 63, 95); opacity: 1; font-weight: normal; white-space: pre;">ds</text></g><g class="g-ytitle" transform="translate(4.0595703125,0)"><text class="ytitle" transform="rotate(-90,6.943750000000001,86.628125)" x="6.943750000000001" y="86.628125" text-anchor="middle" style="font-family: 'Open Sans', verdana, arial, sans-serif; font-size: 12px; fill: rgb(42, 63, 95); opacity: 1; font-weight: normal; white-space: pre;">Trend</text></g><g class="g-y2title" transform="translate(1.5625,0)"><text class="y2title" transform="rotate(-90,9.443750000000001,299.209375)" x="9.443750000000001" y="299.209375" text-anchor="middle" style="font-family: 'Open Sans', verdana, arial, sans-serif; font-size: 12px; fill: rgb(42, 63, 95); opacity: 1; font-weight: normal; white-space: pre;">yearly seasonality</text></g><g class="g-y3title" transform="translate(9.9091796875,0)"><text class="y3title" transform="rotate(-90,1.1000000000000014,511.790625)" x="1.1000000000000014" y="511.790625" text-anchor="middle" style="font-family: 'Open Sans', verdana, arial, sans-serif; font-size: 12px; fill: rgb(42, 63, 95); opacity: 1; font-weight: normal; white-space: pre;">weekly seasonality</text></g><g class="g-y4title" transform="translate(4.068359375,0)"><text class="y4title" transform="rotate(-90,6.943750000000001,724.3718749999999)" x="6.943750000000001" y="724.3718749999999" text-anchor="middle" style="font-family: 'Open Sans', verdana, arial, sans-serif; font-size: 12px; fill: rgb(42, 63, 95); opacity: 1; font-weight: normal; white-space: pre;">daily seasonality</text></g></g></svg>