<svg class="main-svg" xmlns="http://www.w3.org/2000/svg" xmlns:xlink="http://www.w3.org/1999/xlink" width="700" height="840" style="" viewBox="0 0 700 840"><rect x="0" y="0" width="700" height="840" style="fill: rgb(255, 255, 255); fill-opacity: 1;"/><defs id="defs-2ac51c"><g class="clips"><clipPath id="clip2ac51cxyplot" class="plotclip"><rect width="643" height="153.25625"/></clipPath><clipPath id="clip2ac51cx2y2plot" class="plotclip"><rect width="643" height="153.25625"/></clipPath><clipPath id="clip2ac51cx3y3plot" class="plotclip"><rect width="643" height="153.25625000000002"/></clipPath><clipPath id="clip2ac51cx4y4plot" class="plotclip"><rect width="643" height="153.25625"/></clipPath><clipPath class="axesclip" id="clip2ac51cx"><rect x="47" y="0" width="643" height="840"/></clipPath><clipPath class="axesclip" id="clip2ac51cy"><rect x="0" y="10" width="700" height="153.25625"/></clipPath><clipPath class="axesclip" id="clip2ac51cxy"><rect x="47" y="10" width="643" height="153.25625"/></clipPath><clipPath class="axesclip" id="clip2ac51cy2"><rect x="0" y="222.58125000000004" width="700" height="153.25625"/></clipPath><clipPath class="axesclip" id="clip2ac51cxy2"><rect x="47" y="222.58125000000004" width="643" height="153.25625"/></clipPath><clipPath class="axesclip" id="clip2ac51cy3"><rect x="0" y="435.16249999999997" width="700" height="153.25625000000002"/></clipPath><clipPath class="axesclip" id="clip2ac51cxy3"><rect x="47" y="435.16249999999997" width="643" height="153.25625000000002"/></clipPath><clipPath class="axesclip" id="clip2ac51cy4"><rect x="0" y="647.74375" width="700" height="153.25625"/></clipPath><clipPath class="axesclip" id="clip2ac51cxy4"><rect x="47" y="647.74375" width="643" height="153.25625"/></clipPath><clipPath class="axesclip" id="clip2ac51cx2"><rect x="47" y="0" width="643" height="840"/></clipPath><clipPath class="axesclip" id="clip2ac51cx2y"><rect x="47" y="10" width="643" height="153.25625"/></clipPath><clipPath class="axesclip" id="clip2ac51cx2y2"><rect x="47" y="222.58125000000004" width="643" height="153.25625"/></clipPath><clipPath class="axesclip" id="clip2ac51cx2y3"><rect x="47" y="435.16249999999997" width="643" height="153.25625000000002"/></clipPath><clipPath class="axesclip" id="clip2ac51cx2y4"><rect x="47" y="647.74375" width="643" height="153.25625"/></clipPath><clipPath class="axesclip" id="clip2ac51cx3"><rect x="47" y="0" width="643" height="840"/></clipPath><clipPath class="axesclip" id="clip2ac51cx3y"><rect x="47" y="10" width="643" height="153.25625"/></clipPath><clipPath class="axesclip" id="clip2ac51cx3y2"><rect x="47" y="222.58125000000004" width="643" height="153.25625"/></clipPath><clipPath class="axesclip" id="clip2ac51cx3y3"><rect x="47" y="435.16249999999997" width="643" height="153.25625000000002"/></clipPath><clipPath class="axesclip" id="clip2ac51cx3y4"><rect x="47" y="647.74375" width="643" height="153.25625"/></clipPath><clipPath class="axesclip" id="clip2ac51cx4"><rect x="47" y="0" width="643" height="840"/></clipPath><clipPath class="axesclip" id="clip2ac51cx4y"><rect x="47" y="10" width="643" height="153.25625"/></clipPath><clipPath class="axesclip" id="clip2ac51cx4y2"><rect x="47" y="222.58125000000004" width="643" height="153.25625"/></clipPath><clipPath class="axesclip" id="clip2ac51cx4y3"><rect x="47" y="435.16249999999997" width="643" height="153.25625000000002"/></clipPath><clipPath class="axesclip" id="clip2ac51cx4y4"><rect x="47" y="647.74375" width="643" height="153.25625"/></clipPath></g><g class="gradients"/><g class="patterns"/></defs><g class="bglayer"/><g class="layer-below"><g class="imagelayer"/><g class="shapelayer"/></g><g class="cartesianlayer"><g class="subplot xy"><g class="layer-subplot"><g class="shapelayer"/><g class="imagelayer"/></g><g class="minor-gridlayer"><g class="x"/><g class="y"/></g><g class="gridlayer"><g class="x"><path class="xgrid crisp" transform="translate(80.53999999999999,0)" d="M0,10v153.25625" style="stroke: rgb(235, 240, 248); stroke-opacity: 1; stroke-width: 1px;"/><path class="xgrid crisp" transform="translate(152.75,0)" d="M0,10v153.25625" style="stroke: rgb(235, 240, 248); stroke-opacity: 1; stroke-width: 1px;"/><path class="xgrid crisp" transform="translate(224.77,0)" d="M0,10v153.25625" style="stroke: rgb(235, 240, 248); stroke-opacity: 1; stroke-width: 1px;"/><path class="xgrid crisp" transform="translate(296.78,0)" d="M0,10v153.25625" style="stroke: rgb(235, 240, 248); stroke-opacity: 1; stroke-width: 1px;"/><path class="xgrid crisp" transform="translate(368.8,0)" d="M0,10v153.25625" style="stroke: rgb(235, 240, 248); stroke-opacity: 1; stroke-width: 1px;"/><path class="xgrid crisp" transform="translate(441.01,0)" d="M0,10v153.25625" style="stroke: rgb(235, 240, 248); stroke-opacity: 1; stroke-width: 1px;"/><path class="xgrid crisp" transform="translate(513.02,0)" d="M0,10v153.25625" style="stroke: rgb(235, 240, 248); stroke-opacity: 1; stroke-width: 1px;"/><path class="xgrid crisp" transform="translate(585.04,0)" d="M0,10v153.25625" style="stroke: rgb(235, 240, 248); stroke-opacity: 1; stroke-width: 1px;"/><path class="xgrid crisp" transform="translate(657.05,0)" d="M0,10v153.25625" style="stroke: rgb(235, 240, 248); stroke-opacity: 1; stroke-width: 1px;"/></g><g class="y"><path class="ygrid crisp" transform="translate(0,149.47)" d="M47,0h643" style="stroke: rgb(235, 240, 248); stroke-opacity: 1; stroke-width: 1px;"/><path class="ygrid crisp" transform="translate(0,101.75)" d="M47,0h643" style="stroke: rgb(235, 240, 248); stroke-opacity: 1; stroke-width: 1px;"/><path class="ygrid crisp" transform="translate(0,54.04)" d="M47,0h643" style="stroke: rgb(235, 240, 248); stroke-opacity: 1; stroke-width: 1px;"/></g></g><g class="zerolinelayer"/><path class="xlines-below"/><path class="ylines-below"/><g class="overlines-below"/><g class="xaxislayer-below"/><g class="yaxislayer-below"/><g class="overaxes-below"/><g class="plot" transform="translate(47,10)" clip-path="url(#clip2ac51cxyplot)"><g class="scatterlayer mlayer"><g class="trace scatter traceaf14e6" style="stroke-miterlimit: 2; opacity: 1;"><g class="fills"/><g class="errorbars"/><g class="lines"><path class="js-line" d="M29.2,94.26L53.67,105.66L53.86,105.75L73.4,115.31L73.59,115.46L114.24,145.59L114.43,145.23L114.63,144.87L157.45,67.8L157.64,67.84L201.44,76.43L201.64,76.4L242.88,70.95L243.07,70.97L284.7,74.78L284.9,74.46L315.29,25.99L315.48,25.67L327.32,7.91L327.52,8.03L370.92,35.84L371.12,36.08L405.06,76.25L405.25,76.49L412.36,83.89L412.55,83.74L443.73,59.42L443.92,59.27L454.97,51.45L455.17,51.56L480.62,65.12L480.82,65.23L531.13,92.05L531.33,92.15L581.64,118.97L581.84,119.07L600.78,129.17L600.98,129.27L613.8,136.11" style="vector-effect: none; fill: none; stroke: rgb(45, 146, 255); stroke-opacity: 1; stroke-width: 2px; opacity: 1;"/></g><g class="points"/><g class="text"/></g></g></g><g class="overplot"/><path class="xlines-above crisp" d="M45.5,164.00625H691.5M45.5,9.25H691.5" style="fill: none; stroke-width: 1.5px; stroke: rgb(235, 240, 248); stroke-opacity: 1;"/><path class="ylines-above crisp" d="M46.25,10V163.25625M690.75,10V163.25625" style="fill: none; stroke-width: 1.5px; stroke: rgb(235, 240, 248); stroke-opacity: 1;"/><g class="overlines-above"/><g class="xaxislayer-above"><g class="xtick"><text text-anchor="middle" x="0" y="176.75625" transform="translate(80.53999999999999,0)" style="font-family: 'Open Sans', verdana, arial, sans-serif; font-size: 10px; fill: rgb(42, 63, 95); fill-opacity: 1; white-space: pre; opacity: 1;">2008</text></g><g class="xtick"><text text-anchor="middle" x="0" y="176.75625" style="font-family: 'Open Sans', verdana, arial, sans-serif; font-size: 10px; fill: rgb(42, 63, 95); fill-opacity: 1; white-space: pre; opacity: 1;" transform="translate(152.75,0)">2009</text></g><g class="xtick"><text text-anchor="middle" x="0" y="176.75625" style="font-family: 'Open Sans', verdana, arial, sans-serif; font-size: 10px; fill: rgb(42, 63, 95); fill-opacity: 1; white-space: pre; opacity: 1;" transform="translate(224.77,0)">2010</text></g><g class="xtick"><text text-anchor="middle" x="0" y="176.75625" style="font-family: 'Open Sans', verdana, arial, sans-serif; font-size: 10px; fill: rgb(42, 63, 95); fill-opacity: 1; white-space: pre; opacity: 1;" transform="translate(296.78,0)">2011</text></g><g class="xtick"><text text-anchor="middle" x="0" y="176.75625" style="font-family: 'Open Sans', verdana, arial, sans-serif; font-size: 10px; fill: rgb(42, 63, 95); fill-opacity: 1; white-space: pre; opacity: 1;" transform="translate(368.8,0)">2012</text></g><g class="xtick"><text text-anchor="middle" x="0" y="176.75625" style="font-family: 'Open Sans', verdana, arial, sans-serif; font-size: 10px; fill: rgb(42, 63, 95); fill-opacity: 1; white-space: pre; opacity: 1;" transform="translate(441.01,0)">2013</text></g><g class="xtick"><text text-anchor="middle" x="0" y="176.75625" style="font-family: 'Open Sans', verdana, arial, sans-serif; font-size: 10px; fill: rgb(42, 63, 95); fill-opacity: 1; white-space: pre; opacity: 1;" transform="translate(513.02,0)">2014</text></g><g class="xtick"><text text-anchor="middle" x="0" y="176.75625" style="font-family: 'Open Sans', verdana, arial, sans-serif; font-size: 10px; fill: rgb(42, 63, 95); fill-opacity: 1; white-space: pre; opacity: 1;" transform="translate(585.04,0)">2015</text></g><g class="xtick"><text text-anchor="middle" x="0" y="176.75625" style="font-family: 'Open Sans', verdana, arial, sans-serif; font-size: 10px; fill: rgb(42, 63, 95); fill-opacity: 1; white-space: pre; opacity: 1;" transform="translate(657.05,0)">2016</text></g></g><g class="yaxislayer-above"><g class="ytick"><text text-anchor="end" x="43.5" y="3.5" transform="translate(0,149.47)" style="font-family: 'Open Sans', verdana, arial, sans-serif; font-size: 10px; fill: rgb(42, 63, 95); fill-opacity: 1; white-space: pre; opacity: 1;">7.5</text></g><g class="ytick"><text text-anchor="end" x="43.5" y="3.5" style="font-family: 'Open Sans', verdana, arial, sans-serif; font-size: 10px; fill: rgb(42, 63, 95); fill-opacity: 1; white-space: pre; opacity: 1;" transform="translate(0,101.75)">8</text></g><g class="ytick"><text text-anchor="end" x="43.5" y="3.5" style="font-family: 'Open Sans', verdana, arial, sans-serif; font-size: 10px; fill: rgb(42, 63, 95); fill-opacity: 1; white-space: pre; opacity: 1;" transform="translate(0,54.04)">8.5</text></g></g><g class="overaxes-above"/></g><g class="subplot x2y2"><g class="layer-subplot"><g class="shapelayer"/><g class="imagelayer"/></g><g class="minor-gridlayer"><g class="x2"/><g class="y2"/></g><g class="gridlayer"><g class="x2"/><g class="y2"><path class="y2grid crisp" transform="translate(0,346.64125)" d="M47,0h643" style="stroke: rgb(235, 240, 248); stroke-opacity: 1; stroke-width: 1px;"/><path class="y2grid crisp" transform="translate(0,262.13125)" d="M47,0h643" style="stroke: rgb(235, 240, 248); stroke-opacity: 1; stroke-width: 1px;"/></g></g><g class="zerolinelayer"><path class="y2zl zl crisp" transform="translate(0,304.38125)" d="M47,0h643" style="stroke: rgb(235, 240, 248); stroke-opacity: 1; stroke-width: 2px;"/></g><path class="xlines-below"/><path class="ylines-below"/><g class="overlines-below"/><g class="xaxislayer-below"/><g class="yaxislayer-below"/><g class="overaxes-below"/><g class="plot" transform="translate(47,222.58125000000004)" clip-path="url(#clip2ac51cx2y2plot)"><g class="barlayer mlayer"><g class="trace bars" style="opacity: 1;"><g class="points"><g class="point"><path d="M24.5,81.8V86.67H57.16V81.8Z" style="vector-effect: none; opacity: 1; stroke-width: 0.5px; fill: rgb(45, 146, 255); fill-opacity: 1; stroke: rgb(255, 255, 255); stroke-opacity: 1;"/></g><g class="point"><path d="M65.32,81.8V89.74H97.98V81.8Z" style="vector-effect: none; opacity: 1; stroke-width: 0.5px; fill: rgb(45, 146, 255); fill-opacity: 1; stroke: rgb(255, 255, 255); stroke-opacity: 1;"/></g><g class="point"><path d="M106.15,81.8V7.66H138.81V81.8Z" style="vector-effect: none; opacity: 1; stroke-width: 0.5px; fill: rgb(45, 146, 255); fill-opacity: 1; stroke: rgb(255, 255, 255); stroke-opacity: 1;"/></g><g class="point"><path d="M146.97,81.8V140.75H179.63V81.8Z" style="vector-effect: none; opacity: 1; stroke-width: 0.5px; fill: rgb(45, 146, 255); fill-opacity: 1; stroke: rgb(255, 255, 255); stroke-opacity: 1;"/></g><g class="point"><path d="M187.8,81.8V71.66H220.46V81.8Z" style="vector-effect: none; opacity: 1; stroke-width: 0.5px; fill: rgb(45, 146, 255); fill-opacity: 1; stroke: rgb(255, 255, 255); stroke-opacity: 1;"/></g><g class="point"><path d="M228.62,81.8V88.91H261.28V81.8Z" style="vector-effect: none; opacity: 1; stroke-width: 0.5px; fill: rgb(45, 146, 255); fill-opacity: 1; stroke: rgb(255, 255, 255); stroke-opacity: 1;"/></g><g class="point"><path d="M269.45,81.8V32.76H302.11V81.8Z" style="vector-effect: none; opacity: 1; stroke-width: 0.5px; fill: rgb(45, 146, 255); fill-opacity: 1; stroke: rgb(255, 255, 255); stroke-opacity: 1;"/></g><g class="point"><path d="M310.27,81.8V145.59H342.93V81.8Z" style="vector-effect: none; opacity: 1; stroke-width: 0.5px; fill: rgb(45, 146, 255); fill-opacity: 1; stroke: rgb(255, 255, 255); stroke-opacity: 1;"/></g><g class="point"><path d="M351.1,81.8V98.04H383.76V81.8Z" style="vector-effect: none; opacity: 1; stroke-width: 0.5px; fill: rgb(45, 146, 255); fill-opacity: 1; stroke: rgb(255, 255, 255); stroke-opacity: 1;"/></g><g class="point"><path d="M391.92,81.8V25.26H424.58V81.8Z" style="vector-effect: none; opacity: 1; stroke-width: 0.5px; fill: rgb(45, 146, 255); fill-opacity: 1; stroke: rgb(255, 255, 255); stroke-opacity: 1;"/></g><g class="point"><path d="M432.75,81.8V119.61H465.41V81.8Z" style="vector-effect: none; opacity: 1; stroke-width: 0.5px; fill: rgb(45, 146, 255); fill-opacity: 1; stroke: rgb(255, 255, 255); stroke-opacity: 1;"/></g><g class="point"><path d="M585.84,81.8V81.8H618.5V81.8Z" style="vector-effect: none; opacity: 1; stroke-width: 0.5px; fill: rgb(45, 146, 255); fill-opacity: 1; stroke: rgb(255, 255, 255); stroke-opacity: 1;"/></g></g></g></g></g><g class="overplot"/><path class="xlines-above crisp" d="M45.5,376.58750000000003H691.5M45.5,221.83125000000004H691.5" style="fill: none; stroke-width: 1.5px; stroke: rgb(235, 240, 248); stroke-opacity: 1;"/><path class="ylines-above crisp" d="M46.25,222.58125000000004V375.83750000000003M690.75,222.58125000000004V375.83750000000003" style="fill: none; stroke-width: 1.5px; stroke: rgb(235, 240, 248); stroke-opacity: 1;"/><g class="overlines-above"/><g class="xaxislayer-above"><g class="x2tick"><text text-anchor="middle" x="0" y="389.33750000000003" transform="translate(91.99000000000001,0)" style="font-family: 'Open Sans', verdana, arial, sans-serif; font-size: 10px; fill: rgb(42, 63, 95); fill-opacity: 1; white-space: pre; opacity: 1;">2008</text></g><g class="x2tick"><text text-anchor="middle" x="0" y="389.33750000000003" style="font-family: 'Open Sans', verdana, arial, sans-serif; font-size: 10px; fill: rgb(42, 63, 95); fill-opacity: 1; white-space: pre; opacity: 1;" transform="translate(230.48,0)">2010</text></g><g class="x2tick"><text text-anchor="middle" x="0" y="389.33750000000003" style="font-family: 'Open Sans', verdana, arial, sans-serif; font-size: 10px; fill: rgb(42, 63, 95); fill-opacity: 1; white-space: pre; opacity: 1;" transform="translate(368.78,0)">2012</text></g><g class="x2tick"><text text-anchor="middle" x="0" y="389.33750000000003" style="font-family: 'Open Sans', verdana, arial, sans-serif; font-size: 10px; fill: rgb(42, 63, 95); fill-opacity: 1; white-space: pre; opacity: 1;" transform="translate(507.27,0)">2014</text></g><g class="x2tick"><text text-anchor="middle" x="0" y="389.33750000000003" style="font-family: 'Open Sans', verdana, arial, sans-serif; font-size: 10px; fill: rgb(42, 63, 95); fill-opacity: 1; white-space: pre; opacity: 1;" transform="translate(645.57,0)">2016</text></g></g><g class="yaxislayer-above"><g class="y2tick"><text text-anchor="end" x="43.5" y="3.5" transform="translate(0,346.64125)" style="font-family: 'Open Sans', verdana, arial, sans-serif; font-size: 10px; fill: rgb(42, 63, 95); fill-opacity: 1; white-space: pre; opacity: 1;">−2</text></g><g class="y2tick"><text text-anchor="end" x="43.5" y="3.5" style="font-family: 'Open Sans', verdana, arial, sans-serif; font-size: 10px; fill: rgb(42, 63, 95); fill-opacity: 1; white-space: pre; opacity: 1;" transform="translate(0,304.38125)">0</text></g><g class="y2tick"><text text-anchor="end" x="43.5" y="3.5" style="font-family: 'Open Sans', verdana, arial, sans-serif; font-size: 10px; fill: rgb(42, 63, 95); fill-opacity: 1; white-space: pre; opacity: 1;" transform="translate(0,262.13125)">2</text></g></g><g class="overaxes-above"/></g><g class="subplot x3y3"><g class="layer-subplot"><g class="shapelayer"/><g class="imagelayer"/></g><g class="minor-gridlayer"><g class="x3"/><g class="y3"/></g><g class="gridlayer"><g class="x3"><path class="x3grid crisp" transform="translate(75.93,0)" d="M0,435.16249999999997v153.25625000000002" style="stroke: rgb(235, 240, 248); stroke-opacity: 1; stroke-width: 1px;"/><path class="x3grid crisp" transform="translate(170.78,0)" d="M0,435.16249999999997v153.25625000000002" style="stroke: rgb(235, 240, 248); stroke-opacity: 1; stroke-width: 1px;"/><path class="x3grid crisp" transform="translate(268.83000000000004,0)" d="M0,435.16249999999997v153.25625000000002" style="stroke: rgb(235, 240, 248); stroke-opacity: 1; stroke-width: 1px;"/><path class="x3grid crisp" transform="translate(366.89,0)" d="M0,435.16249999999997v153.25625000000002" style="stroke: rgb(235, 240, 248); stroke-opacity: 1; stroke-width: 1px;"/><path class="x3grid crisp" transform="translate(466.56,0)" d="M0,435.16249999999997v153.25625000000002" style="stroke: rgb(235, 240, 248); stroke-opacity: 1; stroke-width: 1px;"/><path class="x3grid crisp" transform="translate(564.61,0)" d="M0,435.16249999999997v153.25625000000002" style="stroke: rgb(235, 240, 248); stroke-opacity: 1; stroke-width: 1px;"/><path class="x3grid crisp" transform="translate(662.67,0)" d="M0,435.16249999999997v153.25625000000002" style="stroke: rgb(235, 240, 248); stroke-opacity: 1; stroke-width: 1px;"/></g><g class="y3"><path class="y3grid crisp" transform="translate(0,583.5024999999999)" d="M47,0h643" style="stroke: rgb(235, 240, 248); stroke-opacity: 1; stroke-width: 1px;"/><path class="y3grid crisp" transform="translate(0,549.7524999999999)" d="M47,0h643" style="stroke: rgb(235, 240, 248); stroke-opacity: 1; stroke-width: 1px;"/><path class="y3grid crisp" transform="translate(0,482.2625)" d="M47,0h643" style="stroke: rgb(235, 240, 248); stroke-opacity: 1; stroke-width: 1px;"/><path class="y3grid crisp" transform="translate(0,448.5125)" d="M47,0h643" style="stroke: rgb(235, 240, 248); stroke-opacity: 1; stroke-width: 1px;"/></g></g><g class="zerolinelayer"><path class="y3zl zl crisp" transform="translate(0,516.0024999999999)" d="M47,0h643" style="stroke: rgb(235, 240, 248); stroke-opacity: 1; stroke-width: 2px;"/></g><path class="xlines-below"/><path class="ylines-below"/><g class="overlines-below"/><g class="xaxislayer-below"/><g class="yaxislayer-below"/><g class="overaxes-below"/><g class="plot" transform="translate(47,435.16249999999997)" clip-path="url(#clip2ac51cx3y3plot)"><g class="scatterlayer mlayer"><g class="trace scatter tracebf58e2" style="stroke-miterlimit: 2; opacity: 1;"><g class="fills"/><g class="errorbars"/><g class="lines"><path class="js-line" d="M28.93,37.15L45.01,16.52L46.62,14.86L53.05,9.75L54.65,8.92L59.48,7.66L61.08,7.68L65.91,9.09L67.51,10.01L72.34,14.13L73.94,15.94L80.38,25.06L81.98,27.77L90.02,43.09L91.63,46.41L109.31,82L110.92,84.77L117.35,94.45L118.95,96.5L125.38,103.07L126.99,104.31L133.42,107.79L135.03,108.31L141.46,109.26L143.07,109.26L151.1,108.35L152.71,108.05L168.79,105.66L170.4,105.61L178.43,106.07L180.04,106.3L191.29,108.89L192.9,109.35L212.19,114.14L213.8,114.39L226.66,115.56L228.26,115.65L242.73,117L244.34,117.31L252.38,119.62L253.98,120.26L262.02,124.27L263.63,125.23L276.49,133.99L278.1,135.12L289.35,142.08L290.96,142.84L297.39,145.01L298.99,145.31L305.42,145.44L307.03,145.19L313.46,143.14L315.07,142.37L323.11,137.24L324.72,136.01L342.4,120.8L344,119.47L353.65,112.47L355.26,111.49L364.9,106.65L366.51,105.99L387.41,97.52L389.01,96.62L397.05,91.02L398.66,89.66L406.7,81.62L408.31,79.79L421.16,63.42L422.77,61.3L434.02,47.53L435.63,45.84L442.06,40.22L443.67,39.12L450.1,36.14L451.71,35.75L456.53,35.44L458.14,35.62L464.57,37.57L466.17,38.32L474.21,43.27L475.82,44.41L491.9,55.16L493.5,55.94L499.93,58.15L501.54,58.46L507.97,58.68L509.58,58.5L517.61,56.36L519.22,55.74L540.12,47.4L541.73,47.06L548.16,46.5L549.76,46.57L556.19,47.71L557.8,48.19L567.45,52.14L569.06,52.9L580.31,57.45L581.91,57.86L588.34,58.44L589.95,58.28L594.77,57L596.38,56.28L602.81,52L604.42,50.58L610.85,43.75L612.46,41.8L614.06,39.77" style="vector-effect: none; fill: none; stroke: rgb(45, 146, 255); stroke-opacity: 1; stroke-width: 2px; opacity: 1;"/></g><g class="points"/><g class="text"/></g></g></g><g class="overplot"/><path class="xlines-above crisp" d="M45.5,589.16875H691.5M45.5,434.41249999999997H691.5" style="fill: none; stroke-width: 1.5px; stroke: rgb(235, 240, 248); stroke-opacity: 1;"/><path class="ylines-above crisp" d="M46.25,435.16249999999997V588.41875M690.75,435.16249999999997V588.41875" style="fill: none; stroke-width: 1.5px; stroke: rgb(235, 240, 248); stroke-opacity: 1;"/><g class="overlines-above"/><g class="xaxislayer-above"><g class="x3tick"><text text-anchor="middle" x="0" y="601.91875" transform="translate(75.93,0)" style="font-family: 'Open Sans', verdana, arial, sans-serif; font-size: 10px; fill: rgb(42, 63, 95); fill-opacity: 1; white-space: pre; opacity: 1;">Jan 2017</text></g><g class="x3tick"><text text-anchor="middle" x="0" y="601.91875" style="font-family: 'Open Sans', verdana, arial, sans-serif; font-size: 10px; fill: rgb(42, 63, 95); fill-opacity: 1; white-space: pre; opacity: 1;" transform="translate(170.78,0)">Mar 2017</text></g><g class="x3tick"><text text-anchor="middle" x="0" y="601.91875" style="font-family: 'Open Sans', verdana, arial, sans-serif; font-size: 10px; fill: rgb(42, 63, 95); fill-opacity: 1; white-space: pre; opacity: 1;" transform="translate(268.83000000000004,0)">May 2017</text></g><g class="x3tick"><text text-anchor="middle" x="0" y="601.91875" style="font-family: 'Open Sans', verdana, arial, sans-serif; font-size: 10px; fill: rgb(42, 63, 95); fill-opacity: 1; white-space: pre; opacity: 1;" transform="translate(366.89,0)">Jul 2017</text></g><g class="x3tick"><text text-anchor="middle" x="0" y="601.91875" style="font-family: 'Open Sans', verdana, arial, sans-serif; font-size: 10px; fill: rgb(42, 63, 95); fill-opacity: 1; white-space: pre; opacity: 1;" transform="translate(466.56,0)">Sep 2017</text></g><g class="x3tick"><text text-anchor="middle" x="0" y="601.91875" style="font-family: 'Open Sans', verdana, arial, sans-serif; font-size: 10px; fill: rgb(42, 63, 95); fill-opacity: 1; white-space: pre; opacity: 1;" transform="translate(564.61,0)">Nov 2017</text></g><g class="x3tick"><text text-anchor="middle" x="0" y="601.91875" style="font-family: 'Open Sans', verdana, arial, sans-serif; font-size: 10px; fill: rgb(42, 63, 95); fill-opacity: 1; white-space: pre; opacity: 1;" transform="translate(662.67,0)">Jan 2018</text></g></g><g class="yaxislayer-above"><g class="y3tick"><text text-anchor="end" x="43.5" y="3.5" transform="translate(0,583.5024999999999)" style="font-family: 'Open Sans', verdana, arial, sans-serif; font-size: 10px; fill: rgb(42, 63, 95); fill-opacity: 1; white-space: pre; opacity: 1;">−1</text></g><g class="y3tick"><text text-anchor="end" x="43.5" y="3.5" style="font-family: 'Open Sans', verdana, arial, sans-serif; font-size: 10px; fill: rgb(42, 63, 95); fill-opacity: 1; white-space: pre; opacity: 1;" transform="translate(0,549.7524999999999)">−0.5</text></g><g class="y3tick"><text text-anchor="end" x="43.5" y="3.5" style="font-family: 'Open Sans', verdana, arial, sans-serif; font-size: 10px; fill: rgb(42, 63, 95); fill-opacity: 1; white-space: pre; opacity: 1;" transform="translate(0,516.0024999999999)">0</text></g><g class="y3tick"><text text-anchor="end" x="43.5" y="3.5" style="font-family: 'Open Sans', verdana, arial, sans-serif; font-size: 10px; fill: rgb(42, 63, 95); fill-opacity: 1; white-space: pre; opacity: 1;" transform="translate(0,482.2625)">0.5</text></g><g class="y3tick"><text text-anchor="end" x="43.5" y="3.5" style="font-family: 'Open Sans', verdana, arial, sans-serif; font-size: 10px; fill: rgb(42, 63, 95); fill-opacity: 1; white-space: pre; opacity: 1;" transform="translate(0,448.5125)">1</text></g></g><g class="overaxes-above"/></g><g class="subplot x4y4"><g class="layer-subplot"><g class="shapelayer"/><g class="imagelayer"/></g><g class="minor-gridlayer"><g class="x4"/><g class="y4"/></g><g class="gridlayer"><g class="x4"><path class="x4grid crisp" transform="translate(159.44,0)" d="M0,647.74375v153.25625" style="stroke: rgb(235, 240, 248); stroke-opacity: 1; stroke-width: 1px;"/><path class="x4grid crisp" transform="translate(243.77,0)" d="M0,647.74375v153.25625" style="stroke: rgb(235, 240, 248); stroke-opacity: 1; stroke-width: 1px;"/><path class="x4grid crisp" transform="translate(328.09,0)" d="M0,647.74375v153.25625" style="stroke: rgb(235, 240, 248); stroke-opacity: 1; stroke-width: 1px;"/><path class="x4grid crisp" transform="translate(412.42,0)" d="M0,647.74375v153.25625" style="stroke: rgb(235, 240, 248); stroke-opacity: 1; stroke-width: 1px;"/><path class="x4grid crisp" transform="translate(496.75,0)" d="M0,647.74375v153.25625" style="stroke: rgb(235, 240, 248); stroke-opacity: 1; stroke-width: 1px;"/><path class="x4grid crisp" transform="translate(581.08,0)" d="M0,647.74375v153.25625" style="stroke: rgb(235, 240, 248); stroke-opacity: 1; stroke-width: 1px;"/><path class="x4grid crisp" transform="translate(665.4,0)" d="M0,647.74375v153.25625" style="stroke: rgb(235, 240, 248); stroke-opacity: 1; stroke-width: 1px;"/></g><g class="y4"><path class="y4grid crisp" transform="translate(0,768.46375)" d="M47,0h643" style="stroke: rgb(235, 240, 248); stroke-opacity: 1; stroke-width: 1px;"/><path class="y4grid crisp" transform="translate(0,688.19375)" d="M47,0h643" style="stroke: rgb(235, 240, 248); stroke-opacity: 1; stroke-width: 1px;"/></g></g><g class="zerolinelayer"><path class="x4zl zl crisp" transform="translate(75.11,0)" d="M0,647.74375v153.25625" style="stroke: rgb(235, 240, 248); stroke-opacity: 1; stroke-width: 2px;"/><path class="y4zl zl crisp" transform="translate(0,728.33375)" d="M47,0h643" style="stroke: rgb(235, 240, 248); stroke-opacity: 1; stroke-width: 2px;"/></g><path class="xlines-below"/><path class="ylines-below"/><g class="overlines-below"/><g class="xaxislayer-below"/><g class="yaxislayer-below"/><g class="overaxes-below"/><g class="plot" transform="translate(47,647.74375)" clip-path="url(#clip2ac51cx4y4plot)"><g class="scatterlayer mlayer"><g class="trace scatter traced3ca76" style="stroke-miterlimit: 2; opacity: 1;"><g class="fills"/><g class="errorbars"/><g class="lines"><path class="js-line" d="M28.11,71.48L45.68,47.29L49.19,42.93L59.73,30.93L63.25,27.44L73.79,18.36L77.3,16.05L84.33,12.16L87.84,10.66L98.38,8.02L101.9,7.66L112.44,8.41L115.95,9.11L126.49,12.63L130.01,14.2L140.55,19.73L144.06,21.82L161.63,33.36L165.14,35.75L196.77,56.58L200.28,58.65L221.36,70.15L224.87,71.88L249.47,82.64L252.98,83.96L270.55,90.33L274.07,91.53L295.15,97.18L298.66,97.94L312.72,100L316.23,100.28L330.28,100.52L333.8,100.31L347.85,98.6L351.37,97.99L372.45,92.92L375.96,91.94L397.04,86.96L400.56,86.36L411.1,85.24L414.61,85.22L425.15,85.89L428.67,86.5L439.21,89.4L442.72,90.75L453.26,95.77L456.78,97.78L474.34,109.91L477.86,112.73L505.97,133.74L509.48,136.02L520.02,141.45L523.54,142.86L530.56,144.85L534.08,145.37L541.1,145.5L544.62,145.07L551.64,143.18L555.16,141.79L562.19,137.89L565.7,135.48L572.73,129.82L576.24,126.33L590.3,110.55L593.81,105.85L611.38,81.37L614.89,76.34" style="vector-effect: none; fill: none; stroke: rgb(45, 146, 255); stroke-opacity: 1; stroke-width: 2px; opacity: 1;"/></g><g class="points"/><g class="text"/></g></g></g><g class="overplot"/><path class="xlines-above crisp" d="M45.5,801.75H691.5M45.5,646.99375H691.5" style="fill: none; stroke-width: 1.5px; stroke: rgb(235, 240, 248); stroke-opacity: 1;"/><path class="ylines-above crisp" d="M46.25,647.74375V801M690.75,647.74375V801" style="fill: none; stroke-width: 1.5px; stroke: rgb(235, 240, 248); stroke-opacity: 1;"/><g class="overlines-above"/><g class="xaxislayer-above"><g class="x4tick"><text text-anchor="middle" x="0" y="814.5" transform="translate(75.11,0)" style="font-family: 'Open Sans', verdana, arial, sans-serif; font-size: 10px; fill: rgb(42, 63, 95); fill-opacity: 1; white-space: pre; opacity: 1;">Sunday</text></g><g class="x4tick"><text text-anchor="middle" x="0" y="814.5" style="font-family: 'Open Sans', verdana, arial, sans-serif; font-size: 10px; fill: rgb(42, 63, 95); fill-opacity: 1; white-space: pre; opacity: 1;" transform="translate(159.44,0)">Monday</text></g><g class="x4tick"><text text-anchor="middle" x="0" y="814.5" style="font-family: 'Open Sans', verdana, arial, sans-serif; font-size: 10px; fill: rgb(42, 63, 95); fill-opacity: 1; white-space: pre; opacity: 1;" transform="translate(243.77,0)">Tuesday</text></g><g class="x4tick"><text text-anchor="middle" x="0" y="814.5" style="font-family: 'Open Sans', verdana, arial, sans-serif; font-size: 10px; fill: rgb(42, 63, 95); fill-opacity: 1; white-space: pre; opacity: 1;" transform="translate(328.09,0)">Wednesday</text></g><g class="x4tick"><text text-anchor="middle" x="0" y="814.5" style="font-family: 'Open Sans', verdana, arial, sans-serif; font-size: 10px; fill: rgb(42, 63, 95); fill-opacity: 1; white-space: pre; opacity: 1;" transform="translate(412.42,0)">Thursday</text></g><g class="x4tick"><text text-anchor="middle" x="0" y="814.5" style="font-family: 'Open Sans', verdana, arial, sans-serif; font-size: 10px; fill: rgb(42, 63, 95); fill-opacity: 1; white-space: pre; opacity: 1;" transform="translate(496.75,0)">Friday</text></g><g class="x4tick"><text text-anchor="middle" x="0" y="814.5" style="font-family: 'Open Sans', verdana, arial, sans-serif; font-size: 10px; fill: rgb(42, 63, 95); fill-opacity: 1; white-space: pre; opacity: 1;" transform="translate(581.08,0)">Saturday</text></g><g class="x4tick"><text text-anchor="middle" x="0" y="814.5" style="font-family: 'Open Sans', verdana, arial, sans-serif; font-size: 10px; fill: rgb(42, 63, 95); fill-opacity: 1; white-space: pre; opacity: 1;" transform="translate(665.4,0)">Sunday</text></g></g><g class="yaxislayer-above"><g class="y4tick"><text text-anchor="end" x="43.5" y="3.5" transform="translate(0,768.46375)" style="font-family: 'Open Sans', verdana, arial, sans-serif; font-size: 10px; fill: rgb(42, 63, 95); fill-opacity: 1; white-space: pre; opacity: 1;">−0.2</text></g><g class="y4tick"><text text-anchor="end" x="43.5" y="3.5" style="font-family: 'Open Sans', verdana, arial, sans-serif; font-size: 10px; fill: rgb(42, 63, 95); fill-opacity: 1; white-space: pre; opacity: 1;" transform="translate(0,728.33375)">0</text></g><g class="y4tick"><text text-anchor="end" x="43.5" y="3.5" style="font-family: 'Open Sans', verdana, arial, sans-serif; font-size: 10px; fill: rgb(42, 63, 95); fill-opacity: 1; white-space: pre; opacity: 1;" transform="translate(0,688.19375)">0.2</text></g><g class="y4tick"><text text-anchor="end" x="43.5" y="3.5" style="font-family: 'Open Sans', verdana, arial, sans-serif; font-size: 10px; fill: rgb(42, 63, 95); fill-opacity: 1; white-space: pre; opacity: 1;" transform="translate(0,648.06375)">0.4</text></g></g><g class="overaxes-above"/></g></g><g class="polarlayer"/><g class="smithlayer"/><g class="ternarylayer"/><g class="geolayer"/><g class="funnelarealayer"/><g class="pielayer"/><g class="iciclelayer"/><g class="treemaplayer"/><g class="sunburstlayer"/><g class="glimages"/><defs id="topdefs-2ac51c"><g class="clips"/></defs><g class="layer-above"><g class="imagelayer"/><g class="shapelayer"/></g><g class="infolayer"><g class="g-gtitle"/><g class="g-xtitle"><text class="xtitle" x="368.5" y="201.415625" text-anchor="middle" style="font-family: 'Open Sans', verdana, arial, sans-serif; font-size: 12px; fill: rgb(42, 63, 95); opacity: 1; font-weight: normal; white-space: pre;">ds</text></g><g class="g-x2title"><text class="x2title" x="368.5" y="413.99375" text-anchor="middle" style="font-family: 'Open Sans', verdana, arial, sans-serif; font-size: 12px; fill: rgb(42, 63, 95); opacity: 1; font-weight: normal; white-space: pre;">Trend segment</text></g><g class="g-x3title"><text class="x3title" x="368.5" y="626.571875" text-anchor="middle" style="font-family: 'Open Sans', verdana, arial, sans-serif; font-size: 12px; fill: rgb(42, 63, 95); opacity: 1; font-weight: normal; white-space: pre;">Day of year</text></g><g class="g-x4title" transform="translate(0,-2.1499999999999773)"><text class="x4title" x="368.5" y="839.15" text-anchor="middle" style="font-family: 'Open Sans', verdana, arial, sans-serif; font-size: 12px; fill: rgb(42, 63, 95); opacity: 1; font-weight: normal; white-space: pre;">Day of week</text></g><g class="g-ytitle" transform="translate(4.0595703125,0)"><text class="ytitle" transform="rotate(-90,6.943750000000001,86.628125)" x="6.943750000000001" y="86.628125" text-anchor="middle" style="font-family: 'Open Sans', verdana, arial, sans-serif; font-size: 12px; fill: rgb(42, 63, 95); opacity: 1; font-weight: normal; white-space: pre;">Trend</text></g><g class="g-y2title" transform="translate(1.5625,0)"><text class="y2title" transform="rotate(-90,9.443750000000001,299.209375)" x="9.443750000000001" y="299.209375" text-anchor="middle" style="font-family: 'Open Sans', verdana, arial, sans-serif; font-size: 12px; fill: rgb(42, 63, 95); opacity: 1; font-weight: normal; white-space: pre;">Trend Rate Change</text></g><g class="g-y3title" transform="translate(9.9091796875,0)"><text class="y3title" transform="rotate(-90,1.1000000000000014,511.790625)" x="1.1000000000000014" y="511.790625" text-anchor="middle" style="font-family: 'Open Sans', verdana, arial, sans-serif; font-size: 12px; fill: rgb(42, 63, 95); opacity: 1; font-weight: normal; white-space: pre;">Seasonality: yearly</text></g><g class="g-y4title" transform="translate(9.912109375,0)"><text class="y4title" transform="rotate(-90,1.1000000000000014,724.3718749999999)" x="1.1000000000000014" y="724.3718749999999" text-anchor="middle" style="font-family: 'Open Sans', verdana, arial, sans-serif; font-size: 12px; fill: rgb(42, 63, 95); opacity: 1; font-weight: normal; white-space: pre;">Seasonality: weekly</text></g></g></svg>