<svg class="main-svg" xmlns="http://www.w3.org/2000/svg" xmlns:xlink="http://www.w3.org/1999/xlink" width="700" height="420" style="" viewBox="0 0 700 420"><rect x="0" y="0" width="700" height="420" style="fill: rgb(255, 255, 255); fill-opacity: 1;"/><defs id="defs-0a33fe"><g class="clips"><clipPath id="clip0a33fexyplot" class="plotclip"><rect width="583" height="275"/></clipPath><clipPath class="axesclip" id="clip0a33fex"><rect x="32" y="0" width="583" height="420"/></clipPath><clipPath class="axesclip" id="clip0a33fey"><rect x="0" y="25" width="700" height="275"/></clipPath><clipPath class="axesclip" id="clip0a33fexy"><rect x="32" y="25" width="583" height="275"/></clipPath></g><g class="gradients"/><g class="patterns"/></defs><g class="bglayer"/><g class="layer-below"><g class="imagelayer"/><g class="shapelayer"/></g><g class="cartesianlayer"><g class="subplot xy"><g class="layer-subplot"><g class="shapelayer"/><g class="imagelayer"/></g><g class="minor-gridlayer"><g class="x"/><g class="y"/></g><g class="gridlayer"><g class="x"><path class="xgrid crisp" transform="translate(65.58,0)" d="M0,25v275" style="stroke: rgb(235, 240, 248); stroke-opacity: 1; stroke-width: 1px;"/><path class="xgrid crisp" transform="translate(149.65,0)" d="M0,25v275" style="stroke: rgb(235, 240, 248); stroke-opacity: 1; stroke-width: 1px;"/><path class="xgrid crisp" transform="translate(236.58,0)" d="M0,25v275" style="stroke: rgb(235, 240, 248); stroke-opacity: 1; stroke-width: 1px;"/><path class="xgrid crisp" transform="translate(323.5,0)" d="M0,25v275" style="stroke: rgb(235, 240, 248); stroke-opacity: 1; stroke-width: 1px;"/><path class="xgrid crisp" transform="translate(411.85,0)" d="M0,25v275" style="stroke: rgb(235, 240, 248); stroke-opacity: 1; stroke-width: 1px;"/><path class="xgrid crisp" transform="translate(498.77,0)" d="M0,25v275" style="stroke: rgb(235, 240, 248); stroke-opacity: 1; stroke-width: 1px;"/><path class="xgrid crisp" transform="translate(585.7,0)" d="M0,25v275" style="stroke: rgb(235, 240, 248); stroke-opacity: 1; stroke-width: 1px;"/></g><g class="y"><path class="ygrid crisp" transform="translate(0,183.21)" d="M32,0h583" style="stroke: rgb(235, 240, 248); stroke-opacity: 1; stroke-width: 1px;"/><path class="ygrid crisp" transform="translate(0,118.7)" d="M32,0h583" style="stroke: rgb(235, 240, 248); stroke-opacity: 1; stroke-width: 1px;"/><path class="ygrid crisp" transform="translate(0,54.19)" d="M32,0h583" style="stroke: rgb(235, 240, 248); stroke-opacity: 1; stroke-width: 1px;"/></g></g><g class="zerolinelayer"><path class="yzl zl crisp" transform="translate(0,247.72)" d="M32,0h583" style="stroke: rgb(235, 240, 248); stroke-opacity: 1; stroke-width: 2px;"/></g><path class="xlines-below"/><path class="ylines-below"/><g class="overlines-below"/><g class="xaxislayer-below"/><g class="yaxislayer-below"/><g class="overaxes-below"/><g class="plot" transform="translate(32,25)" clip-path="url(#clip0a33fexyplot)"><g class="scatterlayer mlayer"><g class="trace scatter tracec1bba0" style="stroke-miterlimit: 2; opacity: 1;"><g class="fills"/><g class="errorbars"/><g class="lines"><path class="js-line" d="M32.15,153.2L33.58,146.06L35,118.22L36.43,89.15L37.85,81.54L42.13,134.06L43.55,128.83L46.4,72.45L47.83,63.62L52.1,118.89L53.53,112.58L56.38,58.53L57.8,50.26L62.08,107.25L63.5,101.5L66.35,47.05L67.78,40.83L72.05,97.66L73.48,93.83L76.33,40.46L77.75,33.06L82.03,92.5L83.45,87.56L86.3,36.09L87.73,28.84L89.15,46.78L90.58,74.39L92,88.93L93.43,84.01L96.28,32.67L97.7,25.56L101.98,85.65L103.4,80.64L106.25,27.87L107.68,22.27L111.95,80.65L113.38,77.27L116.23,24.45L117.65,17.23L121.93,77.45L123.35,72.62L126.2,21.41L127.63,14.5L131.9,75.35L133.33,70.68L136.18,20.3L137.6,13.75L141.88,75.66L143.3,71.53L146.15,20.6L147.58,15.98L151.85,77.89L153.28,75.8L156.13,25.66L157.55,20.09L161.83,85.04L163.25,81.93L166.1,34.06L167.53,28.81L171.8,94.48L173.23,91.56L176.08,44.25L177.5,39.14L181.78,105L183.2,102.08L186.05,53.08L187.48,49.25L191.75,113.19L193.18,111.44L196.03,61.84L197.45,56.26L201.73,120.68L203.15,117.06L206,68.31L207.43,62.44L211.7,125.74L213.13,121.87L215.98,71.17L217.4,66.31L221.68,127.71L223.1,125.23L225.95,74.14L227.38,68L231.65,130.98L233.08,127.03L235.93,77.87L237.35,71.96L241.63,135.61L243.05,132.06L245.9,83.64L247.33,78.08L251.6,143.05L253.03,139.97L255.88,90.86L257.3,87.27L261.58,152.23L263,151.03L265.85,102.82L267.28,98.09L271.55,165.45L272.98,163.16L275.83,117.02L277.25,112.56L281.53,180.45L282.95,178.27L285.8,132.21L287.23,127.59L291.5,195.48L292.92,193.12L295.77,145.27L297.2,142.1L301.47,207.81L302.9,206.6L305.75,158.29L307.17,153.39L311.45,219.57L312.87,216.65L315.72,169.22L317.15,163.79L321.42,229.23L322.85,226.07L325.7,177.89L327.12,172.43L331.4,237.13L332.82,233.53L335.67,183.76L337.1,179.53L341.37,242.13L342.8,240.1L345.65,189.99L347.07,184.23L351.35,248.09L352.77,244.53L355.62,195.55L357.05,189.76L361.32,253.52L362.75,249.78L365.6,200.69L367.02,194.76L371.3,256.48L372.72,254.15L375.57,203.43L377,197.28L381.27,259.89L382.7,255.8L385.55,206L386.97,199.42L388.4,217.99L389.82,246.21L391.25,261.25L392.67,256.86L395.52,206.19L396.95,199.44L401.22,260.09L402.65,255.19L405.5,202.4L406.92,196.65L411.2,254.47L412.62,250.76L415.47,197.23L416.9,189.49L421.17,247.93L422.6,242.44L425.45,189.58L426.87,181.81L428.3,198.94L429.72,225.77L431.15,239.54L432.57,233.67L435.42,180.77L436.85,172.81L441.12,230.25L442.55,224.59L445.4,170.25L446.82,163.88L451.1,220.25L452.52,216.18L455.37,162.17L456.8,154.53L461.07,213.35L462.5,208.14L465.35,156.19L466.77,148.93L468.2,166.74L469.62,194.21L471.05,208.57L472.47,203.74L475.32,152.52L476.75,145.57L481.02,206.05L482.45,201.34L485.3,149.06L486.72,143.56L491,202.96L492.42,199.81L495.27,147.37L496.7,140.47L500.97,200.88L502.4,195.87L505.25,144.51L506.67,137.25L508.1,154.97L509.52,182.19L510.95,196.36L512.37,191.08L515.22,138.66L516.65,130.77L520.92,188.37L522.35,182.5L525.2,127.28L526.62,120.38L530.9,174.65L532.32,168.05L535.17,113.41L536.6,104.52L538.02,120.61L539.45,146.27L540.87,158.75L542.3,151.92L545.15,96.5L546.57,87.35L548,103L549.42,127.02L550.85,140.98" style="vector-effect: none; fill: none; stroke: rgb(45, 146, 255); stroke-opacity: 1; stroke-width: 2px; opacity: 1;"/></g><g class="points"/><g class="text"/></g><g class="trace scatter traceed9fb6" style="stroke-miterlimit: 2; opacity: 1;"><g class="fills"/><g class="errorbars"/><g class="lines"/><g class="points"/><g class="text"/></g></g></g><g class="overplot"/><path class="xlines-above crisp" d="M30.5,300.75H616.5M30.5,24.25H616.5" style="fill: none; stroke-width: 1.5px; stroke: rgb(235, 240, 248); stroke-opacity: 1;"/><path class="ylines-above crisp" d="M31.25,25V300M615.75,25V300" style="fill: none; stroke-width: 1.5px; stroke: rgb(235, 240, 248); stroke-opacity: 1;"/><g class="overlines-above"/><g class="xaxislayer-above"><g class="xtick"><text text-anchor="middle" x="0" y="313.5" transform="translate(65.58,0)" style="font-family: 'Open Sans', verdana, arial, sans-serif; font-size: 10px; fill: rgb(42, 63, 95); fill-opacity: 1; white-space: pre; opacity: 1;">Jan 2023</text></g><g class="xtick"><text text-anchor="middle" x="0" y="313.5" style="font-family: 'Open Sans', verdana, arial, sans-serif; font-size: 10px; fill: rgb(42, 63, 95); fill-opacity: 1; white-space: pre; opacity: 1;" transform="translate(149.65,0)">Mar 2023</text></g><g class="xtick"><text text-anchor="middle" x="0" y="313.5" style="font-family: 'Open Sans', verdana, arial, sans-serif; font-size: 10px; fill: rgb(42, 63, 95); fill-opacity: 1; white-space: pre; opacity: 1;" transform="translate(236.58,0)">May 2023</text></g><g class="xtick"><text text-anchor="middle" x="0" y="313.5" style="font-family: 'Open Sans', verdana, arial, sans-serif; font-size: 10px; fill: rgb(42, 63, 95); fill-opacity: 1; white-space: pre; opacity: 1;" transform="translate(323.5,0)">Jul 2023</text></g><g class="xtick"><text text-anchor="middle" x="0" y="313.5" style="font-family: 'Open Sans', verdana, arial, sans-serif; font-size: 10px; fill: rgb(42, 63, 95); fill-opacity: 1; white-space: pre; opacity: 1;" transform="translate(411.85,0)">Sep 2023</text></g><g class="xtick"><text text-anchor="middle" x="0" y="313.5" style="font-family: 'Open Sans', verdana, arial, sans-serif; font-size: 10px; fill: rgb(42, 63, 95); fill-opacity: 1; white-space: pre; opacity: 1;" transform="translate(498.77,0)">Nov 2023</text></g><g class="xtick"><text text-anchor="middle" x="0" y="313.5" style="font-family: 'Open Sans', verdana, arial, sans-serif; font-size: 10px; fill: rgb(42, 63, 95); fill-opacity: 1; white-space: pre; opacity: 1;" transform="translate(585.7,0)">Jan 2024</text></g></g><g class="yaxislayer-above"><g class="ytick"><text text-anchor="end" x="28.5" y="3.5" transform="translate(0,247.72)" style="font-family: 'Open Sans', verdana, arial, sans-serif; font-size: 10px; fill: rgb(42, 63, 95); fill-opacity: 1; white-space: pre; opacity: 1;">0</text></g><g class="ytick"><text text-anchor="end" x="28.5" y="3.5" style="font-family: 'Open Sans', verdana, arial, sans-serif; font-size: 10px; fill: rgb(42, 63, 95); fill-opacity: 1; white-space: pre; opacity: 1;" transform="translate(0,183.21)">2</text></g><g class="ytick"><text text-anchor="end" x="28.5" y="3.5" style="font-family: 'Open Sans', verdana, arial, sans-serif; font-size: 10px; fill: rgb(42, 63, 95); fill-opacity: 1; white-space: pre; opacity: 1;" transform="translate(0,118.7)">4</text></g><g class="ytick"><text text-anchor="end" x="28.5" y="3.5" style="font-family: 'Open Sans', verdana, arial, sans-serif; font-size: 10px; fill: rgb(42, 63, 95); fill-opacity: 1; white-space: pre; opacity: 1;" transform="translate(0,54.19)">6</text></g></g><g class="overaxes-above"/></g></g><g class="polarlayer"/><g class="smithlayer"/><g class="ternarylayer"/><g class="geolayer"/><g class="funnelarealayer"/><g class="pielayer"/><g class="iciclelayer"/><g class="treemaplayer"/><g class="sunburstlayer"/><g class="glimages"/><defs id="topdefs-0a33fe"><g class="clips"/><clipPath id="legend0a33fe"><rect width="73" height="48" x="0" y="0"/></clipPath><clipPath id="rangesliderx-0a33fe"><rect x="0" y="0" width="583" height="61.5"/></clipPath></defs><g class="layer-above"><g class="imagelayer"/><g class="shapelayer"/></g><g class="infolayer"><g class="legend" pointer-events="all" transform="translate(626.66,25)"><rect class="bg" shape-rendering="crispEdges" width="73" height="48" x="0" y="0" style="stroke: rgb(68, 68, 68); stroke-opacity: 1; fill: rgb(255, 255, 255); fill-opacity: 1; stroke-width: 0px;"/><g class="scrollbox" transform="" clip-path="url(#legend0a33fe)"><g class="groups"><g class="traces" transform="translate(0,14.5)" style="opacity: 1;"><text class="legendtext" text-anchor="start" x="40" y="3.9" style="font-family: 'Open Sans', verdana, arial, sans-serif; font-size: 10px; fill: rgb(42, 63, 95); fill-opacity: 1; white-space: pre;">yhat1</text><g class="layers" style="opacity: 1;"><g class="legendfill"/><g class="legendlines"><path class="js-line" d="M5,0h30" style="fill: none; stroke: rgb(45, 146, 255); stroke-opacity: 1; stroke-width: 2px;"/></g><g class="legendsymbols"><g class="legendpoints"/></g></g><rect class="legendtoggle" x="0" y="-9.5" width="67.796875" height="19" style="fill: rgb(0, 0, 0); fill-opacity: 0;"/></g><g class="traces" transform="translate(0,33.5)" style="opacity: 1;"><text class="legendtext" text-anchor="start" x="40" y="3.9" style="font-family: 'Open Sans', verdana, arial, sans-serif; font-size: 10px; fill: rgb(42, 63, 95); fill-opacity: 1; white-space: pre;">Actual</text><g class="layers" style="opacity: 1;"><g class="legendfill"/><g class="legendlines"/><g class="legendsymbols"><g class="legendpoints"><path class="scatterpts" transform="translate(20,0)" d="M2,0A2,2 0 1,1 0,-2A2,2 0 0,1 2,0Z" style="opacity: 1; stroke-width: 0px; fill: rgb(0, 0, 0); fill-opacity: 1;"/></g></g></g><rect class="legendtoggle" x="0" y="-9.5" width="67.796875" height="19" style="fill: rgb(0, 0, 0); fill-opacity: 0;"/></g></g></g><rect class="scrollbar" rx="20" ry="3" width="0" height="0" x="0" y="0" style="fill: rgb(128, 139, 164); fill-opacity: 1;"/></g><g class="rangeselector" transform="" style="cursor: pointer; pointer-events: all;"><g class="button" transform=""><rect class="selector-rect" shape-rendering="crispEdges" rx="3" ry="3" x="0" y="0" width="30" height="19" style="stroke: rgb(68, 68, 68); stroke-opacity: 1; fill: rgb(238, 238, 238); fill-opacity: 1; stroke-width: 0px;"/><text class="selector-text" text-anchor="middle" x="15" y="12.5" style="font-family: 'Open Sans', verdana, arial, sans-serif; font-size: 10px; fill: rgb(42, 63, 95); fill-opacity: 1; white-space: pre;">1w</text></g><g class="button" transform="translate(35,0)"><rect class="selector-rect" shape-rendering="crispEdges" rx="3" ry="3" x="0" y="0" width="30" height="19" style="stroke: rgb(68, 68, 68); stroke-opacity: 1; fill: rgb(238, 238, 238); fill-opacity: 1; stroke-width: 0px;"/><text class="selector-text" text-anchor="middle" x="15" y="12.5" style="font-family: 'Open Sans', verdana, arial, sans-serif; font-size: 10px; fill: rgb(42, 63, 95); fill-opacity: 1; white-space: pre;">1m</text></g><g class="button" transform="translate(70,0)"><rect class="selector-rect" shape-rendering="crispEdges" rx="3" ry="3" x="0" y="0" width="30" height="19" style="stroke: rgb(68, 68, 68); stroke-opacity: 1; fill: rgb(238, 238, 238); fill-opacity: 1; stroke-width: 0px;"/><text class="selector-text" text-anchor="middle" x="15" y="12.5" style="font-family: 'Open Sans', verdana, arial, sans-serif; font-size: 10px; fill: rgb(42, 63, 95); fill-opacity: 1; white-space: pre;">6m</text></g><g class="button" transform="translate(105,0)"><rect class="selector-rect" shape-rendering="crispEdges" rx="3" ry="3" x="0" y="0" width="30" height="19" style="stroke: rgb(68, 68, 68); stroke-opacity: 1; fill: rgb(238, 238, 238); fill-opacity: 1; stroke-width: 0px;"/><text class="selector-text" text-anchor="middle" x="15" y="12.5" style="font-family: 'Open Sans', verdana, arial, sans-serif; font-size: 10px; fill: rgb(42, 63, 95); fill-opacity: 1; white-space: pre;">1y</text></g><g class="button" transform="translate(140,0)"><rect class="selector-rect" shape-rendering="crispEdges" rx="3" ry="3" x="0" y="0" width="30" height="19" style="stroke: rgb(68, 68, 68); stroke-opacity: 1; fill: rgb(212, 212, 212); fill-opacity: 1; stroke-width: 0px;"/><text class="selector-text" text-anchor="middle" x="15" y="12.5" style="font-family: 'Open Sans', verdana, arial, sans-serif; font-size: 10px; fill: rgb(42, 63, 95); fill-opacity: 1; white-space: pre;">all</text></g></g><g class="g-gtitle"/><g class="rangeslider-container" pointer-events="all" transform="translate(32,331)"><rect class="rangeslider-bg" x="0" y="0" shape-rendering="crispEdges" width="583" height="61.5" transform="" stroke-width="0" style="stroke: rgb(68, 68, 68); stroke-opacity: 1; fill: rgb(255, 255, 255); fill-opacity: 1;"/><g class="rangeslider-rangeplot xy" clip-path="url(#rangesliderx-0a33fe)"><g class="layer-subplot"><g class="shapelayer"/><g class="imagelayer"/></g><g class="minor-gridlayer"><g class="x"/><g class="y"/></g><g class="gridlayer"><g class="x"/><g class="y"/></g><g class="zerolinelayer"/><path class="xlines-below"/><path class="ylines-below"/><g class="overlines-below"/><g class="xaxislayer-below"/><g class="yaxislayer-below"/><g class="overaxes-below"/><g class="plot"><g class="scatterlayer mlayer rangeplot"><g class="trace scatter tracec1bba0" style="stroke-miterlimit: 2; opacity: 1;"><g class="fills"/><g class="errorbars"/><g class="lines"><path class="js-line" d="M32.15,34.54L33.58,32.93L35,26.65L36.43,20.1L37.85,18.38L42.13,30.22L43.55,29.05L46.4,16.33L47.83,14.34L52.1,26.8L53.53,25.38L56.38,13.2L57.8,11.33L62.08,24.18L63.5,22.88L66.35,10.61L67.78,9.21L72.05,22.02L73.48,21.15L76.33,9.12L77.75,7.45L82.03,20.85L83.45,19.74L86.3,8.14L87.73,6.5L92,20.05L93.43,18.94L96.28,7.36L97.7,5.76L101.98,19.31L103.4,18.18L106.25,6.28L107.68,5.02L111.95,18.18L113.38,17.42L116.23,5.51L117.65,3.88L121.93,17.46L123.35,16.37L126.2,4.83L127.63,3.27L131.9,16.99L133.33,15.94L136.18,4.58L137.6,3.1L141.88,17.06L143.3,16.13L146.15,4.65L147.58,3.6L151.85,17.56L153.28,17.09L156.13,5.78L157.55,4.53L161.83,19.17L163.25,18.47L166.1,7.68L167.53,6.49L171.8,21.3L173.23,20.64L176.08,9.98L177.5,8.82L181.78,23.67L183.2,23.01L186.05,11.97L187.48,11.1L191.75,25.52L193.18,25.12L196.03,13.94L197.45,12.68L201.73,27.21L203.15,26.39L206,15.4L207.43,14.08L211.7,28.35L213.13,27.48L215.98,16.05L217.4,14.95L221.68,28.79L223.1,28.23L225.95,16.71L227.38,15.33L231.65,29.53L233.08,28.64L235.93,17.56L237.35,16.22L241.63,30.57L243.05,29.77L245.9,18.86L247.33,17.6L251.6,32.25L253.03,31.56L255.88,20.49L257.3,19.67L261.58,34.32L263,34.05L265.85,23.18L267.28,22.11L271.55,37.3L272.98,36.78L275.83,26.38L277.25,25.38L281.53,40.68L282.95,40.19L285.8,29.81L287.23,28.77L291.5,44.07L292.92,43.54L295.77,32.75L297.2,32.04L301.47,46.85L302.9,46.58L305.75,35.69L307.17,34.58L311.45,49.5L312.87,48.85L315.72,38.15L317.15,36.93L321.42,51.68L322.85,50.97L325.7,40.11L327.12,38.88L331.4,53.46L332.82,52.65L335.67,41.43L337.1,40.48L341.37,54.59L342.8,54.13L345.65,42.83L347.07,41.54L351.35,55.93L352.77,55.13L355.62,44.09L357.05,42.78L361.32,57.16L362.75,56.31L365.6,45.25L367.02,43.91L371.3,57.82L372.72,57.3L375.57,45.86L377,44.48L381.27,58.59L382.7,57.67L385.55,46.44L386.97,44.96L391.25,58.9L392.67,57.91L395.52,46.49L396.95,44.96L401.22,58.64L402.65,57.53L405.5,45.63L406.92,44.34L411.2,57.37L412.62,56.53L415.47,44.47L416.9,42.72L421.17,55.9L422.6,54.66L425.45,42.74L426.87,40.99L428.3,44.85L429.72,50.9L431.15,54.01L432.57,52.68L435.42,40.76L436.85,38.96L441.12,51.91L442.55,50.64L445.4,38.38L446.82,36.95L451.1,49.66L452.52,48.74L455.37,36.56L456.8,34.84L461.07,48.1L462.5,46.93L465.35,35.21L466.77,33.58L471.05,47.02L472.47,45.93L475.32,34.39L476.75,32.82L481.02,46.45L482.45,45.39L485.3,33.61L486.72,32.37L491,45.76L492.42,45.05L495.27,33.23L496.7,31.67L500.97,45.29L502.4,44.16L505.25,32.58L506.67,30.94L510.95,44.27L512.37,43.08L515.22,31.26L516.65,29.48L520.92,42.47L522.35,41.15L525.2,28.7L526.62,27.14L530.9,39.38L532.32,37.89L535.17,25.57L536.6,23.56L538.02,27.19L539.45,32.98L540.87,35.79L542.3,34.25L545.15,21.76L546.57,19.69L550.85,31.79" style="vector-effect: none; fill: none; stroke: rgb(45, 146, 255); stroke-opacity: 1; stroke-width: 2px; opacity: 1;"/></g><g class="points"/><g class="text"/></g><g class="trace scatter traceed9fb6" style="stroke-miterlimit: 2; opacity: 1;"><g class="fills"/><g class="errorbars"/><g class="lines"/><g class="points"/><g class="text"/></g></g></g><g class="overplot"/><path class="xlines-above crisp" style="fill: none;"/><path class="ylines-above crisp" style="fill: none;"/><g class="overlines-above"/><g class="xaxislayer-above"/><g class="yaxislayer-above"/><g class="overaxes-above"/></g><rect class="rangeslider-mask-min" x="0" y="0" shape-rendering="crispEdges" height="61.5" width="0" style="fill: rgb(0, 0, 0); fill-opacity: 0.4;"/><rect class="rangeslider-mask-max" y="0" shape-rendering="crispEdges" height="61.5" x="583" width="0" style="fill: rgb(0, 0, 0); fill-opacity: 0.4;"/><g class="rangeslider-grabber-min" transform="translate(-2.5,0.5)"><rect class="rangeslider-handle-min" x="0" width="4" rx="1" fill="#fff" stroke="#444" stroke-width="1" shape-rendering="crispEdges" y="15" height="31"/><rect class="rangeslider-grabarea-min" width="10" x="0" y="0" fill="transparent" height="61.5"/></g><g class="rangeslider-grabber-max" transform="translate(581.5,0.5)"><rect class="rangeslider-handle-max" x="0" width="4" rx="1" fill="#fff" stroke="#444" stroke-width="1" shape-rendering="crispEdges" y="15" height="31"/><rect class="rangeslider-grabarea-max" width="10" x="0" y="0" fill="transparent" height="61.5"/></g></g><g class="g-ytitle" transform="translate(10.712890625,0)"><text class="ytitle" transform="rotate(-90,0.2875000000000014,162.5)" x="0.2875000000000014" y="162.5" text-anchor="middle" style="font-family: 'Open Sans', verdana, arial, sans-serif; font-size: 12px; fill: rgb(42, 63, 95); opacity: 1; font-weight: normal; white-space: pre;">y</text></g><g class="g-xtitle"><text class="xtitle" x="323.5" y="420.5" text-anchor="middle" style="font-family: 'Open Sans', verdana, arial, sans-serif; font-size: 12px; fill: rgb(42, 63, 95); opacity: 1; font-weight: normal; white-space: pre;">ds</text></g></g></svg>